<svg height="512" viewBox="0 0 58 58" width="512" xmlns="http://www.w3.org/2000/svg"><g id="050---Alien" fill="none"><path id="Shape" d="m49 0c-20.62 0-35 7.89-42.64 15.11 2 2.39 3.82 4.89 6.64 4.89 3.5 0 7.81-1.07 9.56.62 4.44-3.88 9.54-7.62 15.44-7.62 6.44 0 12.19-.3 15.85-1.57 2.6-.9 4.15-2.31 4.15-4.43 0-5.11-4-7-9-7z" fill="#5d4c72"/><path id="Shape" d="m42.37 51.68-1.81 4.82c-.2965304.768121-.9803236 1.319697-1.7938011 1.4469546s-1.6330529-.1891366-2.15-.83-.6527293-1.5088336-.3561989-2.2769546l.41-1c.1926509-.4893544.0471481-1.0471149-.36-1.38-1.42-1.15-5.31-2.28-7-5 0 0 0-2.4.08-2.5.0639073-.2645331.1684853-.5175446.31-.75.4578593-.7643008 1.2891894-1.2257272 2.18-1.21l3 2c1.23 2.37 3.38 4.92 6.47 5.12.3668011.0215758.7016909.2156572.9027695.5231891.2010786.307532.2445663.6921457.1172305 1.0368109z" fill="#3d324c"/><path id="Shape" d="m57.47 23c-5.31.34-7.47 2.29-7.47 5 0 2 2 6 2 8 0 6-7 9-16 9h-4.12c-1.3770532.0154109-2.4972181 1.1135253-2.54 2.49-.12 1.87 1.66 2.25 1.66 4.51 0 4-2 6-5 6h-13c-.5949634.0086721-1.1628937-.2480232-1.5494947-.7003464-.3866011-.4523232-.551723-1.0532991-.4505053-1.6396536.2005094-.9962504 1.0945447-1.6996146 2.11-1.66h10.58c.7752913-.0050331 1.4632722-.4980725 1.7171922-1.2306205.25392-.7325479.0186656-1.5456045-.5871922-2.0293795-2.44-1.87-4.82-2.74-4.82-6.74.0334733-3.0395042.8239626-6.0227421 2.3-8.68-1.412391.5917094-2.7325229 1.383115-3.92 2.35-.8631233.6473141-1.3737319 1.6611311-1.38 2.74v.59c0 1.1045695-.8954305 2-2 2-.5694029-.0170836-1.1065988-.2680673-1.4850597-.6938358-.3784609-.4257686-.5647321-.9886853-.5149403-1.5561642.0719325-2.1261122 1.0202587-4.1277321 2.62-5.53 2.4840396-2.0547048 5.3944864-3.5304243 8.52-4.32.814748-.1599109 1.5613156-.5645925 2.14-1.16 1.4514942-1.5616159 3.0302611-2.9998992 4.72-4.3 1.1317062-.8501873 1.5151767-2.3757328.92-3.66-.956603-2.0881912-1.5711173-4.3166496-1.82-6.6 1.23-.66.63-2.8 1.94-3.18.44-.12 2.75 1.37 3.2 1.28.4829051 2.7725968 1.4151635 5.4477732 2.76 7.92.7511199 1.4135507 1.0709978 3.0164172.92 4.61-.3644088 3.9419804-1.5753099 7.7588774-3.55 11.19-.2312513.4208656-.221525.9328946.0255428 1.3446743s.6942811.6613165 1.1744572.6553257c4.77-.1 10.43-.64 10.43-4 0-2-2-4-2-8 0-2 2-6 6-6 2.2537655-.0321369 4.4993497.2780639 6.66.92.2465455.098182.3903255.35593.3443451.6172922s-.2690941.4545641-.5343451.4627078z" fill="#5d4c72"/><path id="Shape" d="m53.83 11.38c-3.66 1.27-9.39 1.62-15.83 1.62-5.9 0-11 3.75-15.44 7.62-1.75-1.69-4.06-2.62-7.56-2.62 1 0 6-11 25-11 4.88 0 10.74 1.46 13.83 4.38z" fill="#3d324c"/><path id="Shape" d="m22.56 20.62c-5.63 4.91-10.56 10.38-15.56 10.38s-7-2-7-6c0-2.13 2.15-5.91 6.36-9.89 2 2.39 5.82 2.89 8.64 2.89 3.5 0 5.81.93 7.56 2.62z" fill="#8697cb"/><path id="Shape" d="m58 7c0 2.12-1.55 3.52-4.15 4.42-3.09-2.92-8.97-4.42-13.85-4.42 0 0 7.81-1.95 10.83-6.91 4.11.43 7.17 2.42 7.17 6.91z" fill="#b49aca"/><path id="Shape" d="m33 28.41c0 .5522847-.4477153 1-1 1-2.376111.0963925-4.7294064.5031764-7 1.21 1.17-.48 1.33-1.11 3.21-2.84 1.2519188-.2207582 2.519023-.3444596 3.79-.37.5522847 0 1 .4477153 1 1z" fill="#3d324c"/><path id="Shape" d="m18.38 37.67-.2.16z" fill="#000"/><g fill="#3d324c"><path id="Shape" d="m31.76 34.52c0 .5522847-.4477153 1-1 1-3.4501988-.0209868-6.8352122.9397189-9.76 2.77.3574835-1.0327419.7954959-2.0358238 1.31-3 2.6578502-1.2010775 5.5434045-1.8150252 8.46-1.8.2687582.0025664.5251695.1132108.711419.3069856.1862495.1937747.2866564.4543653.278581.7230144z"/><path id="Shape" d="m29.35 47.42c-.0051263.0264203-.0051263.0535797 0 .08 0 0-.01-.06 0-.08z"/><circle id="Oval" cx="7" cy="25" r="2"/></g></g></svg>