<?xml version="1.0" encoding="iso-8859-1"?>
<!-- Generator: Adobe Illustrator 19.0.0, SVG Export Plug-In . SVG Version: 6.00 Build 0)  -->
<svg version="1.1" id="Capa_1" xmlns="http://www.w3.org/2000/svg" xmlns:xlink="http://www.w3.org/1999/xlink" x="0px" y="0px"
	 viewBox="0 0 512 512" style="enable-background:new 0 0 512 512;" xml:space="preserve">
<path style="fill:#C10000;" d="M421,330h-30V210h30c33.091,0,60,26.909,60,60S454.091,330,421,330z"/>
<path style="fill:#F40000;" d="M121,330H91c-33.091,0-60-26.909-60-60s26.909-60,60-60h30V330z"/>
<path style="fill:#FF3636;" d="M421,195v150c0,91.199-73.801,167-165,167S91,436.199,91,345V195c0-91.201,73.801-165,165-165
	c45.601,0,87.001,18.6,116.7,48.3S421,149.399,421,195z"/>
<path style="fill:#F40000;" d="M421,195v150c0,91.199-73.801,167-165,167V30c45.601,0,87.001,18.6,116.7,48.3S421,149.399,421,195z"
	/>
<path style="fill:#EDE9E8;" d="M320.799,382.5C307.599,405.599,282.7,420,256,420s-51.599-14.401-64.799-37.5l25.8-15
	c8.099,13.799,23.099,22.5,39,22.5s30.901-8.701,39-22.5L320.799,382.5z"/>
<path style="fill:#444444;" d="M316,330c-24.814,0-45-20.186-45-45c0-14.106,6.738-27.568,18.018-36.021
	C296.84,243.105,306.171,240,316,240c24.814,0,45,20.186,45,45S340.814,330,316,330z"/>
<g>
	<path style="fill:#5A5A5A;" d="M196,330c-24.814,0-45-20.186-45-45s20.186-45,45-45c9.814,0,19.146,3.105,26.982,8.979l0,0
		C234.262,257.432,241,270.894,241,285C241,309.814,220.814,330,196,330z"/>
	
		<rect x="146.233" y="228.002" transform="matrix(-0.8683 -0.4961 0.4961 -0.8683 220.4272 544.5331)" style="fill:#5A5A5A;" width="72.552" height="29.998"/>
</g>
<rect x="314.503" y="206.696" transform="matrix(-0.4961 -0.8682 0.8682 -0.4961 282.0178 649.6019)" style="fill:#444444;" width="29.995" height="72.546"/>
<path style="fill:#DFD7D5;" d="M316,270c-3.281,0-6.387,1.025-8.979,2.988C303.183,275.859,301,280.225,301,285
	c0,8.276,6.724,15,15,15s15-6.724,15-15S324.276,270,316,270z"/>
<path style="fill:#EDE9E8;" d="M196,270c-8.276,0-15,6.724-15,15s6.724,15,15,15s15-6.724,15-15c0-4.775-2.183-9.141-6.006-11.997
	l-0.015-0.015C202.387,271.025,199.281,270,196,270z"/>
<path style="fill:#444444;" d="M331,150V90h30c16.538,0,30-13.462,30-30V0c33.091,0,60,26.909,60,60c0,49.629-40.371,90-90,90H331z"
	/>
<path style="fill:#5A5A5A;" d="M151,150c-49.629,0-90-40.371-90-90c0-33.091,26.909-60,60-60v60c0,16.538,13.462,30,30,30h30v60H151
	z"/>
<path style="fill:#DFD7D5;" d="M320.799,382.5C307.599,405.599,282.7,420,256,420v-30c15.901,0,30.901-8.701,39-22.5L320.799,382.5z
	"/>
<g>
</g>
<g>
</g>
<g>
</g>
<g>
</g>
<g>
</g>
<g>
</g>
<g>
</g>
<g>
</g>
<g>
</g>
<g>
</g>
<g>
</g>
<g>
</g>
<g>
</g>
<g>
</g>
<g>
</g>
</svg>
