<?xml version="1.0" encoding="iso-8859-1"?>
<!-- Generator: Adobe Illustrator 19.0.0, SVG Export Plug-In . SVG Version: 6.00 Build 0)  -->
<svg version="1.1" id="Capa_1" xmlns="http://www.w3.org/2000/svg" xmlns:xlink="http://www.w3.org/1999/xlink" x="0px" y="0px"
	 viewBox="0 0 512 512" style="enable-background:new 0 0 512 512;" xml:space="preserve">
<path style="fill:#FF3636;" d="M420.099,180H91.901C99.401,96,169.9,30,256,30S412.599,96,420.099,180z"/>
<path style="fill:#F40000;" d="M420.099,180H256V30C342.1,30,412.599,96,420.099,180z"/>
<rect x="211" style="fill:#FFB64C;" width="90" height="135.6"/>
<rect x="256" style="fill:#FF9F00;" width="45" height="135.6"/>
<rect x="31" y="300" style="fill:#5A5A5A;" width="450" height="180"/>
<rect x="256" y="300" style="fill:#444444;" width="225" height="180"/>
<path style="fill:#F40000;" d="M512,225c0,16.199-9.101,39.901-46.901,61.8H46.901C9.101,264.901,0,241.199,0,225
	c0-68.101,132.4-105,256-105S512,156.899,512,225z"/>
<path style="fill:#C10000;" d="M512,225c0,16.199-9.101,39.901-46.901,61.8H256V120C379.6,120,512,156.899,512,225z"/>
<path style="fill:#F6A96C;" d="M421,360h-30V240h30c33.091,0,60,26.909,60,60S454.091,360,421,360z"/>
<path style="fill:#FFBD86;" d="M121,360H91c-33.091,0-60-26.909-60-60s26.909-60,60-60h30V360z"/>
<path style="fill:#FED2A4;" d="M411.4,204c-24-9-75.601-24-155.4-24s-131.4,15-155.4,24l-9.6,3.6V345c0,90.901,74.099,167,165,167
	s165-76.099,165-167V207.599L411.4,204z"/>
<path style="fill:#FFBD86;" d="M421,207.599V345c0,90.901-74.099,167-165,167V180c79.799,0,131.4,15,155.4,24L421,207.599z"/>
<rect x="301" y="270" style="fill:#444444;" width="30" height="30"/>
<rect x="181" y="270" style="fill:#5A5A5A;" width="30" height="30"/>
<path style="fill:#B34F03;" d="M331,390v30h-4.501c-26.1,0-51.299-9.6-70.499-27.001C236.8,410.4,211.601,420,185.501,420H181v-30
	h4.501c21.599,0,41.999-9,56.4-24.901L246.4,360h19.2l4.499,5.099C284.5,381,304.9,390,326.499,390H331z"/>
<path style="fill:#913F02;" d="M331,390v30h-4.501c-26.1,0-51.299-9.6-70.499-27.001V360h9.6l4.499,5.099
	C284.5,381,304.9,390,326.499,390H331z"/>
<g>
</g>
<g>
</g>
<g>
</g>
<g>
</g>
<g>
</g>
<g>
</g>
<g>
</g>
<g>
</g>
<g>
</g>
<g>
</g>
<g>
</g>
<g>
</g>
<g>
</g>
<g>
</g>
<g>
</g>
</svg>
