<svg id="Layer_1" enable-background="new 0 0 512.349 512.349" height="512" viewBox="0 0 512.349 512.349" width="512" xmlns="http://www.w3.org/2000/svg"><g><path d="m273.333 82.274h-87.639v30c25.236 0 45.768 20.531 45.768 45.768v28.371l111.239-19.626v-15.145c0-38.25-31.118-69.368-69.368-69.368z" fill="#4895ff"/><path d="m231.462 355.314v28.367c0 25.236-20.531 45.768-45.768 45.768v30h87.639c38.25 0 69.368-31.119 69.368-69.369v-15.14z" fill="#4895ff"/><path d="m231.462 355.314v28.367c0 25.236-20.531 45.768-45.768 45.768v30h87.639c38.25 0 69.368-31.119 69.368-69.369v-15.14z" fill="#424ede"/><path d="m125.869 242.964c0-36.47-29.671-66.141-66.141-66.141h-59.728v42.897c0 20.585 9.456 39 24.249 51.14-14.793 12.141-24.249 30.556-24.249 51.141v42.896h59.729c36.47 0 66.141-29.67 66.141-66.14v-55.793z" fill="#4895ff"/><path d="m0 322.001v42.896h59.729c36.47 0 66.141-29.67 66.141-66.14v-27.896h-101.623c-14.792 12.142-24.247 30.556-24.247 51.14z" fill="#424ede"/><path d="m508.059 263.392c-.728-1.266-18.158-31.343-49.204-61.638-32.869-32.074-68.831-52.31-105.445-59.591-15.468 42.777-23.305 86.029-23.306 128.7-.001 42.673 7.837 85.925 23.304 128.699 36.615-7.281 72.577-27.517 105.447-59.591 31.046-30.295 48.477-60.372 49.204-61.638l4.29-7.471z" fill="#beebfa"/><path d="m330.104 270.864c-.001 42.673 7.837 85.925 23.304 128.699 36.615-7.281 72.577-27.517 105.447-59.591 31.046-30.295 48.477-60.372 49.204-61.638l4.29-7.471-182.245.001c0-.001 0-.001 0 0z" fill="#5ecef4"/><path d="m382.263 150.645c-19.564-7.616-39.508-11.529-59.446-11.529-54.517 0-110.573 21.285-162.109 61.554-38.503 30.084-60.936 59.979-61.871 61.237l-6.664 8.955 6.664 8.955c.936 1.258 23.368 31.153 61.871 61.237 51.536 40.269 107.593 61.554 162.109 61.554 19.938 0 39.882-3.912 59.446-11.529-14.697-40.056-22.16-80.467-22.159-120.217 0-39.744 7.463-80.156 22.159-120.217z" fill="#5ecef4"/><g><path d="m398.426 227.377h30.002v30h-30.002z" fill="#60382c"/></g><g><path d="m426.094 92.903h30.002v30h-30.002z" fill="#beebfa"/></g><g><path d="m466.096 132.906h30.002v30h-30.002z" fill="#beebfa"/></g><g><path d="m466.096 52.9h30.002v30h-30.002z" fill="#beebfa"/></g><g><path d="m398.426 227.377h30.002v30h-30.002z" fill="#3c1b13"/></g><g><path d="m426.094 92.903h30.002v30h-30.002z" fill="#5ecef4"/></g><g><path d="m466.096 132.906h30.002v30h-30.002z" fill="#5ecef4"/></g><g><path d="m466.096 52.9h30.002v30h-30.002z" fill="#5ecef4"/></g><path d="m360.104 270.863h-267.932l6.664 8.955c.936 1.258 23.368 31.153 61.871 61.237 51.536 40.269 107.593 61.554 162.109 61.554 19.938 0 39.882-3.912 59.446-11.529-14.696-40.055-22.159-80.467-22.158-120.217z" fill="#4895ff"/></g></svg>