<?xml version="1.0" encoding="iso-8859-1"?>
<!-- Generator: Adobe Illustrator 19.0.0, SVG Export Plug-In . SVG Version: 6.00 Build 0)  -->
<svg version="1.1" id="Capa_1" xmlns="http://www.w3.org/2000/svg" xmlns:xlink="http://www.w3.org/1999/xlink" x="0px" y="0px"
	 viewBox="0 0 512 512" style="enable-background:new 0 0 512 512;" xml:space="preserve">
<path style="fill:#006DFF;" d="M512,168.33c-43.305,0-33.429-48.624-33.429-48.624l0,0c-25.739-18.266-61.496-11.537-78.834,14.836
	l-2.331,3.545c-12.409,18.876-33.483,30.242-56.073,30.242l0,0c-43.305,0-33.429-48.624-33.429-48.624l0,0
	c-25.739-18.266-61.496-11.537-78.834,14.836l-2.331,3.545c-12.409,18.876-33.483,30.242-56.073,30.242l0,0
	c-43.305,0-33.429-48.624-33.429-48.624l0,0c-25.739-18.266-61.496-11.537-78.834,14.836l-2.331,3.545
	C43.664,156.964,22.59,168.33,0,168.33v234.256h512V168.33z"/>
<path style="fill:#0050C0;" d="M512,168.33c-43.305,0-33.429-48.624-33.429-48.624l0,0c-25.739-18.266-61.496-11.537-78.834,14.836
	l-2.331,3.545c-12.409,18.876-33.483,30.242-56.073,30.242c-43.305,0-33.429-48.624-33.429-48.624l0,0
	c-15.726-11.16-35.185-12.974-51.904-6.694v289.573h256V168.33z"/>
<path style="fill:#08B7FC;" d="M512,262.697c-43.305,0-33.429-48.624-33.429-48.624l0,0c-25.739-18.266-61.496-11.537-78.834,14.836
	l-2.331,3.545c-12.409,18.876-33.483,30.242-56.073,30.242l0,0c-43.305,0-33.429-48.624-33.429-48.624l0,0
	c-25.739-18.266-61.496-11.537-78.834,14.836l-2.331,3.545c-12.409,18.876-33.483,30.242-56.073,30.242l0,0
	c-43.305,0-33.429-48.624-33.429-48.624l0,0c-25.739-18.266-61.496-11.537-78.834,14.836l-2.331,3.545
	C43.664,251.331,22.59,262.697,0,262.697v139.889h512V262.697z"/>
<path style="fill:#006DFF;" d="M512,262.697c-43.305,0-33.429-48.624-33.429-48.624l0,0c-25.739-18.266-61.496-11.537-78.834,14.836
	l-2.331,3.545c-12.409,18.876-33.483,30.242-56.073,30.242c-43.305,0-33.429-48.624-33.429-48.624l0,0
	c-15.726-11.16-35.185-12.974-51.904-6.694v195.206h256V262.697z"/>
<path style="fill:#82D2FF;" d="M512,357.064c-43.305,0-33.429-48.624-33.429-48.624l0,0c-25.739-18.266-61.496-11.537-78.834,14.836
	l-2.331,3.545c-12.409,18.876-33.483,30.242-56.073,30.242l0,0c-43.305,0-33.429-48.624-33.429-48.624l0,0
	c-25.739-18.266-61.496-11.537-78.834,14.836l-2.331,3.545c-12.409,18.876-33.483,30.242-56.073,30.242l0,0
	c-43.305,0-33.429-48.624-33.429-48.624l0,0c-25.739-18.266-61.496-11.537-78.834,14.836l-2.331,3.545
	C43.664,345.698,22.59,357.064,0,357.064v45.522h512V357.064z"/>
<path style="fill:#08B7FC;" d="M512,357.064c-43.305,0-33.429-48.624-33.429-48.624l0,0c-25.739-18.266-61.496-11.537-78.834,14.836
	l-2.331,3.545c-12.409,18.876-33.483,30.242-56.073,30.242c-43.305,0-33.429-48.624-33.429-48.624l0,0
	c-15.726-11.16-35.185-12.974-51.904-6.694v100.839h256V357.064z"/>
<g>
</g>
<g>
</g>
<g>
</g>
<g>
</g>
<g>
</g>
<g>
</g>
<g>
</g>
<g>
</g>
<g>
</g>
<g>
</g>
<g>
</g>
<g>
</g>
<g>
</g>
<g>
</g>
<g>
</g>
</svg>
