<svg id="Layer_1" enable-background="new 0 0 512 512" height="512" viewBox="0 0 512 512" width="512" xmlns="http://www.w3.org/2000/svg"><g><path d="m381.545 228.298v-135.228c0-17.134-13.89-31.023-31.023-31.023-17.134 0-31.023 13.89-31.023 31.023v107.678-138.701c0-17.134-13.89-31.023-31.023-31.023-17.134 0-31.023 13.89-31.023 31.023v138.701-169.725c-.001-17.133-13.89-31.023-31.024-31.023-17.134 0-31.023 13.89-31.023 31.023v169.724-138.7c0-17.134-13.89-31.023-31.023-31.023-17.134 0-31.023 13.89-31.023 31.023v174.806c0 14.282-11.578 25.86-25.86 25.86-6.858 0-13.436-2.725-18.286-7.574l-36.364-36.364c-11.9-11.9-31.194-11.9-43.094 0l-.78.78c-11.9 11.9-11.9 31.194 0 43.094l61.21 61.21 6.97 29.625c6.107 25.954 22.668 48.231 45.764 61.554v96.962h227.306v-43.836z" fill="#ffd4c4"/><path d="m350.522 62.047c-17.134 0-31.023 13.89-31.023 31.023v107.678-107.678-31.023c0-17.134-13.89-31.023-31.023-31.023-17.134 0-31.023 13.89-31.023 31.023v138.701-138.701-31.024c-.001-17.133-13.89-31.023-31.024-31.023v512h123.796v-43.836l31.32-239.867v-135.227c0-17.134-13.889-31.023-31.023-31.023z" fill="#ffbea4"/><circle cx="381.573" cy="344.879" fill="#a5e887" r="115.377"/><path d="m381.573 229.502v230.754c63.721 0 115.377-51.656 115.377-115.377s-51.656-115.377-115.377-115.377z" fill="#00cc76"/><path d="m381.573 475.256c-71.89 0-130.377-58.487-130.377-130.377s58.487-130.377 130.377-130.377 130.377 58.487 130.377 130.377-58.487 130.377-130.377 130.377zm0-230.754c-55.348 0-100.377 45.029-100.377 100.377s45.029 100.377 100.377 100.377 100.377-45.029 100.377-100.377-45.029-100.377-100.377-100.377z" fill="#00cc76"/><circle cx="381.573" cy="344.879" fill="#ff7c48" r="35.885"/><path d="m381.573 308.994v71.769c19.818 0 35.885-16.066 35.885-35.885s-16.067-35.884-35.885-35.884z" fill="#ff415b"/><path d="m454.683 359.879v-30h-24.485c-.944-3.055-2.175-5.983-3.65-8.763l12.665-12.665-21.213-21.213-12.665 12.665c-2.78-1.475-5.709-2.706-8.763-3.65v-24.485h-30v24.485c-3.054.944-5.983 2.175-8.763 3.65l-12.665-12.665-21.213 21.213 12.665 12.665c-1.475 2.78-2.706 5.709-3.65 8.763h-24.485v30h24.485c.944 3.054 2.175 5.983 3.65 8.763l-12.665 12.665 21.213 21.213 12.665-12.665c2.78 1.475 5.708 2.706 8.763 3.65v24.485h30v-24.485c3.055-.944 5.983-2.175 8.763-3.65l12.665 12.665 21.213-21.213-12.665-12.665c1.475-2.78 2.706-5.708 3.65-8.763zm-52.226-15c0 11.516-9.369 20.884-20.885 20.884s-20.884-9.369-20.884-20.884c0-11.516 9.369-20.885 20.884-20.885 11.517 0 20.885 9.369 20.885 20.885z" fill="#ff415b"/><path d="m381.573 214.502v30c55.348 0 100.377 45.029 100.377 100.377s-45.029 100.377-100.377 100.377v30c71.89 0 130.377-58.487 130.377-130.377s-58.487-130.377-130.377-130.377z" fill="#00aa95"/><path d="m396.573 393.504c3.055-.944 5.983-2.175 8.763-3.65l12.665 12.665 21.213-21.213-12.665-12.665c1.475-2.78 2.706-5.708 3.65-8.763h24.485v-30h-24.485c-.944-3.055-2.175-5.983-3.65-8.763l12.665-12.665-21.213-21.213-12.665 12.665c-2.78-1.475-5.709-2.706-8.763-3.65v-24.485h-15v52.226c11.516 0 20.885 9.369 20.885 20.885s-9.369 20.884-20.885 20.884v52.226h15z" fill="#e50058"/></g></svg>