<?xml version="1.0" encoding="iso-8859-1"?>
<!-- Generator: Adobe Illustrator 19.0.0, SVG Export Plug-In . SVG Version: 6.00 Build 0)  -->
<svg version="1.1" id="Capa_1" xmlns="http://www.w3.org/2000/svg" xmlns:xlink="http://www.w3.org/1999/xlink" x="0px" y="0px"
	 viewBox="0 0 511.997 511.997" style="enable-background:new 0 0 511.997 511.997;" xml:space="preserve">
<g transform="translate(-1)">
	<path style="fill:#CC66A1;" d="M434.521,85.889c3.543-1.394,7.207-2.458,10.946-3.178c14.124,6.268,27.454,6.356,35.135-1.324
		c12.093-12.182,5.118-38.93-15.625-59.763C444.32,0.88,417.749-6.182,405.656,5.911c-7.593,7.768-7.593,21.363-1.237,35.575v0.088
		c-0.763,3.671-1.825,7.273-3.177,10.77c-5.999,15.157-16.868,27.89-30.897,36.193c-67.48-49.435-159.214-49.435-226.694,0
		c-14.028-8.304-24.897-21.036-30.897-36.193c-1.351-3.497-2.414-7.099-3.177-10.77v-0.088c6.356-14.212,6.356-27.807-1.237-35.575
		C96.248-6.182,69.677,0.88,49.02,21.625C28.276,42.458,21.302,69.205,33.395,81.387c7.681,7.68,21.011,7.592,35.135,1.324
		c3.739,0.72,7.403,1.784,10.946,3.178c14.78,5.884,27.217,16.46,35.399,30.102c-22.106,26.492-34.281,59.864-34.428,94.367
		l0.707,4.061c-10.417,1.324-17.92,11.034-20.834,24.188c-5.473,24.629,4.767,49.699,16.066,71.239
		c11.979,22.737,25.827,44.44,41.401,64.883l-64.794,43.167c-3.97,2.65-6.706,6.786-7.592,11.476
		c-0.805,4.693,0.274,9.515,3.001,13.418l24.188,33.898H53.964c-9.751,0-17.655,7.905-17.655,17.655s7.904,17.655,17.655,17.655
		h53.054c1.585-0.012,3.161-0.25,4.679-0.706c0.337-0.078,0.663-0.197,0.971-0.353c1.559-0.508,3.043-1.22,4.414-2.119
		c-0.001-0.023,0.008-0.046,0.025-0.063c0.016-0.017,0.039-0.026,0.063-0.025c0.314-0.242,0.609-0.508,0.884-0.794
		c0.53-0.441,1.059-0.883,1.588-1.412c0.375-0.393,0.729-0.806,1.06-1.236c0.352-0.441,0.706-0.883,1.058-1.412
		c0.265-0.441,0.53-0.971,0.795-1.501c0.265-0.53,0.53-0.971,0.794-1.501c0.188-0.547,0.336-1.108,0.441-1.677
		c0.188-0.517,0.336-1.049,0.442-1.589c0.132-0.7,0.22-1.408,0.265-2.119c0-0.353,0.088-0.706,0.088-1.148v-0.177
		c-0.04-0.77-0.128-1.536-0.265-2.295c-0.015-0.417-0.075-0.831-0.177-1.236c-0.124-0.603-0.301-1.194-0.529-1.766
		c-0.177-0.53-0.265-1.059-0.441-1.501l-0.795-1.324c-0.271-0.616-0.596-1.207-0.971-1.766c0-0.088-0.088-0.088-0.088-0.177
		l-33.544-46.963l52.435-35.046c0.442,0.53,0.971,1.059,1.412,1.589c23.924,26.924,55.879,58.174,91.543,68.149
		c0.422,0.076,0.836,0.195,1.235,0.353c14.8,4.001,30.398,4.001,45.198,0c0.399-0.159,0.813-0.277,1.235-0.353
		c35.663-9.975,67.619-41.225,91.543-68.149c0.441-0.53,0.97-1.059,1.412-1.589l52.435,35.046l-33.545,46.963
		c0,0.088-0.088,0.088-0.088,0.177c-0.375,0.559-0.7,1.149-0.971,1.766l-0.795,1.324c-0.176,0.441-0.264,0.971-0.441,1.501
		c-0.228,0.572-0.405,1.163-0.529,1.766c-0.102,0.405-0.161,0.819-0.177,1.236c-0.137,0.759-0.225,1.525-0.265,2.295v0.177
		c0,0.441,0.088,0.794,0.088,1.148c0.045,0.711,0.133,1.419,0.265,2.119c0.106,0.54,0.253,1.071,0.441,1.589
		c0.105,0.569,0.252,1.13,0.441,1.677c0.264,0.53,0.529,0.971,0.794,1.501c0.265,0.53,0.53,1.059,0.795,1.501
		c0.352,0.53,0.706,0.971,1.058,1.412c0.331,0.43,0.685,0.843,1.06,1.236c0.529,0.53,1.058,0.971,1.588,1.412
		c0.274,0.286,0.57,0.552,0.884,0.794c0.023,0,0.046,0.009,0.063,0.025c0.016,0.017,0.025,0.039,0.025,0.063
		c1.371,0.898,2.855,1.611,4.414,2.119c0.308,0.156,0.634,0.275,0.971,0.353c1.518,0.456,3.093,0.694,4.679,0.706h53.054
		c9.751,0,17.655-7.904,17.655-17.655s-7.904-17.655-17.655-17.655h-18.626l24.188-33.898c2.728-3.903,3.806-8.725,3.001-13.418
		c-0.886-4.69-3.622-8.826-7.592-11.476l-64.794-43.167c15.574-20.443,29.423-42.145,41.401-64.883
		c11.299-21.539,21.539-46.61,16.066-71.239c-2.914-13.153-10.417-22.863-20.834-24.188l0.707-4.061
		c-0.146-34.503-12.321-67.875-34.428-94.367C407.304,102.349,419.742,91.773,434.521,85.889z"/>
	<path style="fill:#FFFFFF;" d="M362.929,192.686c0,58.504-47.427,79.448-105.931,79.448s-105.931-20.944-105.931-79.448
		S198.494,86.755,256.998,86.755S362.929,134.182,362.929,192.686z"/>
	<circle style="fill:#2C3E50;" cx="256.998" cy="192.685" r="35.31"/>
	<path style="fill:#FFFFFF;" d="M256.998,201.527c-2.34-0.015-4.584-0.93-6.268-2.556c-0.778-0.859-1.405-1.845-1.854-2.914
		c-0.943-2.138-0.943-4.573,0-6.711c0.406-1.091,1.038-2.084,1.854-2.914c3.541-3.263,8.993-3.263,12.534,0
		c0.816,0.83,1.448,1.823,1.854,2.914c0.943,2.138,0.943,4.573,0,6.711c-0.449,1.069-1.075,2.054-1.854,2.914
		C261.571,200.58,259.334,201.492,256.998,201.527z"/>
	<path style="fill:#FF5364;" d="M316.143,397.415c-17.743,17.655-39.371,33.633-59.145,33.633
		c-19.774,0-41.401-15.978-59.145-33.633c7.679-16.331,31.25-28.16,59.145-28.16S308.464,381.084,316.143,397.415z"/>
	<g>
		<path style="fill:#2C3E50;" d="M380.585,280.979c0,0-26.13,39.106-27.807,72.563c-10.976,15.613-23.23,30.288-36.634,43.873
			c-7.679-16.331-31.25-28.16-59.145-28.16s-51.466,11.829-59.145,28.16c-13.405-13.585-25.658-28.26-36.634-43.873
			c-1.677-33.457-27.807-72.563-27.807-72.563l0.971-1.148c25.6,20.833,74.152,54.113,122.615,54.113s97.015-33.28,122.615-54.113
			L380.585,280.979z"/>
		<path style="fill:#2C3E50;" d="M256.998,316.273c-2.341,0.001-4.587-0.929-6.243-2.585c-1.656-1.656-2.585-3.901-2.585-6.243
			v-8.828c0-4.875,3.952-8.828,8.828-8.828c4.875,0,8.828,3.952,8.828,8.828v8.828c0.001,2.341-0.929,4.587-2.585,6.243
			C261.585,315.344,259.34,316.273,256.998,316.273z"/>
	</g>
	<g>
		<path style="fill:#804169;" d="M148.772,91.627c-6.035,13.508-16.805,24.341-30.278,30.455c-1.149-2.119-2.383-4.149-3.619-6.091
			c-8.182-13.642-20.619-24.219-35.399-30.102c-3.543-1.394-7.207-2.458-10.946-3.178c9.022-4.177,17.216-9.949,24.188-17.037
			c7.007-6.968,12.716-15.129,16.861-24.099c0.763,3.671,1.825,7.273,3.177,10.77c5.999,15.157,16.868,27.89,30.897,36.193
			C145.242,89.597,147.007,90.656,148.772,91.627z"/>
		<path style="fill:#804169;" d="M445.467,82.711c-3.739,0.72-7.403,1.784-10.946,3.178c-14.78,5.884-27.217,16.46-35.399,30.102
			c-1.236,1.942-2.471,3.972-3.619,6.091c-13.473-6.114-24.243-16.946-30.279-30.455c1.766-0.971,3.53-2.03,5.121-3.09
			c14.028-8.304,24.897-21.036,30.897-36.193c1.351-3.497,2.414-7.099,3.177-10.77c4.145,8.971,9.854,17.131,16.861,24.099
			C428.251,72.762,436.445,78.534,445.467,82.711z"/>
	</g>
	<g>
		<path style="fill:#FF5364;" d="M124.32,491.87c0.137,0.759,0.225,1.525,0.265,2.295v0.177c0,0.441-0.088,0.794-0.088,1.148
			c-0.045,0.711-0.133,1.419-0.265,2.119c-0.106,0.54-0.254,1.072-0.442,1.589c-0.105,0.569-0.252,1.13-0.441,1.677
			c-0.264,0.53-0.529,0.971-0.794,1.501c-0.265,0.53-0.53,1.059-0.795,1.501c-0.352,0.53-0.706,0.971-1.058,1.412
			c-0.331,0.43-0.685,0.843-1.06,1.236c-0.529,0.53-1.058,0.971-1.588,1.412c-0.274,0.286-0.57,0.552-0.884,0.794
			c-0.023,0-0.046,0.009-0.063,0.025c-0.016,0.017-0.025,0.039-0.025,0.063c-1.371,0.898-2.855,1.611-4.414,2.119
			c-0.308,0.156-0.634,0.275-0.971,0.353c-1.518,0.456-3.093,0.694-4.679,0.706H53.964c-9.751,0-17.655-7.904-17.655-17.655
			s7.904-17.655,17.655-17.655H72.59l-24.188-33.898c-2.728-3.903-3.806-8.725-3.001-13.418c0.886-4.69,3.622-8.826,7.592-11.476
			l64.794-43.167c7.151,9.445,14.654,18.626,22.422,27.366l-52.435,35.046l33.544,46.963c0,0.088,0.088,0.088,0.088,0.177
			c0.375,0.559,0.7,1.149,0.971,1.766l0.795,1.324c0.176,0.441,0.264,0.971,0.441,1.501c0.228,0.572,0.405,1.163,0.529,1.766
			C124.245,491.039,124.304,491.453,124.32,491.87z"/>
		<path style="fill:#FF5364;" d="M477.688,494.342c-0.029,9.739-7.916,17.626-17.655,17.655h-53.054
			c-1.585-0.012-3.161-0.25-4.679-0.706c-0.337-0.078-0.663-0.197-0.971-0.353c-1.559-0.508-3.043-1.22-4.414-2.119
			c0.001-0.023-0.008-0.046-0.025-0.063c-0.016-0.017-0.039-0.026-0.063-0.025c-0.314-0.242-0.609-0.508-0.884-0.794
			c-0.53-0.441-1.059-0.883-1.588-1.412c-0.375-0.393-0.729-0.806-1.06-1.236c-0.352-0.441-0.706-0.883-1.058-1.412
			c-0.265-0.441-0.53-0.971-0.795-1.501c-0.265-0.53-0.53-0.971-0.794-1.501c-0.188-0.547-0.336-1.108-0.441-1.677
			c-0.188-0.517-0.335-1.049-0.441-1.589c-0.132-0.7-0.22-1.408-0.265-2.119c0-0.353-0.088-0.706-0.088-1.148v-0.177
			c0.04-0.77,0.128-1.536,0.265-2.295c0.015-0.417,0.075-0.831,0.177-1.236c0.124-0.603,0.301-1.194,0.529-1.766
			c0.177-0.53,0.265-1.059,0.441-1.501l0.795-1.324c0.271-0.616,0.596-1.207,0.971-1.766c0-0.088,0.088-0.088,0.088-0.177
			l33.544-46.963l-52.435-35.046c7.768-8.739,15.272-17.92,22.334-27.366h0.088l64.794,43.167c3.97,2.65,6.706,6.786,7.592,11.476
			c0.805,4.693-0.274,9.515-3.001,13.418l-24.188,33.898h18.626C469.772,476.715,477.66,484.603,477.688,494.342z"/>
	</g>
</g>
<g>
</g>
<g>
</g>
<g>
</g>
<g>
</g>
<g>
</g>
<g>
</g>
<g>
</g>
<g>
</g>
<g>
</g>
<g>
</g>
<g>
</g>
<g>
</g>
<g>
</g>
<g>
</g>
<g>
</g>
</svg>
