<?xml version="1.0" encoding="iso-8859-1"?>
<!-- Generator: Adobe Illustrator 19.0.0, SVG Export Plug-In . SVG Version: 6.00 Build 0)  -->
<svg version="1.1" id="Capa_1" xmlns="http://www.w3.org/2000/svg" xmlns:xlink="http://www.w3.org/1999/xlink" x="0px" y="0px"
	 viewBox="0 0 512 512" style="enable-background:new 0 0 512 512;" xml:space="preserve">
<g>
	<g>
		<path style="fill:#527F72;" d="M74.245,111.844c3.201,2.094,6.566,3.924,10.063,5.473c13.254,5.733,27.93,7.333,42.108,4.59
			l-0.088,37.782c-14.04-2.61-28.542-0.886-41.578,4.943c-3.469,1.548-6.806,3.379-9.975,5.473"/>
		<path style="fill:#527F72;" d="M432.375,111.844c-3.201,2.094-6.566,3.924-10.063,5.473c-13.446,5.836-28.358,7.408-42.726,4.502
			l0.706,37.87c14.04-2.61,28.542-0.886,41.578,4.943c3.469,1.548,6.806,3.379,9.975,5.473"/>
	</g>
	<g>
		
			<ellipse transform="matrix(-0.0131 -0.9999 0.9999 -0.0131 -91.7564 191.5531)" style="fill:#71C285;" cx="48.654" cy="141.059" rx="53.142" ry="30.994"/>
		
			<ellipse transform="matrix(-0.9999 -0.0131 0.0131 -0.9999 914.0162 288.0283)" style="fill:#71C285;" cx="457.95" cy="141.025" rx="30.994" ry="53.142"/>
		<path style="fill:#71C285;" d="M512,473.245v0.088c0.035,7.11-4.115,13.577-10.593,16.508
			c-24.593,11.127-50.828,18.193-77.683,20.921v-0.088c-0.679-13.969-12.119-24.994-26.104-25.158
			c-13.985-0.164-25.679,10.59-26.685,24.54v0.088c-0.268,0.014-0.537-0.015-0.795-0.088v-0.088
			c0.467-2.236,0.704-4.513,0.707-6.797c0.031-17.193-12.347-31.899-29.292-34.803c-16.945-2.904-33.514,6.841-39.21,23.063
			c-13.956-3.959-28.396-5.95-42.902-5.914h-6.885c-14.477-0.029-28.887,1.962-42.814,5.914
			c-5.696-16.222-22.264-25.967-39.21-23.063c-16.945,2.904-29.323,17.611-29.292,34.803c0.003,2.284,0.24,4.562,0.707,6.797v0.088
			c-0.258,0.073-0.527,0.103-0.795,0.088v-0.088c-1.006-13.95-12.7-24.704-26.685-24.54s-25.424,11.189-26.104,25.158v0.088
			c-26.885-2.718-53.151-9.784-77.771-20.921C4.115,486.91-0.034,480.444,0,473.334v-0.088c0.034-6.181,3.197-11.925,8.402-15.258
			c5.205-3.334,11.745-3.804,17.374-1.249c91.808,40.077,104.519-66.295,106.373-96.662l-15.36-210.361
			c-2.843-39.221,10.991-77.821,38.1-106.308s64.976-44.216,104.289-43.32c38.629,1.4,75,18.555,100.649,47.474
			s38.34,67.077,35.119,105.597l-15.095,206.919c1.854,30.367,14.565,136.739,106.373,96.662c5.629-2.555,12.168-2.085,17.374,1.249
			C508.804,461.321,511.966,467.064,512,473.245z"/>
	</g>
	<g>
		<path style="fill:#606060;" d="M141.153,510.056v0.088c-17.518,2.179-35.225,2.386-52.789,0.618v-0.088
			c0.679-13.969,12.119-24.994,26.104-25.158S140.147,496.107,141.153,510.056z"/>
		<path style="fill:#606060;" d="M209.744,491.43c-4.97,1.382-9.862,3.032-14.654,4.943c-17.088,6.715-34.935,11.31-53.141,13.683
			v-0.088c-0.467-2.236-0.704-4.513-0.707-6.797c-0.031-17.193,12.347-31.899,29.292-34.803
			C187.479,465.463,204.048,475.209,209.744,491.43z"/>
		<path style="fill:#606060;" d="M423.724,510.674v0.088c-17.564,1.768-35.271,1.561-52.789-0.618v-0.088
			c1.006-13.95,12.7-24.704,26.685-24.54C411.606,485.68,423.045,496.705,423.724,510.674z"/>
		<path style="fill:#606060;" d="M370.847,503.171c-0.003,2.284-0.24,4.562-0.707,6.797v0.088
			c-18.235-2.372-36.111-6.967-53.23-13.683c-4.767-1.854-9.622-3.531-14.566-4.943c5.696-16.222,22.264-25.967,39.21-23.063
			C358.5,471.272,370.878,485.978,370.847,503.171z"/>
	</g>
	<path style="fill:#FFFFFF;" d="M361.931,141.24c0,58.504-47.427,79.448-105.931,79.448s-105.931-20.944-105.931-79.448
		S197.496,35.309,256,35.309S361.931,82.736,361.931,141.24z"/>
	<circle style="fill:#464F5D;" cx="256" cy="141.24" r="35.31"/>
	<g>
		<path style="fill:#FFFFFF;" d="M256,150.067c-3.569-0.014-6.782-2.168-8.151-5.464c-1.369-3.297-0.626-7.093,1.883-9.631
			c2.557-2.468,6.329-3.196,9.621-1.858c1.07,0.45,2.055,1.078,2.914,1.858c2.546,2.525,3.312,6.341,1.937,9.653
			S259.587,150.088,256,150.067z"/>
		<path style="fill:#FFFFFF;" d="M335.448,247.171l-12.446,42.814c-1.524,3.199-4.591,5.384-8.112,5.779
			c-3.521,0.395-6.996-1.056-9.191-3.837l-23.217-27.63l-18.891,31.514c-1.598,2.669-4.481,4.303-7.592,4.303
			s-5.994-1.634-7.592-4.303l-18.891-31.514l-23.217,27.63c-2.195,2.781-5.67,4.232-9.191,3.837
			c-3.521-0.395-6.588-2.58-8.112-5.779l-12.446-42.814h3.354c14.86,9.644,32.006,15.187,49.699,16.066
			c7.503,0.706,16.243,1.059,26.394,1.059c10.152,0,18.891-0.353,26.394-1.059c17.693-0.879,34.839-6.422,49.699-16.066H335.448z"/>
	</g>
	<path style="fill:#527F72;" d="M361.13,230.171c-0.97-2.132-2.749-3.791-4.945-4.608c-2.195-0.817-4.626-0.726-6.754,0.254
		c-2.862,1.341-5.607,2.918-8.207,4.716l-1.052,0.72c-4.474,3.069-8.612,5.909-12.776,8.444
		c-13.697,8.894-29.514,13.985-45.828,14.75c-7.302,0.685-15.664,1.022-25.569,1.022c-9.905,0-18.267-0.336-25.595-1.026
		c-16.349-0.774-32.196-5.887-45.914-14.815c-4.052-2.466-8.19-5.306-12.664-8.375l-1.095-0.746
		c-2.586-1.788-5.316-3.357-8.164-4.69c-4.428-2.005-9.644-0.052-11.666,4.368c-2.022,4.42-0.09,9.644,4.322,11.684
		c1.94,0.923,3.802,2.002,5.569,3.224l1.052,0.72c4.759,3.267,9.164,6.276,13.362,8.832c16.026,10.384,34.498,16.377,53.568,17.379
		c7.853,0.742,16.759,1.099,27.224,1.099c10.466,0,19.371-0.358,27.198-1.095c19.035-0.993,37.477-6.964,53.483-17.315
		c4.31-2.625,8.715-5.634,13.474-8.901l1.009-0.694c1.781-1.232,3.658-2.318,5.612-3.25
		C361.208,239.841,363.157,234.604,361.13,230.171z"/>
</g>
<g>
</g>
<g>
</g>
<g>
</g>
<g>
</g>
<g>
</g>
<g>
</g>
<g>
</g>
<g>
</g>
<g>
</g>
<g>
</g>
<g>
</g>
<g>
</g>
<g>
</g>
<g>
</g>
<g>
</g>
</svg>
