<svg id="Capa_1" enable-background="new 0 0 511.975 511.975" height="512" viewBox="0 0 511.975 511.975" width="512" xmlns="http://www.w3.org/2000/svg"><g><g><path d="m442.895 226.385h30v75.896h-30z" fill="#ffb655"/></g><g><path d="m39.106 226.385h30v75.896h-30z" fill="#ffe477"/></g><path d="m117.835 220.048-99.056-99.056-.113.113c-24.887 24.887-24.887 65.238 0 90.125l72.382 72.382c5.976 5.976 14.08 9.333 22.531 9.333h15.041z" fill="#738c28"/><path d="m394.141 220.048 99.056-99.056.113.113c24.887 24.887 24.887 65.238 0 90.125l-72.382 72.382c-5.976 5.976-14.08 9.333-22.531 9.333h-15.041z" fill="#4b5f1e"/><g><g><path d="m63.754 360.028c-35.196 0-63.728 28.532-63.728 63.728v81.834h80.592l15-10 15 10h130.383l14.999-10 10-62.781-10-72.781z" fill="#738c28"/><path d="m511.975 423.756c0-35.196-28.532-63.728-63.728-63.728h-192.247v135.562l15.001 10h130.382l15-10 15 10h80.593v-81.834z" fill="#4b5f1e"/></g><g><path d="m221.605 41.159-34.494-34.494-34.514 34.514-34.762-34.762v130.612l138.165 10.621 10-75.06-10-65.826z" fill="#9b9696"/><path d="m394.167 6.386-34.473 34.473-34.091-34.091-34.473 34.473-34.804-34.803-.326.326v140.886l138.167-10.621z" fill="#736e6e"/></g><path d="m175.36 102.423-5.867-2.052c-25.249-8.832-51.658 9.909-51.658 36.658v10.406 197.932c0 17.598 14.266 31.864 31.864 31.864h106.301l10-147.48-10-113.63c-27.268-.001-54.536-4.567-80.64-13.698z" fill="#a0be28"/><path d="m342.509 100.371-5.867 2.052c-26.105 9.131-53.374 13.697-80.642 13.697v261.11h106.303c17.598 0 31.864-14.266 31.864-31.864v-208.337c0-26.749-26.409-45.49-51.658-36.658z" fill="#738c28"/></g><g><path d="m187.363 184.185h30v45.564h-30z" fill="#736e6e"/><path d="m294.639 184.185h30v45.564h-30z" fill="#464141"/></g><g><path d="m256 199.185h-90.369v-30h90.369l10 15z" fill="#9b9696"/></g><g><path d="m256 169.185h90.371v30h-90.371z" fill="#736e6e"/></g><g><path d="m184.856 263.636h30v50.713h-30z" fill="#fff5f5" transform="matrix(.967 -.257 .257 .967 -67.435 60.925)"/></g><g><path d="m286.789 273.993h50.713v30h-50.713z" fill="#ebe1dc" transform="matrix(.257 -.967 .967 .257 -47.24 516.576)"/></g><g><path d="m256 328.502h-85.193v-30h85.193l10 13.421z" fill="#738c28"/></g><g><path d="m256 298.502h85.194v30h-85.194z" fill="#4b5f1e"/></g><g><path d="m401.383 444.677h30v60.913h-30z" fill="#3a4a17"/></g><g><path d="m80.618 444.677h30v60.913h-30z" fill="#4b5f1e"/></g><g><path d="m241.001 468.395v37.195h14.999l10-18.598-10-18.597z" fill="#4b5f1e"/><path d="m256 468.395h15.001v37.195h-15.001z" fill="#3a4a17"/></g></g></svg>