<?xml version="1.0" encoding="iso-8859-1"?>
<!-- Generator: Adobe Illustrator 19.0.0, SVG Export Plug-In . SVG Version: 6.00 Build 0)  -->
<svg version="1.1" id="Capa_1" xmlns="http://www.w3.org/2000/svg" xmlns:xlink="http://www.w3.org/1999/xlink" x="0px" y="0px"
	 viewBox="0 0 512 512" style="enable-background:new 0 0 512 512;" xml:space="preserve">
<g>
	<rect x="241" style="fill:#FFA900;" width="30" height="128.22"/>
	
		<rect x="121.774" y="89.72" transform="matrix(-0.5 -0.866 0.866 -0.5 162.3221 303.1545)" style="fill:#FFA900;" width="93.798" height="29.999"/>
	<rect x="34.425" y="241" style="fill:#FFA900;" width="93.8" height="30"/>
	
		<rect x="153.66" y="360.37" transform="matrix(-0.866 -0.5 0.5 -0.866 111.0841 844.3026)" style="fill:#FFA900;" width="29.999" height="93.798"/>
	
		<rect x="25.704" y="145.055" transform="matrix(-0.866 -0.5 0.5 -0.866 87.5632 343.573)" style="fill:#FFA900;" width="128.217" height="29.999"/>
	
		<rect x="74.83" y="287.835" transform="matrix(-0.5 -0.866 0.866 -0.5 -170.0437 605.7132)" style="fill:#FFA900;" width="29.999" height="128.217"/>
</g>
<g>
	
		<rect x="328.33" y="57.825" transform="matrix(-0.866 -0.5 0.5 -0.866 588.2963 367.0847)" style="fill:#FF8800;" width="29.999" height="93.798"/>
	<rect x="383.78" y="241" style="fill:#FF8800;" width="93.8" height="30"/>
	
		<rect x="296.456" y="392.268" transform="matrix(-0.5 -0.866 0.866 -0.5 162.3344 908.2573)" style="fill:#FF8800;" width="93.798" height="29.999"/>
	
		<rect x="407.188" y="95.934" transform="matrix(-0.5 -0.866 0.866 -0.5 494.6852 605.6882)" style="fill:#FF8800;" width="29.999" height="128.217"/>
	
		<rect x="358.06" y="336.93" transform="matrix(-0.866 -0.5 0.5 -0.866 611.8052 867.797)" style="fill:#FF8800;" width="128.217" height="29.999"/>
</g>
<rect x="241" y="383.78" style="fill:#FFA900;" width="30" height="128.22"/>
<g>
	<rect x="256" style="fill:#FF8800;" width="15" height="128.22"/>
	<rect x="256" y="383.78" style="fill:#FF8800;" width="15" height="128.22"/>
</g>
<path style="fill:#FFDB0C;" d="M256,398.779c-78.729,0-142.779-64.05-142.779-142.779S177.271,113.22,256,113.22
	S398.78,177.271,398.78,256S334.729,398.779,256,398.779z"/>
<path style="fill:#FBBF00;" d="M256,398.779c0-91.88,0-233.365,0-285.559c78.729,0,142.78,64.051,142.78,142.78
	S334.729,398.779,256,398.779z"/>
<g>
</g>
<g>
</g>
<g>
</g>
<g>
</g>
<g>
</g>
<g>
</g>
<g>
</g>
<g>
</g>
<g>
</g>
<g>
</g>
<g>
</g>
<g>
</g>
<g>
</g>
<g>
</g>
<g>
</g>
</svg>
