<svg id="Capa_1" enable-background="new 0 0 512 512" height="512" viewBox="0 0 512 512" width="512" xmlns="http://www.w3.org/2000/svg"><g><g><path d="m69.123 329.192c-34.215 0-61.952 27.737-61.952 61.952v120.856h248.842l10-91.195-10-91.613z" fill="#87c0ed"/><path d="m504.855 391.145c0-34.215-27.737-61.952-61.952-61.952h-186.89v182.807h248.843v-120.855z" fill="#69b1e9"/></g><path d="m390.303 196.375 96.296-96.296.11.11c24.194 24.194 24.194 63.42 0 87.614l-70.365 70.365c-5.809 5.809-13.688 9.073-21.903 9.073h-20.376z" fill="#69b1e9"/><path d="m121.697 196.375-96.297-96.296-.11.11c-24.194 24.194-24.194 63.42 0 87.614l70.365 70.365c5.809 5.809 13.688 9.073 21.903 9.073h24.453z" fill="#87c0ed"/><g><path d="m121.696 242.576v253.936h5.039c34.307 0 62.119-27.812 62.119-62.119v62.119h5.039c34.301 0 62.108-27.801 62.119-62.1l10-104.802-10-87.035h-134.316z" fill="#9b9696"/><path d="m256.012 242.576v191.837c0-.006 0-.013 0-.019 0 34.307 27.812 62.119 62.119 62.119h5.039v-62.119c0 34.307 27.812 62.119 62.119 62.119h5.039v-253.937z" fill="#736e6e"/><path d="m256.012 434.412 10-104.802-10-87.034" fill="#9b9696"/><path d="m256.012 242.576v191.837c0-.006 0-.013 0-.019 0 34.307 27.812 62.119 62.119 62.119h5.039v-62.119c0 34.307 27.812 62.119 62.119 62.119h5.039v-253.937z" fill="#736e6e"/></g><path d="m226.654 7.395-50.624 27.236c-33.463 18.003-54.333 52.931-54.333 90.93v117.015c0 74.181 60.135 134.316 134.316 134.316l10-193.15-10.001-183.742c-10.096-.001-20.193 2.464-29.358 7.395z" fill="#b3d8f4"/><path d="m336.011 34.657-50.643-27.257c-9.164-4.932-19.26-7.399-29.356-7.4v376.892c74.181 0 134.316-60.135 134.316-134.316v-116.998c.001-37.992-20.863-72.915-54.317-90.921z" fill="#87c0ed"/><path d="m188.869 158.25h30v44.294h-30z" fill="#736e6e"/><path d="m293.156 158.25h30v44.294h-30z" fill="#464141"/><g><path d="m256.012 173.25h-87.851v-30h87.851l10 16.75z" fill="#9b9696"/></g><g><path d="m256.012 143.25h87.853v30h-87.853z" fill="#736e6e"/></g><g><path d="m256.012 111.297h-52.143v-30h52.143l10 15z" fill="#87c0ed"/></g><g><path d="m256.012 81.297h52.144v30h-52.144z" fill="#69b1e9"/></g><path d="m205.95 245.051h30v38.912h-30z" fill="#fff5f5"/><path d="m276.076 245.051h30v38.912h-30z" fill="#ebe1dc"/><g><path d="m256.012 298.963h-70.395v-30h70.395l10 15z" fill="#87c0ed"/></g><g><path d="m256.012 268.963h70.396v30h-70.396z" fill="#69b1e9"/></g></g></svg>