<svg height="512" viewBox="0 0 58 58" width="512" xmlns="http://www.w3.org/2000/svg"><g id="002---Space-Ship" fill="none" transform="translate(-1)"><path id="Shape" d="m30 0c-5 0-15 1-15 14 .1412827 7.3629823 1.4093139 14.6609066 3.76 21.64 5.91 3.12 16.44 3.19 22.48 0 2.3411378-6.9815124 3.6089126-14.2779613 3.76-21.64 0-8.92-4.69-14-15-14z" fill="#46b29d"/><path id="Shape" d="m43.27 6.17c-15.57 3.88-22.51 22.44-24.57 29.28-2.3053031-6.9231732-3.5526799-14.1545873-3.7-21.45 0-13 10-14 15-14 3.72 0 10.19.55 13.27 6.17z" fill="#65ddb9"/><path id="Shape" d="m13.7 51.87-3.58 5.13c-.17074623.2350409-.15204208.5578851.0447051.7716351.1967472.21375.5169386.2590888.7652949.1083649l9.26-5.3c-1.22-.1-2.38-1.21-3.49-1.34s-2.05.76-3 .63z" fill="#464f5d"/><path id="Shape" d="m46.3 51.87 3.58 5.13c.1707462.2350409.1520421.5578851-.0447051.7716351s-.5169386.2590888-.7652949.1083649l-9.26-5.3c1.19-.09 2.32-1.21 3.4-1.33s2.11.75 3.09.62z" fill="#464f5d"/><path id="Shape" d="m57.94 49c-12.94 5.33-42.94 5.33-55.88 0-.55324037-.2216155-.94885278-.7182457-1.04117072-1.307029-.09231793-.5887832.13230851-1.1826635.59117072-1.562971 5.16059759-4.2853393 11.4090386-7.0547315 18.05-8h20.68c6.6233906.9541473 12.8534124 3.7230459 18 8 .4617207.3727933.6940807.9604432.6121642 1.5481936-.0819164.5877504-.4661049 1.0894702-1.0121642 1.3218064z" fill="#95a5a5"/><path id="Shape" d="m56.25 46.94c-12.16 4.58-40.33 4.59-52.5 0-.73348669-.2349975-1.14908046-1.0087093-.94-1.75 4.91687986-3.7511077 10.7225318-6.1629513 16.85-7h20.68c6.1274682.8370487 11.9331201 3.2488923 16.85 7 .2090805.7412907-.2065133 1.5150025-.94 1.75z" fill="#d1d4d1"/><circle id="Oval" cx="30" cy="48" fill="#fb7b76" r="1"/><circle id="Oval" cx="36" cy="48" fill="#b49aca" r="1"/><circle id="Oval" cx="42" cy="47" fill="#fb7b76" r="1"/><g fill="#b49aca"><circle id="Oval" cx="48" cy="45" r="1"/><circle id="Oval" cx="12" cy="45" r="1"/><circle id="Oval" cx="24" cy="48" r="1"/></g><circle id="Oval" cx="18" cy="47" fill="#fb7b76" r="1"/><path id="Shape" d="m25.58 4.22c-2.7401291 1.16854229-4.7245325 3.61722119-5.3 6.54-.73 3.16 2.56 5.24 5.72 5.24 2.45 0 3.4-4.72 3.77-8.37.1573782-1.09524077-.271435-2.19274549-1.1296333-2.89118371-.8581983-.69843823-2.0199255-.89538293-3.0603667-.51881629z" fill="#fff"/><circle id="Oval" cx="22" cy="22" fill="#fff" r="2"/><path id="Shape" d="m41.24 35.61c-.5 1.51-.93 2.67-1.24 3.39 0 0-1 3-10 3s-10-3-10-3c-.3-.71-.74-1.86-1.24-3.36 5.91 3.12 16.44 3.19 22.48-.03z" fill="#7f8284"/></g></svg>