<?xml version="1.0" encoding="iso-8859-1"?>
<!-- Generator: Adobe Illustrator 19.0.0, SVG Export Plug-In . SVG Version: 6.00 Build 0)  -->
<svg version="1.1" id="Capa_1" xmlns="http://www.w3.org/2000/svg" xmlns:xlink="http://www.w3.org/1999/xlink" x="0px" y="0px"
	 viewBox="0 0 512 512" style="enable-background:new 0 0 512 512;" xml:space="preserve">
<path style="fill:#CCCCCC;" d="M447.211,0H64.789C52.003,0,41.638,10.365,41.638,23.151l0,0c0,12.786,10.365,23.151,23.151,23.151
	h31.812c0,25.572,20.73,46.302,46.302,46.302h29.42c22.463,0,40.673,18.21,40.673,40.674V214h86.007v-80.722
	c0-22.463,18.21-40.674,40.673-40.674h29.42c25.572,0,46.302-20.73,46.302-46.302h31.812c12.786,0,23.151-10.365,23.151-23.151l0,0
	C470.362,10.365,459.997,0,447.211,0z"/>
<path style="fill:#B3B3B3;" d="M447.211,0H256v214h43.003v-80.722c0-22.463,18.21-40.674,40.673-40.674h29.42
	c25.572,0,46.302-20.73,46.302-46.302h31.812c12.786,0,23.151-10.365,23.151-23.151l0,0C470.362,10.365,459.997,0,447.211,0z"/>
<polygon style="fill:#984D00;" points="349.736,181.037 256,181.037 162.264,181.037 52.245,497 459.755,497 "/>
<polygon style="fill:#723802;" points="349.736,181.037 256,181.037 256,497 459.755,497 "/>
<path style="fill:#FF6536;" d="M194.494,181.18v124.116c0,11.323,9.179,20.502,20.502,20.502s20.502-9.179,20.502-20.502V265.1
	c0-11.323,9.179-20.502,20.502-20.502s20.502,9.179,20.502,20.502v10.039c0,11.323,9.179,20.502,20.502,20.502
	s20.502-9.179,20.502-20.502v-93.96L194.494,181.18L194.494,181.18z"/>
<path style="fill:#FF421D;" d="M256,181.18c0,0,0,43.82,0,63.419c11.323,0,20.502,9.179,20.502,20.502v10.039
	c0,11.323,9.179,20.502,20.502,20.502s20.502-9.179,20.502-20.502v-93.96L256,181.18L256,181.18z"/>
<rect y="482" style="fill:#4D2602;" width="512" height="30"/>
<g>
</g>
<g>
</g>
<g>
</g>
<g>
</g>
<g>
</g>
<g>
</g>
<g>
</g>
<g>
</g>
<g>
</g>
<g>
</g>
<g>
</g>
<g>
</g>
<g>
</g>
<g>
</g>
<g>
</g>
</svg>
