<svg id="Capa_1" enable-background="new 0 0 512 512" height="512" viewBox="0 0 512 512" width="512" xmlns="http://www.w3.org/2000/svg"><g><path d="m152.088 273s-39.576 23.355-39.576 86.658c0 31.698-14.683 52.33-27.027 64.074-10.696 10.176-16.675 23.695-16.675 37.768h187.19l10-102.298-10-86.202z" fill="#736e6e"/><path d="m426.515 423.733c-12.344-11.745-27.027-32.376-27.027-64.074 0-63.303-39.576-86.658-39.576-86.658h-103.912v188.5h187.19c0-14.074-5.979-27.593-16.675-37.768z" fill="#464141"/><path d="m105 448c-33.137 0-60 26.863-60 60v4h147.329l26.646-32-26.646-32z" fill="#a0be28"/><path d="m467 508c0-33.137-26.863-60-60-60h-87.332l-21.444 32 21.444 32h147.332z" fill="#738c28"/><g><path d="m192.329 448v64h63.671l10-32-10-32z" fill="#fff5f5"/><path d="m256 448h63.667v64h-63.667z" fill="#ebe1dc"/></g><path d="m152.088 273v92.877c0 57.389 46.523 103.911 103.911 103.911l10.001-105.788-10-91z" fill="#f2bb88"/><path d="m256 273v196.789c57.389 0 103.911-46.523 103.911-103.911v-92.878z" fill="#e3a76f"/><path d="m193.214 314.38h41.125v30h-41.125z" fill="#d6995c"/><path d="m277.661 314.38h41.125v30h-41.125z" fill="#c48958"/><path d="m256 421.236c-14.632 0-29.376-3.294-43.82-9.792l12.307-27.359c10.55 4.746 21.152 7.152 31.514 7.152l10 11.424z" fill="#d6995c"/><path d="m256 421.236v-30c10.361 0 20.964-2.406 31.514-7.152l12.307 27.359c-14.445 6.498-29.189 9.793-43.821 9.793z" fill="#c48958"/><path d="m266.001 128.139-10-126.222c-8.308 3.013-15.17 9.412-18.612 17.913l-78.22 193.17 96.832 10z" fill="#a0be28"/><path d="m159.169 213-24.296 60h121.128l6.999-32.75-6.999-27.25z" fill="#ffe477"/><path d="m387.266 69v-24c0-24.813-20.187-45-45-45h-75.453c-3.761 0-7.405.681-10.812 1.917v221.083l96.881-10-73.947-183h63.331c8.271 0 15 6.729 15 15v24z" fill="#738c28"/><path d="m256.001 273h121.126l-24.245-60h-96.881z" fill="#ffb655"/><path d="m75.654 258h180.346v30h-180.346z" fill="#a0be28"/><path d="m256 258h180.346v30h-180.346z" fill="#738c28"/></g></svg>