<svg height="512" viewBox="0 0 58 59" width="512" xmlns="http://www.w3.org/2000/svg"><g id="019---Alien" fill="none" transform="translate(-1)"><path id="Shape" d="m59 29.47c-.66 6.94-6.07 10.59-11.57 12.17-.8388116.2493172-1.4181384 1.015001-1.43 1.89v11.47c.0053948 1.1320283-.4691332 2.2133317-1.3059128 2.9757732s-1.9574409 1.1346137-3.0840872 1.0242268c-2.0934905-.2607341-3.6517768-2.0607491-3.61-4.17v-6.83c.0086721-.5949634-.2480232-1.1628937-.7003464-1.5494947-.4523232-.3866011-1.0532991-.551723-1.6396536-.4505053-.9962504.2005094-1.6996146 1.0945447-1.66 2.11v6.89c.0053948 1.1320283-.4691332 2.2133317-1.3059128 2.9757732s-1.9574409 1.1346137-3.0840872 1.0242268c-2.0934905-.2607341-3.6517768-2.0607491-3.61-4.17v-6.83c0-1.1045695-.8954305-2-2-2-.5500535-.0008326-1.0761694.224913-1.4545712.6241268-.3784017.3992139-.5756824.9366517-.5454288 1.4858732v6.89c.0053948 1.1320283-.4691332 2.2133317-1.3059128 2.9757732s-1.9574409 1.1346137-3.0840872 1.0242268c-2.0934905-.2607341-3.6517768-2.0607491-3.61-4.17 0 0 0-7.89 0-11.3-.0131967-.8777546-.5972314-1.6443001-1.44-1.89-5.48-1.58-10.89-5.23-11.56-12.17-.10073076-1.212915.65664828-2.3323378 1.82-2.69 1.260992-.3949344 2.61974562.203259 3.18 1.4.78799957 1.6674215 2.01962208 3.0858631 3.56 4.1.32247042.20394.7328888.2066076 1.057983.0068765.3250941-.199731.5082015-.5670484.472017-.9468765-.5160184-7.0987761 2.978751-13.890615 9.0548191-17.5974051 6.0760682-3.7067902 13.7142936-3.7067902 19.7903618 0 6.0760681 3.7067901 9.5708375 10.498629 9.0548191 17.5974051-.0361845.3798281.1469229.7471455.472017.9468765.3250942.1997311.7355126.1970635 1.057983-.0068765 1.5109043-1.0251713 2.7139787-2.4425865 3.48-4.1.5598364-1.1704498 1.8824189-1.7662457 3.13-1.41 1.1824469.3458579 1.9620251 1.4714522 1.87 2.7z" fill="#f0c419"/><g fill="#e57e25"><circle id="Oval" cx="18" cy="55" r="1"/><circle id="Oval" cx="18" cy="46" r="1"/><circle id="Oval" cx="42" cy="55" r="1"/><circle id="Oval" cx="42" cy="46" r="1"/><circle id="Oval" cx="30" cy="51" r="1"/></g><path id="Shape" d="m26 43v5c0-1.1045695-.8954305-2-2-2v-3c-.0713687-.5198666-.4801334-.9286313-1-1-.5522847 0-1-.4477153-1-1s.4477153-1 1-1c1.6224449.0802654 2.9197346 1.3775551 3 3z" fill="#f29c1f"/><path id="Shape" d="m38 43v5c0-1.1045695-.8954305-2-2-2v-3c-.0713687-.5198666-.4801334-.9286313-1-1-.5522847 0-1-.4477153-1-1s.4477153-1 1-1c1.6224449.0802654 2.9197346 1.3775551 3 3z" fill="#f29c1f"/><path id="Shape" d="m29.72 18c-5.4864183.3041882-9.7658061 4.8653464-9.72 10.36-.0012248 1.2953949.6842325 2.4943911 1.8011482 3.1505534 1.1169157.6561622 2.4979364.6711743 3.6288518.0394466 2.853497-1.5343059 6.286503-1.5343059 9.14 0 1.1246973.6283378 2.4973359.6172267 3.6117141-.0292358 1.1143781-.6464625 1.805421-1.8325146 1.8182859-3.1207642.062515-2.7560668-.9965109-5.419437-2.9345017-7.3800503-1.9379908-1.9606132-4.5888916-3.0504762-7.3454983-3.0199497z" fill="#d25627"/><path id="Shape" d="m30 24c-1.9883484-.002484-3.8681175.9066304-5.100693 2.4668525-1.2325755 1.5602222-1.6819293 3.5993647-1.219307 5.5331475.6105682-.0105616 1.2100737-.1647201 1.75-.45 2.8544027-1.5307045 6.2855973-1.5307045 9.14 0 .5399263.2852799 1.1394318.4394384 1.75.45.4585311-1.9333347.0075948-3.9702068-1.2241228-5.529343s-3.1089117-2.4692646-5.0958772-2.470657z" fill="#fb7b76"/><circle id="Oval" cx="45" cy="8" fill="#2c3e50" r="3"/><circle id="Oval" cx="55" cy="18" fill="#2c3e50" r="3"/><path id="Shape" d="m30 12c-.5522847 0-1-.4477153-1-1v-4c0-.55228475.4477153-1 1-1s1 .44771525 1 1v4c0 .5522847-.4477153 1-1 1z" fill="#f29c1f"/><path id="Shape" d="m41.27 15.7c-.3081435.0075728-.6025606-.1273825-.7979604-.3657702-.1953997-.2383877-.2699447-.5535661-.2020396-.8542298.3956355-1.6530371 1.0721279-3.2258819 2-4.65.1929234-.30903474.5360601-.4916712.9001537-.47911199.3640937.01255921.6938298.21840605.865.54.1711703.32159399.1577697.71007729-.0351537 1.01911199-.8067161 1.2240281-1.3985506 2.5767927-1.75 4-.099165.4616905-.5077811.7910852-.98.79z" fill="#f29c1f"/><path id="Shape" d="m47.82 24.39c-.3650618-.0055093-.6981052-.2095359-.8688369-.5322605-.1707317-.3227245-.1520115-.7128455.0488369-1.0177395 1.2063465-1.8712115 2.8284837-3.438593 4.74-4.58.4753732-.2730821 1.0819888-.1125074 1.36.36.1367587.2314057.1746.5081243.1049899.7677509-.06961.2596266-.2408095.4802981-.4749899.6122491-1.6512514.9995908-3.0479103 2.3688643-4.08 4-.1972372.256675-.5065181.4019997-.83.39z" fill="#f29c1f"/><path id="Shape" d="m45 12c-2.209139 0-4-1.790861-4-4s1.790861-4 4-4 4 1.790861 4 4c0 1.06086596-.4214274 2.0782816-1.1715729 2.8284271s-1.7675611 1.1715729-2.8284271 1.1715729zm0-6c-1.1045695 0-2 .8954305-2 2s.8954305 2 2 2 2-.8954305 2-2-.8954305-2-2-2z" fill="#f3d55b"/><path id="Shape" d="m55 22c-2.209139 0-4-1.790861-4-4s1.790861-4 4-4 4 1.790861 4 4-1.790861 4-4 4zm0-6c-1.1045695 0-2 .8954305-2 2s.8954305 2 2 2 2-.8954305 2-2-.8954305-2-2-2z" fill="#f3d55b"/><path id="Shape" d="m18.73 15.7c-.4736615.0126631-.8911882-.3088324-1-.77-.3514494-1.4232073-.9432839-2.7759719-1.75-4-.2634624-.4618613-.1194165-1.04913478.3278566-1.33666749.4472731-.28753272 1.041346-.1747642 1.3521434.25666749.9278721 1.4241181 1.6043645 2.9969629 2 4.65.058726.2858684-.0103576.5831265-.1891294.8137997-.1787717.2306733-.4493909.3717414-.7408706.3862003z" fill="#f29c1f"/><path id="Shape" d="m12.18 24.39c-.3345191-.0017306-.6460165-.1706148-.83-.45-1.0320897-1.6311357-2.42874862-3.0004092-4.08-4-.4522526-.287496-.5974802-.8803968-.32929323-1.3443602.26818698-.4639635.8544428-.6340415 1.32929323-.3856398 1.9134329 1.1568718 3.5325116 2.7417205 4.73 4.63.2008484.304894.2195686.695015.0488369 1.0177395-.1707317.3227246-.5037751.5267512-.8688369.5322605z" fill="#f29c1f"/><circle id="Oval" cx="30" cy="4" fill="#2c3e50" r="3"/><circle id="Oval" cx="15" cy="8" fill="#2c3e50" r="3"/><circle id="Oval" cx="5" cy="18" fill="#2c3e50" r="3"/><path id="Shape" d="m30 8c-2.209139 0-4-1.790861-4-4s1.790861-4 4-4 4 1.790861 4 4c0 1.06086596-.4214274 2.07828161-1.1715729 2.82842712-.7501455.75014552-1.7675611 1.17157288-2.8284271 1.17157288zm0-6c-1.1045695 0-2 .8954305-2 2s.8954305 2 2 2 2-.8954305 2-2c0-.53043298-.2107137-1.03914081-.5857864-1.41421356-.3750728-.37507276-.8837806-.58578644-1.4142136-.58578644z" fill="#f3d55b"/><path id="Shape" d="m15 12c-2.209139 0-4-1.790861-4-4s1.790861-4 4-4 4 1.790861 4 4c0 1.06086596-.4214274 2.0782816-1.1715729 2.8284271s-1.7675611 1.1715729-2.8284271 1.1715729zm0-6c-1.1045695 0-2 .8954305-2 2s.8954305 2 2 2 2-.8954305 2-2-.8954305-2-2-2z" fill="#f3d55b"/><path id="Shape" d="m5 22c-2.209139 0-4-1.790861-4-4s1.790861-4 4-4 4 1.790861 4 4-1.790861 4-4 4zm0-6c-1.1045695 0-2 .8954305-2 2s.8954305 2 2 2 2-.8954305 2-2-.8954305-2-2-2z" fill="#f3d55b"/></g></svg>