<?xml version="1.0" encoding="iso-8859-1"?>
<!-- Generator: Adobe Illustrator 19.0.0, SVG Export Plug-In . SVG Version: 6.00 Build 0)  -->
<svg version="1.1" id="Capa_1" xmlns="http://www.w3.org/2000/svg" xmlns:xlink="http://www.w3.org/1999/xlink" x="0px" y="0px"
	 viewBox="0 0 512 512" style="enable-background:new 0 0 512 512;" xml:space="preserve">
<path style="fill:#FF9F00;" d="M151,315l-60-60c0,41.353-34.647,75-76,75H0v15c0,74.443,61.557,135,136,135h29.985L151,315z"/>
<path style="fill:#FF7816;" d="M497,330c-41.353,0-76-33.647-76-75l-60,60l-14.985,165H376c74.443,0,136-60.557,136-135v-15H497z"/>
<path style="fill:#FED2A4;" d="M421,270v68.699c0,87.599-65.4,164.599-148.801,172.4C266.8,511.7,261.4,512,256,512h-0.3
	c-41.1,0-79.799-17-110.7-44.9c-34.2-31.201-54-75.601-54-122.1v-75l165-127.5L421,270z"/>
<path style="fill:#FFBD86;" d="M421,270v68.699c0,87.599-65.4,164.599-148.801,172.4C266.8,511.7,261.4,512,256,512V142.5L421,270z"
	/>
<path style="fill:#FF641A;" d="M320.799,382.5C307.599,405.601,282.7,420,256,420s-51.599-14.399-64.799-37.5l25.8-15
	c8.099,13.801,23.099,22.5,39,22.5s30.901-8.699,39-22.5L320.799,382.5z"/>
<rect x="301" y="270" style="fill:#444444;" width="30" height="30"/>
<rect x="181" y="270" style="fill:#5A5A5A;" width="30" height="30"/>
<path style="fill:#FF4B00;" d="M295,367.5l25.8,15C307.599,405.601,282.7,420,256,420v-30C271.901,390,286.901,381.301,295,367.5z"
	/>
<path style="fill:#FDBF00;" d="M421,225v45h-15c-65.7,0-123.9-39.6-150-97.5c-26.1,57.9-84.3,97.5-150,97.5H91v-45
	c0-90.901,74.099-165,165-165S421,134.099,421,225z"/>
<path style="fill:#FF9F00;" d="M421,225v45h-15c-65.7,0-123.9-39.6-150-97.5V60C346.901,60,421,134.099,421,225z"/>
<path style="fill:#EDE9E8;" d="M256,0c-77.1,0-135,32.1-135,75s57.9,75,135,75s135-32.1,135-75S333.1,0,256,0z M256,120
	c-60,0-105-23.701-105-45c0-21.301,45-45,105-45s105,23.699,105,45C361,96.299,316,120,256,120z"/>
<path style="fill:#DFD7D5;" d="M391,75c0,42.9-57.9,75-135,75v-30c60,0,105-23.701,105-45c0-21.301-45-45-105-45V0
	C333.1,0,391,32.1,391,75z"/>
<g>
</g>
<g>
</g>
<g>
</g>
<g>
</g>
<g>
</g>
<g>
</g>
<g>
</g>
<g>
</g>
<g>
</g>
<g>
</g>
<g>
</g>
<g>
</g>
<g>
</g>
<g>
</g>
<g>
</g>
</svg>
