<svg id="Layer_1" enable-background="new 0 0 511.973 511.973" height="512" viewBox="0 0 511.973 511.973" width="512" xmlns="http://www.w3.org/2000/svg"><g><circle cx="255.986" cy="255.986" fill="#ff7c48" r="164.558"/><path d="m255.986 91.428v329.117c90.883 0 164.558-73.675 164.558-164.558s-73.675-164.559-164.558-164.559z" fill="#ff415b"/><path d="m459.196 355.989-40.771-23.539c8.943-18.922 14.674-39.644 16.487-61.464h25.118v16.458h30v-62.915h-30v16.458h-25.118c-1.813-21.82-7.545-42.542-16.487-61.464l40.771-23.539 10.236 17.729 25.98-15-35.471-61.438-25.98 15 10.236 17.729-40.814 23.564c-12.21-17.519-27.458-32.766-44.977-44.976l12.593-21.811 14.252 8.229 15-25.98-54.485-31.46-15 25.98 14.252 8.229-12.568 21.769c-18.922-8.943-39.644-14.674-61.464-16.488v-47.06h20.472v-30h-70.943v30h20.472v47.06c-21.82 1.813-42.542 7.545-61.464 16.488l-12.568-21.769 14.252-8.229-15-25.98-54.485 31.458 15 25.98 14.252-8.229 12.593 21.811c-17.519 12.21-32.766 27.458-44.977 44.976l-40.814-23.564 10.236-17.729-25.98-15-35.472 61.439 25.98 15 10.236-17.729 40.771 23.539c-8.943 18.922-14.674 39.644-16.487 61.464h-25.118v-16.458h-30v62.915h30v-16.458h25.118c1.813 21.82 7.545 42.542 16.487 61.464l-40.771 23.539-10.235-17.728-25.98 15 35.471 61.438 25.98-15-10.236-17.728 40.814-23.564c12.21 17.519 27.458 32.766 44.976 44.976l-12.593 21.811-14.252-8.229-15 25.98 54.485 31.458 15-25.98-14.252-8.229 12.568-21.769c18.922 8.943 39.644 14.674 61.464 16.488v47.06h-20.472v30h70.943v-30h-20.472v-47.06c21.82-1.813 42.542-7.545 61.464-16.488l12.568 21.769-14.252 8.229 15 25.98 54.485-31.458-15-25.98-14.252 8.229-12.593-21.811c17.519-12.21 32.766-27.458 44.976-44.976l40.814 23.564-10.236 17.729 25.98 15 35.471-61.438-25.98-15zm-203.21 49.555c-82.467 0-149.558-67.091-149.558-149.558s67.091-149.558 149.558-149.558 149.558 67.091 149.558 149.558-67.091 149.558-149.558 149.558z" fill="#ff415b"/><g fill="#ffb655"><circle cx="317.018" cy="203.733" r="42.75"/><ellipse cx="277.932" cy="332.658" rx="43.333" ry="43.333" transform="matrix(.707 -.707 .707 .707 -153.82 293.961)"/><circle cx="183.685" cy="233.902" r="47.083"/></g><circle cx="317.018" cy="203.733" fill="#ff7c48" r="42.75"/><path d="m459.196 355.989-40.771-23.539c8.943-18.922 14.674-39.644 16.487-61.464h25.118v16.458h30v-62.915h-30v16.458h-25.118c-1.813-21.82-7.545-42.542-16.487-61.464l40.771-23.539 10.236 17.729 25.98-15-35.471-61.438-25.98 15 10.236 17.729-40.814 23.564c-12.21-17.519-27.458-32.766-44.977-44.976l12.593-21.811 14.252 8.229 15-25.98-54.485-31.46-15 25.98 14.252 8.229-12.568 21.769c-18.922-8.943-39.644-14.674-61.464-16.488v-47.06h20.472v-30h-35.472v106.428c82.467 0 149.558 67.091 149.558 149.558s-67.091 149.558-149.558 149.558v106.428h35.472v-30h-20.472v-47.06c21.82-1.813 42.542-7.545 61.464-16.488l12.568 21.769-14.252 8.229 15 25.98 54.485-31.458-15-25.98-14.252 8.229-12.593-21.811c17.519-12.21 32.766-27.458 44.976-44.976l40.814 23.564-10.236 17.729 25.98 15 35.471-61.438-25.98-15z" fill="#e50058"/><path d="m321.266 332.658c0-23.894-19.439-43.333-43.333-43.333-8.005 0-15.504 2.19-21.946 5.991v74.685c6.441 3.8 13.941 5.99 21.946 5.99 23.893 0 43.333-19.439 43.333-43.333z" fill="#ff7c48"/></g></svg>