<?xml version="1.0" encoding="iso-8859-1"?>
<!-- Generator: Adobe Illustrator 19.0.0, SVG Export Plug-In . SVG Version: 6.00 Build 0)  -->
<svg version="1.1" id="Capa_1" xmlns="http://www.w3.org/2000/svg" xmlns:xlink="http://www.w3.org/1999/xlink" x="0px" y="0px"
	 viewBox="0 0 512 512" style="enable-background:new 0 0 512 512;" xml:space="preserve">
<path style="fill:#C83741;" d="M189.063,499.196c2.93,2.929,2.93,7.678,0.001,10.607c-1.465,1.464-3.385,2.197-5.304,2.197
	s-3.839-0.732-5.303-2.196c-5.068-5.067-12.778-6.319-19.187-3.114l-3.943,1.972c-4.37,2.184-9.26,3.338-14.142,3.338H110
	c-4.143,0-7.5-3.358-7.5-7.5s3.357-7.5,7.5-7.5h9.726L95.12,475.909c-1.521-1.303-2.456-3.16-2.6-5.157s0.518-3.969,1.836-5.476
	l40-45.714c2.728-3.116,7.466-3.432,10.583-0.706c3.117,2.728,3.434,7.466,0.706,10.583l-35.011,40.012l32.052,27.474
	c2.059-0.188,4.085-0.755,5.934-1.679l3.942-1.972C164.754,487.177,179.423,489.558,189.063,499.196z M362.563,493.273l-3.942,1.972
	c-1.849,0.924-3.875,1.491-5.934,1.679l-32.052-27.474l35.011-40.012c2.728-3.118,2.411-7.855-0.706-10.583
	c-3.117-2.727-7.855-2.411-10.583,0.706l-40,45.714c-1.318,1.507-1.979,3.479-1.836,5.476s1.079,3.854,2.6,5.157L329.726,497H320
	c-4.143,0-7.5,3.358-7.5,7.5s3.357,7.5,7.5,7.5h31.187c4.882,0,9.771-1.154,14.142-3.338l3.943-1.972
	c6.408-3.205,14.118-1.953,19.187,3.114c1.464,1.464,3.384,2.196,5.303,2.196s3.839-0.732,5.304-2.197
	c2.929-2.929,2.929-7.678-0.001-10.607C389.423,489.558,374.754,487.177,362.563,493.273z M500,112.5c-4.143,0-7.5,3.358-7.5,7.5v20
	c0,4.142,3.357,7.5,7.5,7.5s7.5-3.358,7.5-7.5v-20C507.5,115.858,504.143,112.5,500,112.5z M467.029,40.255
	c-7.703-7.703-11.945-17.945-11.945-28.839c0-4.142-3.357-7.5-7.5-7.5s-7.5,3.358-7.5,7.5c0,14.901,5.803,28.91,16.338,39.444
	l1.717,1.717c7.703,7.703,11.945,17.945,11.945,28.839v10c0,4.142,3.357,7.5,7.5,7.5s7.5-3.358,7.5-7.5v-10
	c0-14.901-5.803-28.91-16.338-39.444L467.029,40.255z"/>
<path style="fill:#FFCF65;" d="M85.369,183.796L90,244.003l-50-70.336l-40-0.164v-49.5c0-5.523,4.477-10,10-10l0,0
	C49.499,114.003,82.339,144.413,85.369,183.796z"/>
<path style="fill:#FF9744;" d="M370,268.283l-48.159-33.711C289.35,211.828,270,174.663,270,135.003l0,0
	c0-3.349,3.229-5.752,6.437-4.789L370,158.283V268.283z"/>
<path style="fill:#FFB450;" d="M512,185.5V213c0,14.912-12.088,27-27,27c-2.761,0-5-2.239-5-5v-49.5H512z M89.144,132.929
	c-3.905-3.905-10.237-3.905-14.142,0L40,167.931l28.168,28.4l-14.38,85.09l39.297-45.847
	C118.792,205.584,117.074,160.859,89.144,132.929L89.144,132.929z M270,75.003L270,75.003c0,39.66,19.35,76.825,51.841,99.569
	L370,208.283v-110l-93.563-28.069C273.229,69.252,270,71.654,270,75.003z"/>
<path style="fill:#FF9744;" d="M130,200L130,200c0,39.499-30.411,72.339-69.794,75.369L60,275.385v-38.037L70.336,230l0.164-40H120
	C125.523,190,130,194.477,130,200z"/>
<path style="fill:#C83741;" d="M397.06,160v191.003c0,43.656-35.729,79.124-79.48,78.7c-43.328-0.42-77.927-36.374-77.927-79.704
	v-41.296c0-12.631-10.169-22.932-22.751-23.145c-12.948-0.219-23.545,10.721-23.545,23.671V350c0,43.33-34.599,79.283-77.927,79.704
	c-43.752,0.424-79.48-35.044-79.48-78.7V224.815c0-22.615-14.143-42.665-35.328-50.299c-0.6-0.216-0.817-0.948-0.418-1.446l0,0
	c10.969-13.686,39.232-16.709,53.576-6.617c28.484,20.042,37.725,52.985,37.725,89.145v95.406c0,12.631,10.169,22.932,22.751,23.145
	c12.948,0.219,23.546-10.721,23.546-23.671v-41.774c0-43.656,35.728-79.124,79.48-78.7c43.328,0.42,77.927,36.374,77.927,79.704
	v41.296c0,12.631,10.169,22.932,22.751,23.145c12.948,0.219,23.545-10.721,23.545-23.671V160H397.06z"/>
<path style="fill:#FF4B4B;" d="M434.118,143.565L434.118,143.565c0,6.486,4.591,12.064,10.955,13.312l50.775,9.956
	c9.384,1.84,16.152,10.064,16.152,19.626V200l-131.071-6.976c-31.853-1.695-56.811-28.017-56.811-59.915V40l86.107,46.968
	C425.903,95.519,443.475,100,461.333,100l0,0c4.728,0,8.571-3.785,8.665-8.49c0.097-4.855,3.811-8.843,8.667-8.843h9.668
	c13.071,0,23.667,10.596,23.667,23.667l0,0c0,13.07-10.596,23.666-23.667,23.666h-40.65
	C440.191,130,434.118,136.073,434.118,143.565z M181.801,393.96c-12.534-12.534-33.264-11.061-43.899,3.12l-19.23,25.641
	c-7.33,9.773-6.358,23.45,2.28,32.089l0,0c8.639,8.639,22.315,9.611,32.089,2.281l25.641-19.231
	C192.862,427.224,194.335,406.494,181.801,393.96L181.801,393.96z M391.801,393.96c-12.534-12.534-33.264-11.061-43.899,3.12
	l-19.23,25.641c-7.33,9.773-6.358,23.45,2.28,32.089l0,0c8.639,8.639,22.315,9.611,32.089,2.281l25.641-19.231
	C402.862,427.224,404.335,406.494,391.801,393.96L391.801,393.96z"/>
<path style="fill:#963737;" d="M420,90L420,90c0,11.046-8.954,20-20,20c-7.167,0-13.435-3.782-16.966-9.447l-36.66-6.893
	c-8.214-1.544-15.749-5.082-22.256-10.119V55.48c6.506,5.037,14.043,8.57,22.256,10.114L380,71.916V70h20
	C411.046,70,420,78.954,420,90z"/>
<path style="fill:#FFB450;" d="M420,88.067l-73.627-13.843C319.613,69.192,300,43.074,300,12.47V5.645
	c0-3.85,3.344-6.568,6.581-5.351l75.472,28.38C404.714,37.195,420,61.119,420,88.067L420,88.067z"/>
<path style="fill:#FFCF65;" d="M382.917,100.5L309.29,88.229c-26.76-4.46-46.373-27.613-46.373-54.742v-6.05
	c0-3.413,3.343-5.823,6.581-4.743l75.472,25.157C367.631,55.405,382.917,76.612,382.917,100.5L382.917,100.5z"/>
<path style="fill:#963737;" d="M303.377,394.697c2.929,2.929,2.929,7.678-0.001,10.606l-17.348,17.348
	c-4.66-2.137-9.072-4.719-13.192-7.693c0.758-0.973,1.406-1.735,1.86-2.189l18.073-18.073
	C295.7,391.767,300.448,391.768,303.377,394.697z M166.623,276.624c-2.929,2.929-2.929,7.678,0.001,10.606l26.732,26.733v-4.733
	c0-4.653,1.374-9.043,3.728-12.753l-19.853-19.853C174.301,273.694,169.553,273.695,166.623,276.624z M216.901,252.5
	c-4.143,0-7.5,3.358-7.5,7.5v25.559c0,0.387,0.039,0.765,0.095,1.136c2.332-0.773,4.82-1.18,7.405-1.137
	c2.583,0.044,5.061,0.519,7.373,1.345c0.079-0.437,0.127-0.885,0.127-1.345V260C224.401,255.858,221.044,252.5,216.901,252.5z
	 M362.5,310c0,4.142,3.357,7.5,7.5,7.5h27.06v-15H370C365.857,302.5,362.5,305.858,362.5,310z M370,222.5
	c-4.143,0-7.5,3.358-7.5,7.5s3.357,7.5,7.5,7.5h27.06v-15H370z M362.5,350c0,4.142,3.357,7.5,7.5,7.5h26.77
	c0.176-2.145,0.29-4.307,0.29-6.497V342.5H370C365.857,342.5,362.5,345.858,362.5,350z M277.5,330c0-4.142-3.357-7.5-7.5-7.5
	h-30.348v15H270C274.143,337.5,277.5,334.142,277.5,330z M362.5,270c0,4.142,3.357,7.5,7.5,7.5h27.06v-15H370
	C365.857,262.5,362.5,265.858,362.5,270z M156.941,330c0,4.142,3.357,7.5,7.5,7.5h28.915v-15h-28.915
	C160.299,322.5,156.941,325.858,156.941,330z M65.559,272.5h-29.61v15h29.61c4.143,0,7.5-3.358,7.5-7.5S69.701,272.5,65.559,272.5z
	 M239.652,310.314c0.117-0.103,0.236-0.202,0.348-0.314l25.304-22.77c2.929-2.929,2.929-7.677,0-10.606
	c-2.93-2.929-7.678-2.929-10.607,0l-19.905,17.913c3.043,3.918,4.861,8.833,4.861,14.167v1.61H239.652z M73.059,360
	c0-4.142-3.357-7.5-7.5-7.5H35.987c0.097,5.133,0.675,10.149,1.714,15h27.858C69.701,367.5,73.059,364.142,73.059,360z
	 M74.696,384.697L56.624,402.77c-0.214,0.214-0.408,0.44-0.591,0.673c3.327,3.715,7,7.109,10.97,10.139
	c0.075-0.069,0.154-0.132,0.227-0.205l18.073-18.073c2.929-2.929,2.929-7.677,0-10.606
	C82.374,381.768,77.626,381.768,74.696,384.697z M73.059,320c0-4.142-3.357-7.5-7.5-7.5h-29.61v15h29.61
	C69.701,327.5,73.059,324.142,73.059,320z M35.949,247.5h29.61c4.143,0,7.5-3.358,7.5-7.5s-3.357-7.5-7.5-7.5h-29.61
	C35.949,232.5,35.949,247.5,35.949,247.5z M277.5,370c0-4.142-3.357-7.5-7.5-7.5h-29.364c0.813,5.175,2.119,10.193,3.874,15H270
	C274.143,377.5,277.5,374.142,277.5,370z M57.5,200c0-4.142-3.357-7.5-7.5-7.5H25.097c3.426,4.518,6.122,9.58,7.974,15H50
	C54.143,207.5,57.5,204.142,57.5,200z"/>
<g>
</g>
<g>
</g>
<g>
</g>
<g>
</g>
<g>
</g>
<g>
</g>
<g>
</g>
<g>
</g>
<g>
</g>
<g>
</g>
<g>
</g>
<g>
</g>
<g>
</g>
<g>
</g>
<g>
</g>
</svg>
