<svg height="512" viewBox="0 0 58 58" width="512" xmlns="http://www.w3.org/2000/svg"><g id="Page-1" fill="none" fill-rule="evenodd"><g id="025---Dragon" fill-rule="nonzero" transform="translate(0 -1)"><path id="Shape" d="m56.293 44.293-1.2 1.2c-.2587155-.4320828-.5914575-.8152608-.983-1.132.0341384-.0470213.0636111-.097259.088-.15l.731-1.84c.2037931-.5136248-.0473752-1.0952069-.561-1.299s-1.0952069.0473752-1.299.561l-.73 1.84c-.0086866.0362705-.0153634.0729931-.02.11-.4383622-.0602226-.8834695-.0511113-1.319.027v-1.61c0-.5522847-.4477153-1-1-1s-1 .4477153-1 1v1.88c.0021579.1519237.0398283.3012357.11.436-1.24859.7581155-2.3031833 1.7969584-3.08 3.034-.0728426-1.9218105-.454384-3.8193877-1.13-5.62v-.01c.56-5.9 7.1-3.72 7.1-3.72 1-4 6-5 6-5-1.3802565-2.7539369-3.8861177-4.774675-6.87-5.54-.5173729-.1521605-1.074332-.0880498-1.5436021.1776814s-.8107473.7103738-.9463979 1.2323186c-.66 2.53-2.41 6.78-6.87 7.16-.7904006-1.0843444-1.6882896-2.0860937-2.68-2.99 1.7165915-1.1213624 2.7970732-2.9927121 2.91-5.04-.0167814-1.1704304-.4055333-2.3051655-1.11-3.24-.4518343-.5842366-.5368822-1.3728626-.22-2.04.12-.24.23-.48.33-.72 10-2 9-9 9-9-2.6920081-1.5532308-5.9558836-1.7567604-8.82-.55-.3040959-.8196851-.6893433-1.6069298-1.15-2.35 1.7894641-2.32054761 2.825876-5.13316701 2.97-8.06.0115457-.31207543-.1233627-.61162726-.3647109-.80980751s-.561423-.27223245-.8652891-.20019249c-2.8078326.62254355-5.3666116 2.0672963-7.35 4.15-1.1671681-.53426329-2.4074693-.89152396-3.68-1.06l-.79-2.44c-.1348836-.41037454-.5180268-.6877501-.95-.6877501s-.8151164.27737556-.95.6877501l-.79 2.43c-1.2716981.16863439-2.5096641.53294048-3.67 1.08l-.01-.01c-1.9833884-2.0827037-4.5421674-3.52745645-7.35-4.15-.3038661-.07203996-.6239409.00201224-.8652891.20019249s-.3762566.49773208-.3647109.80980751c.1435921 2.9316742 1.18379 5.74858619 2.98 8.07-.4696614.736032-.8585766 1.5205679-1.16 2.34-2.8641164-1.2067604-6.1279919-1.0032308-8.82.55 0 0-1 7 9 9 .0978786.2453725.2080173.4856752.33.72.3168822.6671374.2318343 1.4557634-.22 2.04-.7044667.9348345-1.0932186 2.0695696-1.11 3.24.1161498 2.0567215 1.2040289 3.9354478 2.93 5.06-.9739338.9118514-1.8641633 1.9091761-2.66 2.98-4.49-.36-6.25-4.63-6.91-7.17-.13565059-.5219448-.47712784-.9665874-.9463979-1.2323186s-1.02622924-.3298419-1.5436021-.1776814c-2.98388233.765325-5.48974353 2.7860631-6.87 5.54 0 0 5 1 6 5 0 0 6.62-2.21 7.11 3.82v.01c-.6643736 1.8025876-1.0357438 3.6999517-1.1 5.62-.7695297-1.2829497-1.8405084-2.3587341-3.12-3.134.0696912-.1349466.10733266-.2841437.11-.436v-1.88c0-.5522847-.44771525-1-1-1s-1 .4477153-1 1v1.61c-.43575136-.0788815-.88120475-.088668-1.32-.029-.00472513-.0369932-.0114011-.0737111-.02-.11l-.73-1.84c-.20379308-.5136248-.78537518-.764793-1.29899999-.561-.51362481.2037931-.76479306.7853752-.56100001 1.299l.73 1.839c.0247278.0530856.0545333.1036545.089.151-.39178456.3167725-.72485038.6999336-.984 1.132l-1.2-1.2c-.39237889-.3789722-1.01608478-.3735524-1.40181857.0121814-.3857338.3857338-.39115364 1.0094397-.01218143 1.4018186l1.44 1.44c.1247822.1190454.27910284.2025926.447.242-.36354513 2.0216465-.11203079 4.1058713.722 5.983 1.73 4.11 5.37 6.5 8.14 5.34 1.2386692-.5826365 2.1442577-1.6980565 2.46-3.03 1.34 2.58 3.29 3.32 4.5 3.32 1.8831732.0583246 3.7056276-.6699325 5.03-2.01 1.9110948.700411 3.9348627 1.0427904 5.97 1.01 2.0498831.0324713 4.0879095-.3168078 6.01-1.03 1.3184899 1.3572313 3.1488797 2.0944716 5.04 2.03 1.2 0 3.13-.72 4.47-3.26.3257378 1.3063445 1.2217085 2.3969319 2.44 2.97 2.77 1.16 6.41-1.23 8.14-5.34.832952-1.8767398 1.0837613-3.9601984.72-5.981.1678972-.0394074.3222178-.1229546.447-.242l1.44-1.44c.3789722-.3923789.3735524-1.0160848-.0121814-1.4018186s-1.0094397-.3911536-1.4018186-.0121814z" fill="#e64c3c"/><g fill="#f0c419"><path id="Shape" d="m2.44 47.44c-.26519481-.0000566-.51950727-.1054506-.707-.293l-1.44-1.44c-.37897221-.3923789-.37355237-1.0160848.01218143-1.4018186.38573379-.3857338 1.00943968-.3911536 1.40181857-.0121814l1.44 1.44c.28590792.2859943.37142191.7160366.21667798 1.0896546-.15474393.3736179-.51928208.6172591-.92367798.6173454z"/><path id="Shape" d="m4.73 44.84c-.41029934.0000715-.77900985-.2504931-.93-.632l-.73-1.839c-.20379305-.5136248.0473752-1.0952069.56100001-1.299.51362481-.203793 1.09520691.0473752 1.29899999.561l.73 1.84c.09832429.2467574.09443433.5224953-.01081168.7663809s-.30319946.4358776-.55018832.5336191c-.11766549.0456534-.24278828.0690504-.369.069z"/><path id="Shape" d="m8 44.88c-.55228475 0-1-.4477153-1-1v-1.88c0-.5522847.44771525-1 1-1s1 .4477153 1 1v1.88c0 .5522847-.44771525 1-1 1z"/><path id="Shape" d="m55.56 47.44c-.4043959-.0000863-.7689341-.2437275-.923678-.6173454-.1547439-.373618-.0692299-.8036603.216678-1.0896546l1.44-1.44c.3923789-.3789722 1.0160848-.3735524 1.4018186.0121814s.3911536 1.0094397.0121814 1.4018186l-1.44 1.44c-.1874927.1875494-.4418052.2929434-.707.293z"/><path id="Shape" d="m53.27 44.84c-.3314693.0001892-.641493-.1638835-.8277556-.43807-.1862625-.2741865-.2245567-.6228526-.1022444-.93093l.73-1.84c.131831-.332257.4309049-.5689441.7845634-.6209036s.7081725.0887025.93.369.2772676.6576466.1454366.9899036l-.731 1.84c-.1511743.3807748-.5193134.6308241-.929.631z"/><path id="Shape" d="m50 44.88c-.5522847 0-1-.4477153-1-1v-1.88c0-.5522847.4477153-1 1-1s1 .4477153 1 1v1.88c0 .5522847-.4477153 1-1 1z"/></g><path id="Shape" d="m23.59 5.19c-2.3069356 1.06221416-4.2558279 2.77140306-5.61 4.92-1.79621-2.32141381-2.8364079-5.1383258-2.98-8.07-.0115457-.31207543.1233627-.61162726.3647109-.80980751s.561423-.27223245.8652891-.20019249c2.8078326.62254355 5.3666116 2.0672963 7.35 4.15z" fill="#f3d55b"/><path id="Shape" d="m43 2.04c-.144124 2.92683299-1.1805359 5.73945239-2.97 8.06-1.3541721-2.14859694-3.3030644-3.85778584-5.61-4.92 1.9833884-2.0827037 4.5421674-3.52745645 7.35-4.15.3038661-.07203996.6239409.00201224.8652891.20019249s.3762566.49773208.3647109.80980751z" fill="#f3d55b"/><path id="Shape" d="m40.03 10.1c-.0055228 0-.01.0044772-.01.01" fill="#e64c3c"/><circle id="Oval" cx="23" cy="19" fill="#fff" r="3"/><circle id="Oval" cx="35" cy="19" fill="#fff" r="3"/><path id="Shape" d="m17 22c-10-2-9-9-9-9 2.9851264 1.054301 5.7193089 2.7159213 8.03 4.88.0985145 1.4167358.4260987 2.8081246.97 4.12z" fill="#f9eab0"/><path id="Shape" d="m16.1 15.34c-.1078057.8422272-.1312553 1.6931136-.07 2.54-2.3106911-2.1640787-5.0448736-3.825699-8.03-4.88 2.6920081-1.5532308 5.9558836-1.7567604 8.82-.55-.3567739.9304246-.5985644 1.9009444-.72 2.89z" fill="#c03a2b"/><path id="Shape" d="m41.97 17.88c.02-.29.03-.58.03-.88.0021973-1.5536098-.2755741-3.0949026-.82-4.55 2.8641164-1.2067604 6.1279919-1.0032308 8.82.55-2.9851264 1.054301-5.7193089 2.7159213-8.03 4.88z" fill="#c03a2b"/><path id="Shape" d="m41 22c.5485467-1.310372.8763137-2.7025371.97-4.12 2.3106911-2.1640787 5.0448736-3.825699 8.03-4.88 0 0 1 7-9 9z" fill="#f9eab0"/><path id="Shape" d="m30.62 8h-3.24c-.3201574-.00023579-.6208461-.15375157-.8088006-.4129309-.1879544-.25917932-.2404483-.59268372-.1411994-.8970691l.83-2.58.79-2.43c.1348836-.41037454.5180268-.6877501.95-.6877501s.8151164.27737556.95.6877501l.79 2.44.83 2.57c.0992489.30438538.046755.63788978-.1411994.8970691-.1879545.25917933-.4886432.41269511-.8088006.4129309z" fill="#ecf0f1"/><path id="Shape" d="m20 43c.1060257 1.3736449.4441492 2.7193765 1 3.98" fill="#e64c3c"/><path id="Shape" d="m37 32v2.3c-2.5079654 1.1518213-5.2403751 1.7324584-8 1.7-2.7596249.0324584-5.4920346-.5481787-8-1.7v-2.3c0-3.3137085 2.6862915-6 6-6h4c3.3137085 0 6 2.6862915 6 6z" fill="#fb7b76"/><path id="Shape" d="m38.05 43c-.1075425 1.3873712-.4490278 2.7465502-1.01 4.02" fill="#e64c3c"/><path id="Shape" d="m35.05 51c-1.54 2.56-1.24 4.59-.04 5.97-1.9220905.7131922-3.9601169 1.0624713-6.01 1.03-2.0351373.0327904-4.0589052-.309589-5.97-1.01 1.2-1.38 1.51-3.42-.03-5.99-.777188-1.2821114-1.44617-2.6267652-2-4.02.07-.42 1.22-6.98 8-6.98 7 0 8 7 8 7l.04.02c-.5532165 1.3789266-1.2187886 2.7100708-1.99 3.98z" fill="#fb7b76"/><path id="Shape" d="m16.27 36.04c-1.3306339 1.7615663-2.3953288 3.7090146-3.16 5.78-.49-6.03-7.11-3.82-7.11-3.82-1-4-6-5-6-5 1.38025647-2.7539369 3.88611767-4.774675 6.87-5.54.51737286-.1521605 1.07433204-.0880498 1.5436021.1776814s.81074731.7103738.9463979 1.2323186c.66 2.54 2.42 6.81 6.91 7.17z" fill="#c03a2b"/><path id="Shape" d="m13.5 55.68c-.3157423 1.3319435-1.2213308 2.4473635-2.46 3.03-2.77 1.16-6.41-1.23-8.14-5.34-.99941773-2.1750627-1.16316316-4.6419232-.46-6.93.36929712-1.1469896 1.19882826-2.0888153 2.29-2.6.01-.01.03-.01.04-.02 1.04276621-.4049609 2.20299298-.3834087 3.23.06 1.68312.7320029 3.0881679 1.982881 4.01 3.57-.01.18-.01.37-.01.55-.1212508 2.6431103.3931332 5.2767564 1.5 7.68z" fill="#c03a2b"/><path id="Shape" d="m58 33s-5 1-6 5c0 0-6.54-2.18-7.1 3.72-.7626905-2.0380459-1.8170028-3.9546711-3.13-5.69 4.46-.38 6.21-4.63 6.87-7.16.1356506-.5219448.4771278-.9665874.9463979-1.2323186s1.0262292-.3298419 1.5436021-.1776814c2.9838823.765325 5.4897435 2.7860631 6.87 5.54z" fill="#c03a2b"/><path id="Shape" d="m41.77 36.03c-.0117335.0079537-.025904.0114964-.04.01" fill="#e64c3c"/><path id="Shape" d="m44.89 41.83v-.01c0-.03.01-.06.01-.09" fill="#e64c3c"/><path id="Shape" d="m55.1 53.37c-1.73 4.11-5.37 6.5-8.14 5.34-1.2182915-.5730681-2.1142622-1.6636555-2.44-2.97 1.1284087-2.4183112 1.6534169-5.074235 1.53-7.74 0-.21 0-.42-.02-.63v-.02c.9343551-1.5379499 2.320859-2.7498312 3.97-3.47 1.027007-.4434087 2.1872338-.4649609 3.23-.06.01.01.03.01.04.02 1.0911717.5111847 1.9207029 1.4530104 2.29 2.6.7031632 2.2880768.5394177 4.7549373-.46 6.93z" fill="#c03a2b"/><circle id="Oval" cx="7" cy="50" fill="#fb7b76" r="2"/><circle id="Oval" cx="10" cy="55" fill="#fb7b76" r="1"/><circle id="Oval" cx="51" cy="50" fill="#fb7b76" r="2"/><circle id="Oval" cx="48" cy="55" fill="#fb7b76" r="1"/><path id="Shape" d="m31 46h-4c-.5522847 0-1-.4477153-1-1s.4477153-1 1-1h4c.5522847 0 1 .4477153 1 1s-.4477153 1-1 1z" fill="#fff"/><path id="Shape" d="m30 54h-2c-.5522847 0-1-.4477153-1-1s.4477153-1 1-1h2c.5522847 0 1 .4477153 1 1s-.4477153 1-1 1z" fill="#fff"/><path id="Shape" d="m32 50h-6c-.5522847 0-1-.4477153-1-1s.4477153-1 1-1h6c.5522847 0 1 .4477153 1 1s-.4477153 1-1 1z" fill="#fff"/><circle id="Oval" cx="23.5" cy="19.5" fill="#393f4a" r="1.5"/><circle id="Oval" cx="34.5" cy="19.5" fill="#393f4a" r="1.5"/><path id="Shape" d="m26 32h-1c-.5522847 0-1-.4477153-1-1s.4477153-1 1-1h1c.5522847 0 1 .4477153 1 1s-.4477153 1-1 1z" fill="#393f4a"/><path id="Shape" d="m33 32h-1c-.5522847 0-1-.4477153-1-1s.4477153-1 1-1h1c.5522847 0 1 .4477153 1 1s-.4477153 1-1 1z" fill="#393f4a"/></g></g></svg>