<?xml version="1.0" encoding="iso-8859-1"?>
<!-- Generator: Adobe Illustrator 19.0.0, SVG Export Plug-In . SVG Version: 6.00 Build 0)  -->
<svg version="1.1" id="Layer_1" xmlns="http://www.w3.org/2000/svg" xmlns:xlink="http://www.w3.org/1999/xlink" x="0px" y="0px"
	 viewBox="0 0 512 512" style="enable-background:new 0 0 512 512;" xml:space="preserve">
<g>
	<path style="fill:#CAD1D8;" d="M96,288H64c-8.832,0-16-7.168-16-16s7.168-16,16-16h32c8.832,0,16,7.168,16,16S104.832,288,96,288z"
		/>
	<path style="fill:#CAD1D8;" d="M48,312c-8.832,0-16-7.168-16-16v-48c0-8.832,7.168-16,16-16s16,7.168,16,16v48
		C64,304.832,56.832,312,48,312z"/>
</g>
<path style="fill:#84BD5A;" d="M368,0H144c-35.288,0-64,28.712-64,64v272c0,97.048,78.952,176,176,176s176-78.952,176-176V64
	C432,28.712,403.288,0,368,0z"/>
<g>
	<circle style="fill:#FFFFFF;" cx="204" cy="252" r="36"/>
	<circle style="fill:#FFFFFF;" cx="308" cy="252" r="36"/>
</g>
<g>
	<path style="fill:#E2E5E7;" d="M329.064,222.912C333.376,228.848,336,236.096,336,244c0,19.896-16.104,36-35.976,36
		c-7.912,0-15.168-2.624-21.112-6.944C285.464,282.08,296.024,288,308.024,288C327.896,288,344,271.896,344,252
		C344,240.008,338.08,229.456,329.064,222.912z"/>
	<path style="fill:#E2E5E7;" d="M225.064,222.912C229.376,228.848,232,236.096,232,244c0,19.896-16.104,36-35.976,36
		c-7.912,0-15.168-2.624-21.112-6.944C181.464,282.08,192.024,288,204.024,288C223.896,288,240,271.896,240,252
		C240,240.008,234.08,229.456,225.064,222.912z"/>
</g>
<g>
	<circle style="fill:#F15642;" cx="308" cy="252" r="12"/>
	<circle style="fill:#F15642;" cx="204" cy="252" r="12"/>
</g>
<g>
	<path style="fill:#CAD1D8;" d="M448,288h-32c-8.832,0-16-7.168-16-16s7.168-16,16-16h32c8.832,0,16,7.168,16,16
		S456.832,288,448,288z"/>
	<path style="fill:#CAD1D8;" d="M464,312c-8.832,0-16-7.168-16-16v-48c0-8.832,7.168-16,16-16s16,7.168,16,16v48
		C480,304.832,472.832,312,464,312z"/>
</g>
<path style="fill:#73AE44;" d="M400,8.664V296c0,97.2-78.8,176-176,176c-46.384,0-88.552-17.968-119.992-47.296
	C134.536,476.904,191.16,512,256,512c97.2,0,176-78.8,176-176V64C432,40.376,419.096,19.744,400,8.664z"/>
<rect x="80" y="136" style="fill:#F15642;" width="352" height="16"/>
<path style="fill:#D3463C;" d="M336,400c0,8.8-7.2,16-16,16H192c-8.8,0-16-7.2-16-16v-48c0-8.8,7.2-16,16-16h128c8.8,0,16,7.2,16,16
	V400z"/>
<g>
	<path style="fill:#FFFFFF;" d="M336,400v-8H176v8c0,8.8,7.2,16,16,16h128C328.8,416,336,408.8,336,400z"/>
	<path style="fill:#FFFFFF;" d="M176,352v8h160v-8c0-8.8-7.2-16-16-16H192C183.2,336,176,343.2,176,352z"/>
</g>
<path style="fill:#E2E5E7;" d="M178.232,344H333.76c-2.784-4.752-7.888-8-13.768-8H192C186.128,336,181.016,339.248,178.232,344z"/>
<g>
	<path style="fill:#35495C;" d="M237.656,144L248,133.656c3.128-3.128,3.128-8.184,0-11.312s-8.184-3.128-11.312,0l-10.344,10.344
		L216,122.344c-3.128-3.128-8.184-3.128-11.312,0s-3.128,8.184,0,11.312L215.032,144l-10.344,10.344
		c-3.128,3.128-3.128,8.184,0,11.312c1.56,1.56,3.608,2.344,5.656,2.344s4.096-0.784,5.656-2.344l10.344-10.344l10.344,10.344
		c1.56,1.56,3.608,2.344,5.656,2.344s4.096-0.784,5.656-2.344c3.128-3.128,3.128-8.184,0-11.312L237.656,144z"/>
	<path style="fill:#35495C;" d="M301.656,144L312,133.656c3.128-3.128,3.128-8.184,0-11.312s-8.184-3.128-11.312,0l-10.344,10.344
		L280,122.344c-3.128-3.128-8.184-3.128-11.312,0s-3.128,8.184,0,11.312L279.032,144l-10.344,10.344
		c-3.128,3.128-3.128,8.184,0,11.312c1.56,1.56,3.608,2.344,5.656,2.344s4.096-0.784,5.656-2.344l10.344-10.344l10.344,10.344
		c1.56,1.56,3.608,2.344,5.656,2.344s4.096-0.784,5.656-2.344c3.128-3.128,3.128-8.184,0-11.312L301.656,144z"/>
	<path style="fill:#35495C;" d="M363.312,144l10.344-10.344c3.128-3.128,3.128-8.184,0-11.312s-8.184-3.128-11.312,0L352,132.688
		l-10.344-10.344c-3.128-3.128-8.184-3.128-11.312,0s-3.128,8.184,0,11.312L340.688,144l-10.344,10.344
		c-3.128,3.128-3.128,8.184,0,11.312c1.56,1.56,3.608,2.344,5.656,2.344s4.096-0.784,5.656-2.344L352,155.312l10.344,10.344
		c1.56,1.56,3.608,2.344,5.656,2.344s4.096-0.784,5.656-2.344c3.128-3.128,3.128-8.184,0-11.312L363.312,144z"/>
	<path style="fill:#35495C;" d="M173.656,144L184,133.656c3.128-3.128,3.128-8.184,0-11.312s-8.184-3.128-11.312,0l-10.344,10.344
		L152,122.344c-3.128-3.128-8.184-3.128-11.312,0s-3.128,8.184,0,11.312L151.032,144l-10.344,10.344
		c-3.128,3.128-3.128,8.184,0,11.312c1.56,1.56,3.608,2.344,5.656,2.344s4.096-0.784,5.656-2.344l10.344-10.344l10.344,10.344
		c1.56,1.56,3.608,2.344,5.656,2.344s4.096-0.784,5.656-2.344c3.128-3.128,3.128-8.184,0-11.312L173.656,144z"/>
	<rect x="80" y="64" style="fill:#35495C;" width="32" height="152"/>
	<rect x="400" y="64" style="fill:#35495C;" width="32" height="152"/>
	<path style="fill:#35495C;" d="M166.512,84.6c-3.584,4.528-9.448,4.528-13.032,0l-16.096-20.36c-3.584-4.536,0.04-8.24,8.048-8.24
		h29.136c8.008,0,11.64,3.704,8.048,8.24L166.512,84.6z"/>
	<path style="fill:#35495C;" d="M126.512,84.6c-3.584,4.528-9.448,4.528-13.032,0L97.384,64.24C93.8,59.704,97.424,56,105.432,56
		h29.136c8.008,0,11.64,3.704,8.048,8.24L126.512,84.6z"/>
	<path style="fill:#35495C;" d="M286.512,84.6c-3.584,4.528-9.448,4.528-13.032,0l-16.096-20.36c-3.584-4.536,0.04-8.24,8.056-8.24
		h29.128c8.016,0,11.64,3.704,8.056,8.24L286.512,84.6z"/>
	<path style="fill:#35495C;" d="M326.512,84.6c-3.584,4.528-9.448,4.528-13.032,0l-16.096-20.36c-3.584-4.536,0.04-8.24,8.056-8.24
		h29.128c8.016,0,11.64,3.704,8.056,8.24L326.512,84.6z"/>
	<path style="fill:#35495C;" d="M366.512,84.6c-3.584,4.528-9.448,4.528-13.032,0l-16.096-20.36c-3.584-4.536,0.04-8.24,8.056-8.24
		h29.128c8.016,0,11.64,3.704,8.056,8.24L366.512,84.6z"/>
	<path style="fill:#35495C;" d="M398.512,84.6c-3.584,4.528-9.448,4.528-13.032,0l-16.096-20.36c-3.584-4.536,0.04-8.24,8.056-8.24
		h29.128c8.016,0,11.64,3.704,8.056,8.24L398.512,84.6z"/>
	<path style="fill:#35495C;" d="M206.512,84.6c-3.584,4.528-9.448,4.528-13.032,0l-16.096-20.36c-3.584-4.536,0.04-8.24,8.048-8.24
		h29.136c8.008,0,11.64,3.704,8.048,8.24L206.512,84.6z"/>
	<path style="fill:#35495C;" d="M246.512,84.6c-3.584,4.528-9.448,4.528-13.032,0l-16.096-20.36c-3.584-4.536,0.04-8.24,8.048-8.24
		h29.136c8.008,0,11.64,3.704,8.048,8.24L246.512,84.6z"/>
	<path style="fill:#35495C;" d="M368,0H144c-35.288,0-64,28.712-64,64h352C432,28.712,403.288,0,368,0z"/>
	<path style="fill:#35495C;" d="M432,232c0,0-7.168,0-16,0s-16-7.168-16-16s32-16,32-16V232z"/>
	<path style="fill:#35495C;" d="M80,232c0,0,7.168,0,16,0s16-7.168,16-16s-32-16-32-16V232z"/>
	<path style="fill:#35495C;" d="M352,208H160c-8.8,0-16,7.2-16,16v8h224v-8C368,215.2,360.8,208,352,208z"/>
</g>
<g>
	<rect x="432" y="256" style="fill:#BAC1C6;" width="8" height="32"/>
	<rect x="72" y="256" style="fill:#BAC1C6;" width="8" height="32"/>
</g>
<g>
</g>
<g>
</g>
<g>
</g>
<g>
</g>
<g>
</g>
<g>
</g>
<g>
</g>
<g>
</g>
<g>
</g>
<g>
</g>
<g>
</g>
<g>
</g>
<g>
</g>
<g>
</g>
<g>
</g>
</svg>
