<svg height="512" viewBox="0 0 58 58" width="512" xmlns="http://www.w3.org/2000/svg"><g id="Page-1" fill="none" fill-rule="evenodd"><g id="042---Freaked" fill-rule="nonzero"><circle id="Oval" cx="29" cy="29" fill="#f0c419" r="29"/><circle id="Oval" cx="23" cy="50" fill="#f29c1f" r="3"/><circle id="Oval" cx="35" cy="50" fill="#f29c1f" r="3"/><path id="Shape" d="m41 35c0 2.26-2.51 4.23-6.2 5.26-3.8037257.9866547-7.7962743.9866547-11.6 0-3.69-1.03-6.2-3-6.2-5.26 0-3.31 5.37-6 12-6s12 2.69 12 6z" fill="#802d40"/><path id="Shape" d="m13.05 53.23c-3.14094047-2.0780625-5.85063282-4.743612-7.98-7.85 2.25888771-1.0222903 4.91392172-.5498418 6.681493 1.1889345 1.7675713 1.7387763 2.2835608 4.385693 1.298507 6.6610655z" fill="#f29c1f"/><path id="Shape" d="m52.93 45.38c-2.1293672 3.106388-4.8390595 5.7719375-7.98 7.85-.9850538-2.2753725-.4690643-4.9222892 1.298507-6.6610655s4.4226053-2.2112248 6.681493-1.1889345z" fill="#f29c1f"/><circle id="Oval" cx="19" cy="19" fill="#ecf0f1" r="8"/><circle id="Oval" cx="19" cy="19" fill="#955ba5" r="5"/><circle id="Oval" cx="19" cy="19" fill="#35495e" r="2"/><circle id="Oval" cx="39" cy="19" fill="#ecf0f1" r="8"/><circle id="Oval" cx="39" cy="19" fill="#955ba5" r="5"/><circle id="Oval" cx="39" cy="19" fill="#35495e" r="2"/><circle id="Oval" cx="17" cy="16" fill="#ecf0f1" r="2"/><circle id="Oval" cx="37" cy="16" fill="#ecf0f1" r="2"/><path id="Shape" d="m35 39c-.0005135.4278628-.0679969.8530085-.2 1.26-3.8037257.9866547-7.7962743.9866547-11.6 0-.1320031-.4069915-.1994865-.8321372-.2-1.26 0-2.76 2.69-5 6-5s6 2.24 6 5z" fill="#ff5364"/><g fill="#ecf0f1"><path id="Shape" d="m26.58 40.88c-1.842509-.1701651-3.6491815-.615092-5.36-1.32l.73-1.46c.3557289-.7106718 1.0984818-1.1432933 1.8921441-1.1020922.7936624.041201 1.4876265.5484061 1.7678559 1.2920922z"/><path id="Shape" d="m36.78 39.56c-1.7108185.704908-3.517491 1.1498349-5.36 1.32l.97-2.59c.2802294-.7436861.9741935-1.2508912 1.7678559-1.2920922.7936623-.0412011 1.5364152.3914204 1.8921441 1.1020922z"/></g></g></g></svg>