<?xml version="1.0" encoding="iso-8859-1"?>
<!-- Generator: Adobe Illustrator 19.0.0, SVG Export Plug-In . SVG Version: 6.00 Build 0)  -->
<svg version="1.1" id="Layer_1" xmlns="http://www.w3.org/2000/svg" xmlns:xlink="http://www.w3.org/1999/xlink" x="0px" y="0px"
	 viewBox="0 0 512.002 512.002" style="enable-background:new 0 0 512.002 512.002;" xml:space="preserve">
<path style="fill:#D6D9DB;" d="M384.025,288c-11.736,0-23.04-6.488-28.64-17.696c-7.904-15.808-1.504-35.024,14.304-42.928
	l64-31.992c15.808-7.896,35.024-1.504,42.928,14.304c7.896,15.816,1.496,35.032-14.312,42.928l-63.992,31.992
	C393.721,286.904,388.833,288,384.025,288z"/>
<g>
	<path style="fill:#E2E5E7;" d="M256.001,0c-79.52,0-144,64.472-144,144v350.424c0,17.48,10.12,22.832,22.488,11.92l27.032-26.36
		c12.368-10.912,32.6-10.912,44.968,0l27.032,23.832c12.368,10.912,32.6,10.912,44.968,0l27.032-23.832
		c12.368-10.912,32.6-10.912,44.968,0l27.032,26.36c12.36,10.912,22.48,5.552,22.48-11.92V144C400.001,64.472,335.529,0,256.001,0z"
		/>
	<path style="fill:#E2E5E7;" d="M127.985,288c-4.816,0-9.688-1.096-14.288-3.392l-64-31.992
		c-15.808-7.896-22.208-27.12-14.312-42.928c7.904-15.808,27.112-22.2,42.928-14.304l64,31.992
		c15.808,7.904,22.208,27.128,14.312,42.928C151.017,281.512,139.721,288,127.985,288z"/>
</g>
<g>
	<path style="fill:#BAC1C6;" d="M112.001,283.784c0,0,0-54.728,0-43.784c0,16-19.464,34.056-19.464,34.056L112.001,283.784z"/>
	<path style="fill:#BAC1C6;" d="M400.009,283.784c0,0,0-54.728,0-43.784c0,16,19.464,34.056,19.464,34.056L400.009,283.784z"/>
</g>
<g>
	<circle style="fill:#123247;" cx="212.001" cy="172" r="20"/>
	<circle style="fill:#123247;" cx="300.001" cy="172" r="20"/>
</g>
<g>
	<circle style="fill:#E2E5E7;" cx="204.001" cy="164" r="4"/>
	<circle style="fill:#E2E5E7;" cx="292.001" cy="164" r="4"/>
</g>
<path style="fill:#123247;" d="M256.001,288c-17.672,0-32-14.328-32-32l0,0c0-17.672,14.328-32,32-32c17.664,0,32,14.328,32,32l0,0
	C288.001,273.672,273.673,288,256.001,288z"/>
<path style="fill:#F15642;" d="M280.001,261.984c0,9.944-10.744,18.016-24,18.016c-13.256,0-24-8.072-24-18.016
	c0-9.936,10.744-4.496,24-4.496C269.257,257.488,280.001,252.048,280.001,261.984z"/>
<path style="fill:#FFFFFF;" d="M277.625,17.976C270.577,16.768,263.393,16,256.001,16c-70.28,0-127.256,56.976-127.256,127.256
	c0,4.464,0.24,8.872,0.688,13.216C139.009,81.256,200.961,22.568,277.625,17.976z"/>
<path style="fill:#D6D9DB;" d="M283.241,2.656c41.488,28.032,68.76,75.504,68.76,129.344c0,1.352-0.168,2.656-0.2,4h0.2v192
	c0,69.8-72,160-136.704,159.752l18.224,16.064c12.368,10.912,32.6,10.912,44.968,0l27.032-23.832
	c12.368-10.912,32.6-10.912,44.968,0l1.512,1.48l6.712,6.536h-0.008l1.296,1.264v-0.008l17.512,17.088
	c12.368,10.912,22.488,5.552,22.488-11.92V144C400.001,73.792,349.737,15.4,283.241,2.656z"/>
<g>
</g>
<g>
</g>
<g>
</g>
<g>
</g>
<g>
</g>
<g>
</g>
<g>
</g>
<g>
</g>
<g>
</g>
<g>
</g>
<g>
</g>
<g>
</g>
<g>
</g>
<g>
</g>
<g>
</g>
</svg>
