<?xml version="1.0" encoding="iso-8859-1"?>
<!-- Generator: Adobe Illustrator 19.0.0, SVG Export Plug-In . SVG Version: 6.00 Build 0)  -->
<svg version="1.1" id="Capa_1" xmlns="http://www.w3.org/2000/svg" xmlns:xlink="http://www.w3.org/1999/xlink" x="0px" y="0px"
	 viewBox="0 0 511.848 511.848" style="enable-background:new 0 0 511.848 511.848;" xml:space="preserve">
<g>
	<path style="fill:#AF8066;" d="M446.839,138.67l-0.087-0.26c28.117-7.029,52.155-43.13,52.155-43.13
		c-43.39,0-34.712-17.356-60.746-26.034c-26.034-8.678-60.746,8.678-60.746,8.678c-2.816-4.597-6.371-8.697-10.522-12.137
		c2.027-2.605,2.387-6.139,0.929-9.101c-1.127-2.254-28.03-55.208-65.691-56.653c-16.742-0.678-32.218,8.706-46.208,27.635
		C241.94,8.747,226.49-0.622,209.716,0.035c-37.661,1.445-64.564,54.399-65.691,56.653c-1.458,2.961-1.098,6.495,0.929,9.101
		c-4.151,3.44-7.706,7.54-10.522,12.137c0,0-34.712-17.356-60.746-8.678S56.331,95.28,12.941,95.28c0,0,24.038,36.1,52.155,43.13
		l-0.087,0.26c0,0-60.746,121.492-60.746,208.271c0,81.746,15.447,155.856,60.746,164.1c2.862,0.53,5.767,0.791,8.678,0.781h79.751
		c12.644,0.044,24.189-7.18,29.679-18.571c22.154,12.635,47.309,19.052,72.808,18.571c25.499,0.481,50.655-5.935,72.808-18.571
		c5.489,11.391,17.034,18.615,29.679,18.571h79.751c2.911,0.01,5.816-0.251,8.678-0.781c45.299-8.244,60.746-82.354,60.746-164.1
		C507.585,260.162,446.839,138.67,446.839,138.67z M301.445,17.378c17.782,0.666,34.866,21.194,44.569,36.257
		c-25.537-8.648-52.483-12.378-79.409-10.991C277.963,25.495,289.68,16.929,301.445,17.378z M210.403,17.378
		c11.9-0.526,23.508,8.104,34.846,25.266c-26.928-1.387-53.875,2.342-79.414,10.991C175.537,38.572,192.621,18.044,210.403,17.378z"
		/>
	<ellipse style="fill:#59474E;" cx="255.924" cy="216.772" rx="182.237" ry="138.847"/>
	<g>
		<circle style="fill:#FFFFFF;" cx="186.5" cy="156.026" r="43.39"/>
		<circle style="fill:#FFFFFF;" cx="186.5" cy="156.026" r="43.39"/>
	</g>
	<g>
		<path style="fill:#805333;" d="M134.432,77.925c-11.014,18.842-20.28,38.653-27.683,59.184
			c-8.136-1.437-16.499-0.901-24.385,1.562c-5.684,1.391-11.63,1.301-17.269-0.26c-28.117-7.029-52.155-43.13-52.155-43.13
			c43.39,0,34.712-17.356,60.746-26.034S134.432,77.925,134.432,77.925z"/>
		<path style="fill:#805333;" d="M498.907,95.28c0,0-24.038,36.1-52.155,43.13c-5.639,1.562-11.585,1.651-17.269,0.26
			c-7.886-2.464-16.249-2.999-24.385-1.562c-7.403-20.531-16.669-40.342-27.683-59.184c0,0,34.712-17.356,60.746-8.678
			C464.195,77.925,455.517,95.28,498.907,95.28z"/>
	</g>
	<path style="fill:#CBB292;" d="M405.098,137.108c-7.403-20.531-16.669-40.342-27.683-59.184
		c-26.034-43.39-121.492-34.712-121.492-34.712s-95.458-8.678-121.492,34.712c-11.014,18.842-20.28,38.653-27.683,59.184
		c-19.092,52.849-28.637,119.322,19.005,149.087c38.932,25.426,83.768,40.371,130.169,43.39
		c46.401-3.019,91.237-17.964,130.169-43.39C433.736,256.43,424.19,189.957,405.098,137.108z M186.5,199.416
		c-23.964,0-43.39-19.426-43.39-43.39s19.426-43.39,43.39-43.39s43.39,19.426,43.39,43.39
		C229.881,179.986,210.46,199.407,186.5,199.416z M325.348,199.416c-23.964,0-43.39-19.426-43.39-43.39s19.426-43.39,43.39-43.39
		s43.39,19.426,43.39,43.39C368.729,179.986,349.308,199.407,325.348,199.416z"/>
	<g>
		<path style="fill:#F5EFCA;" d="M349.559,265.195c-18.778,6.693-38.479,10.44-58.403,11.108l25.34-42.175L349.559,265.195z"/>
		<path style="fill:#F5EFCA;" d="M220.691,276.303c-19.924-0.668-39.625-4.415-58.403-11.108l33.063-31.067L220.691,276.303z"/>
	</g>
	<g>
		<path style="fill:#FDD7AD;" d="M374.899,412.547c-8.9,14.955-20.809,27.898-34.972,38.009
			c-9.111,6.511-14.535,17.005-14.579,28.203c-0.012,5.028,1.146,9.99,3.384,14.492c-22.154,12.635-47.309,19.052-72.808,18.571
			c-25.499,0.481-50.655-5.935-72.808-18.571c2.238-4.502,3.397-9.464,3.384-14.492c-0.044-11.198-5.468-21.692-14.579-28.203
			c-14.164-10.112-26.072-23.055-34.972-38.009c11.628-27.596,60.485-48.25,118.975-48.25S363.27,384.951,374.899,412.547z"/>
		<path style="fill:#FDD7AD;" d="M151.788,498.806l0,13.017h-43.39v-14.145c0.594-11.768,10.466-20.914,22.245-20.608
			C142.423,477.376,151.807,487.023,151.788,498.806z"/>
		<path style="fill:#FDD7AD;" d="M108.399,497.678v14.145l-34.712,0c-2.911,0.01-5.816-0.251-8.678-0.781v-12.236
			c0.011-8.774,5.299-16.679,13.404-20.039c8.105-3.36,17.435-1.514,23.65,4.679C105.821,487.271,108.071,492.325,108.399,497.678z"
			/>
		<path style="fill:#FDD7AD;" d="M446.839,498.806v12.236c-2.862,0.53-5.767,0.791-8.678,0.781l-34.712,0v-14.145
			c0.594-11.768,10.466-20.914,22.245-20.608C437.474,477.376,446.858,487.023,446.839,498.806z"/>
		<path style="fill:#FDD7AD;" d="M403.449,497.678v14.145h-43.39v-13.017c0.011-8.774,5.299-16.679,13.404-20.039
			c8.105-3.36,17.435-1.514,23.65,4.679C400.872,487.271,403.122,492.325,403.449,497.678z"/>
	</g>
	<g>
		<path style="fill:#802D40;" d="M151.78,69.242c-3.005-0.004-5.794-1.562-7.373-4.118c-1.579-2.557-1.723-5.748-0.381-8.437
			c1.127-2.254,28.03-55.208,65.691-56.653c19.801-0.775,37.78,12.267,53.648,38.712c2.467,4.109,1.135,9.44-2.975,11.907
			c-4.109,2.467-9.44,1.135-11.907-2.975c-12.36-20.593-25.047-30.877-38.081-30.301c-22.754,0.852-44.424,34.271-50.856,47.076
			C158.072,67.391,155.066,69.244,151.78,69.242z"/>
		<path style="fill:#802D40;" d="M360.068,69.242c-3.287,0.004-6.294-1.85-7.767-4.788c-6.432-12.805-28.102-46.225-50.856-47.076
			c-12.886-0.492-25.72,9.708-38.081,30.301c-2.467,4.109-7.797,5.441-11.907,2.975c-4.109-2.467-5.441-7.797-2.975-11.907
			c15.864-26.445,33.885-39.513,53.648-38.712c37.661,1.445,64.564,54.398,65.691,56.653c1.342,2.689,1.198,5.88-0.381,8.437
			C365.862,67.681,363.073,69.239,360.068,69.242z"/>
	</g>
	<path style="fill:#2C3E50;" d="M195.178,147.348c0-4.793-3.885-8.678-8.678-8.678s-8.678,3.885-8.678,8.678
		c-4.793,0-8.678,3.885-8.678,8.678c0,4.793,3.885,8.678,8.678,8.678c0,4.793,3.885,8.678,8.678,8.678s8.678-3.885,8.678-8.678
		c4.793,0,8.678-3.885,8.678-8.678C203.856,151.234,199.971,147.348,195.178,147.348z"/>
	<circle style="fill:#FFFFFF;" cx="325.348" cy="156.026" r="43.39"/>
	<g>
		<path style="fill:#2C3E50;" d="M334.026,147.348c0-4.793-3.885-8.678-8.678-8.678s-8.678,3.885-8.678,8.678
			c-4.793,0-8.678,3.885-8.678,8.678c0,4.793,3.885,8.678,8.678,8.678c0,4.793,3.885,8.678,8.678,8.678s8.678-3.885,8.678-8.678
			c4.793,0,8.678-3.885,8.678-8.678C342.704,151.234,338.818,147.348,334.026,147.348z"/>
		<path style="fill:#2C3E50;" d="M371.632,242.878c-2.112-0.795-4.457-0.698-6.497,0.266s-3.602,2.716-4.329,4.852
			c-0.025,0.042-2.589,4.428-14.449,9.131l-0.04,0.026l-0.04,0.007c-17.939,6.281-36.725,9.815-55.72,10.483l-0.027,0.007
			l-0.027-0.003c-10.411,0.789-22.047,1.191-34.577,1.191c-11.746,0-23.097-0.352-33.758-1.047c-0.094-0.016-0.182,0.03-0.275,0.016
			c-0.21-0.03-0.383-0.15-0.598-0.165c-18.995-0.668-37.781-4.202-55.72-10.483l-0.04-0.007l-0.04-0.026
			c-5.344-1.606-10.209-4.506-14.165-8.441c-1.536-4.535-6.454-6.969-10.991-5.441c-4.537,1.529-6.979,6.443-5.458,10.983
			c0.85,2.543,5.1,11.418,24.118,18.994l0.009,0.006l0.02,0.007l0.061,0.027l0.038,0.007c2.909,1.185,6.104,2.27,9.473,3.293
			c16.653,4.641,33.764,7.443,51.027,8.356c0.17,0.021,0.31,0.115,0.483,0.127c11.309,0.762,23.36,1.148,35.818,1.148
			c12.921,0,24.952-0.418,35.77-1.235l0.065-0.002l0.045-0.004l0.01-0.001l0.002-0.001c17.401-0.9,34.651-3.714,51.436-8.39
			c3.369-1.023,6.564-2.108,9.473-3.293l0.038-0.007l0.061-0.027l0.02-0.007l0.009-0.006c19.018-7.576,23.268-16.452,24.118-18.994
			C378.549,249.625,376.185,244.598,371.632,242.878z"/>
	</g>
</g>
<g>
</g>
<g>
</g>
<g>
</g>
<g>
</g>
<g>
</g>
<g>
</g>
<g>
</g>
<g>
</g>
<g>
</g>
<g>
</g>
<g>
</g>
<g>
</g>
<g>
</g>
<g>
</g>
<g>
</g>
</svg>
