<svg height="512" viewBox="0 0 58 58" width="512" xmlns="http://www.w3.org/2000/svg"><g id="Page-1" fill="none" fill-rule="evenodd"><g id="036---Crying-Laughter" fill-rule="nonzero"><path id="Shape" d="m47.28 8.79c-4.98-5.19-11.35-8.79-18.28-8.79s-13.3 3.6-18.28 8.79l-6.68 9.35c-2.49047144 4.5691376-3.87421504 9.658848-4.04 14.86 0 13.81 12.98 25 29 25s29-11.19 29-25c-.165785-5.201152-1.5495286-10.2908624-4.04-14.86z" fill="#955ba5"/><path id="Shape" d="m12.44 13.15c-.2413142.7875836-.5630074 1.548254-.96 2.27-1.76 3.21-4.36 3.95-5.89 4.58-4.03-3.83-3.99-9.75-3.11-14.35.12381844-.65994332.57652353-1.21073451 1.2-1.46.92824377-.42458806 2.02721091-.13097088 2.62.7 1.70903616 2.28021583 4.0334209 4.02523899 6.7 5.03.31.14-.49 3-.56 3.23z" fill="#f9eab0"/><path id="Shape" d="m52.48 20c4.027-3.834 3.989-9.751 3.116-14.355-.1944965-.81656597-.8476292-1.44452107-1.6712067-1.60678326-.8235774-.1622622-1.6660939.17101835-2.1557933.85278326-1.7098501 2.28009711-4.033884 4.02589743-6.7 5.033-.313.132.492 2.994.565 3.225 1.622 5.176 5.006 6.087 6.846 6.851z" fill="#f9eab0"/><path id="Shape" d="m13.509 25.13c-.3609358-.0001374-.6937891-.1947651-.8709189-.5092482-.1771299-.3144832-.1710459-.7000143.0159189-1.0087518 2.559-4.222 6.775-4.959 9.62-4.924-2.191601-1.4367573-4.8448175-1.9931863-7.429-1.558-.5417913.1076955-1.0683044-.2442087-1.176-.786-.1076955-.5417913.2442087-1.0683045.786-1.176.294-.059 7.252-1.376 11.354 4.253.250913.3434635.2570978.8080642.0154166 1.1580853-.2416812.350021-.6783322.5088541-1.0884166.3959147-.284-.077-7.044-1.817-10.371 3.673-.1813131.299405-.5059746.4822168-.856.482z" fill="#3d324c"/><path id="Shape" d="m44.491 25.13c-.3500254.0002168-.6746869-.182595-.856-.482-3.342-5.516-10.3-3.693-10.371-3.673-.4100844.1129394-.8467354-.0458937-1.0884166-.3959147-.2416812-.3500211-.2354964-.8146218.0154166-1.1580853 4.1-5.627 11.06-4.312 11.354-4.253.5417913.1079717.8934716.6347087.7855 1.1765-.1079717.5417913-.6347087.8934716-1.1765.7855-2.5838584-.4349256-5.2366688.1214932-7.428 1.558 2.849-.036 7.061.7 9.62 4.924.1869648.3087375.1930488.6942686.0159189 1.0087518-.1771298.3144831-.5099831.5091108-.8709189.5092482z" fill="#3d324c"/><path id="Shape" d="m43.945 29c.2811919-.0010911.5498495.1162574.7401348.3232879.1902853.2070304.2846124.4846091.2598652.7647121-.325 3.751-2.412 15.912-15.945 15.912s-15.62-12.161-15.941-15.912c-.0247472-.280103.0695799-.5576817.2598652-.7647121.1902853-.2070305.4589429-.324379.7401348-.3232879z" fill="#802d40"/><path id="Shape" d="m18.57 29 2.56 4.48c.1775612.3133105.509873.5069483.87.5069483s.6924388-.1936378.87-.5069483l2.56-4.48z" fill="#ecf0f1"/><path id="Shape" d="m32.57 29 2.56 4.48c.1775612.3133105.509873.5069483.87.5069483s.6924388-.1936378.87-.5069483l2.56-4.48z" fill="#ecf0f1"/><g fill="#894b9d"><path id="Shape" d="m8 39c-.00213131 2.7573219-1.88326566 5.1582434-4.56 5.82-2.17520051-3.4393788-3.36186473-7.4110713-3.43-11.48.63907348-.2260529 1.31212558-.3410467 1.99-.34 3.3137085 0 6 2.6862915 6 6z"/><path id="Shape" d="m57.99 33.34c-.0681353 4.0689287-1.2547995 8.0406212-3.43 11.48-2.1622781-.5171004-3.8613699-2.1874549-4.4152755-4.3405987-.5539056-2.1531437.1281878-4.4360685 1.7724941-5.9324294 1.6443064-1.4963608 3.9812417-1.9608293 6.0727814-1.2069719z"/><circle id="Oval" cx="13" cy="45" r="2"/><circle id="Oval" cx="45" cy="45" r="2"/><circle id="Oval" cx="52" cy="28" r="2"/><circle id="Oval" cx="6" cy="28" r="2"/></g><path id="Shape" d="m36.44 44.42c-2.3242947 1.0953787-4.8711409 1.6362412-7.44 1.58-2.5688591.0562412-5.1157053-.4846213-7.44-1.58 1.4104053-2.793897 4.3118085-4.5175801 7.44-4.42 3.1281915-.0975801 6.0295947 1.626103 7.44 4.42z" fill="#ff5364"/><path id="Shape" d="m12.44 13.15c-.2413142.7875836-.5630074 1.548254-.96 2.27-6.53-2.8-7.76-7.9-7.8-11.23.92824377-.42458806 2.02721091-.13097088 2.62.7 1.70903616 2.28021583 4.0334209 4.02523899 6.7 5.03.31.14-.49 3-.56 3.23z" fill="#f5efca"/><path id="Shape" d="m45.631 13.15c.2413142.7875836.5630074 1.548254.96 2.27 6.53-2.8 7.76-7.9 7.8-11.23-.9282438-.42458806-2.0272109-.13097088-2.62.7-1.7090362 2.28021583-4.0334209 4.02523899-6.7 5.03-.31.14.49 3 .56 3.23z" fill="#f5efca"/></g></g></svg>