<?xml version="1.0" encoding="iso-8859-1"?>
<!-- Generator: Adobe Illustrator 19.0.0, SVG Export Plug-In . SVG Version: 6.00 Build 0)  -->
<svg version="1.1" id="Capa_1" xmlns="http://www.w3.org/2000/svg" xmlns:xlink="http://www.w3.org/1999/xlink" x="0px" y="0px"
	 viewBox="0 0 511.997 511.997" style="enable-background:new 0 0 511.997 511.997;" xml:space="preserve">
<g>
	<path style="fill:#71C285;" d="M491.165,231.721l-62.058-35.752c-7.728-35.016-24.638-67.343-48.993-93.661
		c6.931-7.184,15.332-12.785,24.629-16.419c3.543-1.394,7.207-2.458,10.946-3.178c14.036,6.268,27.454,6.356,35.134-1.324
		c12.006-12.182,5.032-38.93-15.625-59.763C414.542,0.88,387.971-6.182,375.877,5.911c-7.592,7.68-7.592,21.186-1.324,35.399v0.088
		c-0.72,3.739-1.784,7.403-3.178,10.946c-4.105,10.716-10.773,20.263-19.421,27.807c-58.526-39.161-134.982-38.811-193.148,0.883
		h-0.088c-9.078-7.737-16.112-17.59-20.48-28.69c-1.352-3.497-2.415-7.099-3.178-10.77v-0.088
		c6.356-14.212,6.356-27.807-1.236-35.575C121.731-6.182,95.16,0.88,74.503,21.625C53.758,42.458,46.785,69.205,58.878,81.387
		c7.68,7.68,21.01,7.592,35.134,1.324c3.739,0.72,7.403,1.784,10.946,3.178c9.86,3.827,18.709,9.867,25.865,17.655l-0.088,0.088
		c-23.712,26.091-40.204,57.918-47.846,92.337l-62.058,35.752c-5.736,3.296-9.119,9.549-8.739,16.154l4.326,83.686
		c0.102,1.597,0.429,3.173,0.971,4.679c0.748,4.784,2.363,9.391,4.767,13.595c8.137,16.377,27.942,23.149,44.403,15.183
		c15.197-10.24,19.261-30.835,9.092-46.08c-5.311-9.607-14.634-16.34-25.423-18.361l-2.295-43.697L79.8,238.43
		c4.303,51.389,33.528,97.403,78.212,123.145L143.8,404.389c-2.112,6.387-2.387,13.238-0.794,19.774l5.826,23.393
		c-2.505-0.458-5.045-0.694-7.592-0.706c-29.219,0-52.966,33.545-52.966,44.756c0,11.299,23.746,20.392,52.966,20.392
		s52.966-9.092,52.966-20.392c0.002-0.924-0.117-1.844-0.353-2.737c0.514-2.541,0.453-5.165-0.177-7.68L177.256,415.6l12.888-38.753
		c42.549,15.419,89.159,15.419,131.708,0l12.888,38.753l-16.419,65.589c-0.63,2.515-0.69,5.139-0.177,7.68
		c-0.237,0.893-0.355,1.813-0.353,2.737c0,11.299,23.746,20.392,52.966,20.392s52.966-9.092,52.966-20.392
		c0-11.211-23.746-44.756-52.966-44.756c-2.546,0.012-5.087,0.248-7.592,0.706l5.826-23.393c1.593-6.536,1.318-13.387-0.794-19.774
		l-14.212-42.814c44.684-25.742,73.909-71.756,78.212-123.145l31.868,18.45l-2.295,43.697c-10.789,2.021-20.112,8.755-25.423,18.361
		c-7.429,9.604-8.604,22.647-3.013,33.425c5.591,10.778,16.932,17.328,29.062,16.785c12.129-0.543,22.84-8.079,27.446-19.313
		c2.403-4.203,4.019-8.811,4.767-13.595c0.542-1.506,0.869-3.081,0.971-4.679l4.326-83.686
		C500.284,241.271,496.902,235.017,491.165,231.721z"/>
	<path style="fill:#4C8056;" d="M415.689,82.711c-3.739,0.72-7.403,1.784-10.946,3.178c-9.297,3.635-17.698,9.236-24.629,16.419
		c-5.75,5.863-10.625,12.522-14.477,19.774c-6.671-2.995-12.72-7.218-17.832-12.447c-5.21-5.177-9.402-11.285-12.359-18.008
		c5.893-3.23,11.427-7.077,16.508-11.476c8.647-7.544,15.315-17.091,19.421-27.807c1.394-3.543,2.458-7.207,3.178-10.946
		c4.141,9.047,9.883,17.271,16.949,24.276C398.434,72.809,406.637,78.587,415.689,82.711z"/>
	<path style="fill:#14A085;" d="M194.205,491.605c0,11.299-23.746,20.392-52.966,20.392s-52.966-9.092-52.966-20.392
		c0-11.211,23.746-44.756,52.966-44.756c2.546,0.012,5.087,0.248,7.592,0.706c20.795,5.697,37.562,21.083,45.021,41.313
		C194.089,489.762,194.207,490.682,194.205,491.605z"/>
	<path style="fill:#71C285;" d="M193.852,488.869c-7.459-20.23-24.225-35.616-45.021-41.313l-5.826-23.393
		c-1.593-6.536-1.318-13.387,0.794-19.774l14.212-42.814c10.159,6.179,20.926,11.297,32.132,15.272L177.256,415.6l16.419,65.589
		C194.306,483.704,194.366,486.327,193.852,488.869z"/>
	<path style="fill:#14A085;" d="M423.723,491.605c0,11.299-23.746,20.392-52.966,20.392s-52.966-9.092-52.966-20.392
		c-0.002-0.924,0.117-1.844,0.353-2.737c7.459-20.23,24.225-35.616,45.021-41.313c2.505-0.458,5.045-0.694,7.592-0.706
		C399.976,446.849,423.723,480.394,423.723,491.605z"/>
	<path style="fill:#71C285;" d="M368.992,424.162l-5.826,23.393c-20.795,5.697-37.562,21.083-45.021,41.313
		c-0.514-2.541-0.453-5.165,0.177-7.68l16.419-65.589l-12.888-38.753c11.206-3.975,21.974-9.093,32.132-15.272l14.212,42.814
		C370.309,410.775,370.585,417.627,368.992,424.162z"/>
	<path style="fill:#24AE5F;" d="M429.107,195.969c-7.728-35.016-24.638-67.343-48.993-93.661
		c-5.75,5.863-10.625,12.522-14.477,19.774c-6.671-2.995-12.72-7.218-17.832-12.447c-5.21-5.177-9.402-11.285-12.359-18.008
		c5.893-3.23,11.427-7.077,16.508-11.476c-58.526-39.161-134.982-38.811-193.148,0.883c4.763,4.064,9.941,7.614,15.448,10.593
		c-6.036,13.508-16.806,24.341-30.279,30.455c-3.584-6.71-8.003-12.939-13.153-18.538l-0.088,0.088
		c-23.712,26.091-40.204,57.918-47.846,92.337c-2.227,10.746-3.38,21.688-3.443,32.662c0,3.266,0.088,6.533,0.353,9.799
		c4.304,51.389,33.528,97.402,78.212,123.144c10.159,6.179,20.926,11.297,32.132,15.272c42.549,15.419,89.159,15.419,131.708,0
		c11.206-3.975,21.974-9.093,32.132-15.272c44.684-25.742,73.909-71.756,78.212-123.145c0.265-3.266,0.353-6.532,0.353-9.799
		C432.497,217.656,431.344,206.714,429.107,195.969z M255.998,255.379c-43.878,0-79.448-35.57-79.448-79.448
		s35.57-79.448,79.448-79.448s79.448,35.57,79.448,79.448C335.443,219.807,299.875,255.375,255.998,255.379z"/>
	<path style="fill:#4C8056;" d="M174.255,91.627c-6.036,13.508-16.806,24.341-30.279,30.455c-3.584-6.71-8.003-12.939-13.153-18.538
		c-7.156-7.788-16.005-13.828-25.865-17.655c-3.543-1.394-7.207-2.458-10.946-3.178c9.022-4.178,17.216-9.949,24.188-17.037
		c7.007-6.968,12.716-15.129,16.861-24.099c0.763,3.671,1.826,7.273,3.178,10.77c4.368,11.099,11.402,20.953,20.48,28.69h0.088
		C163.57,85.098,168.748,88.648,174.255,91.627z"/>
	<path style="fill:#ECF0F1;" d="M255.998,96.482c-43.878,0-79.448,35.57-79.448,79.448s35.57,79.448,79.448,79.448
		s79.448-35.57,79.448-79.448C335.443,132.054,299.875,96.486,255.998,96.482z M255.998,211.418
		c-14.395,0.09-27.422-8.515-32.989-21.791c-5.567-13.276-2.574-28.598,7.58-38.803c10.154-10.205,25.461-13.274,38.764-7.774
		c13.303,5.501,21.973,18.485,21.955,32.88c0.024,9.389-3.682,18.402-10.305,25.057
		C274.382,207.643,265.387,211.395,255.998,211.418z"/>
	<g>
		<path style="fill:#2C2F38;" d="M291.309,175.931c-0.145,19.467-16.019,35.144-35.486,35.047
			c-19.467-0.097-35.184-15.931-35.135-35.399c0.048-19.467,15.844-35.223,35.311-35.223c9.404,0.022,18.412,3.786,25.037,10.461
			C287.66,157.491,291.357,166.527,291.309,175.931z"/>
		<path style="fill:#2C2F38;" d="M300.136,300.135h-88.276c-4.875,0-8.828-3.952-8.828-8.828s3.952-8.828,8.828-8.828h88.276
			c4.875,0,8.828,3.952,8.828,8.828S305.012,300.135,300.136,300.135z"/>
		<path style="fill:#2C2F38;" d="M264.826,335.445h-17.655c-4.875,0-8.828-3.952-8.828-8.828s3.952-8.828,8.828-8.828h17.655
			c4.875,0,8.828,3.952,8.828,8.828S269.701,335.445,264.826,335.445z"/>
	</g>
</g>
<g>
</g>
<g>
</g>
<g>
</g>
<g>
</g>
<g>
</g>
<g>
</g>
<g>
</g>
<g>
</g>
<g>
</g>
<g>
</g>
<g>
</g>
<g>
</g>
<g>
</g>
<g>
</g>
<g>
</g>
</svg>
