<?xml version="1.0" encoding="iso-8859-1"?>
<!-- Generator: Adobe Illustrator 19.0.0, SVG Export Plug-In . SVG Version: 6.00 Build 0)  -->
<svg version="1.1" id="Capa_1" xmlns="http://www.w3.org/2000/svg" xmlns:xlink="http://www.w3.org/1999/xlink" x="0px" y="0px"
	 viewBox="0 0 512 512" style="enable-background:new 0 0 512 512;" xml:space="preserve">
<g>
	<path style="fill:#67B9CC;" d="M85.333,307.165c18.688,0.171,41.728,2.133,54.955,17.067c3.931,4.279,6.331,9.741,6.827,15.531
		c0.293,3.281-0.617,6.556-2.56,9.216c-6.059,7.424-23.211,7.765-31.915,9.557c-11.947,2.475-24.064,4.949-35.84,8.363
		c-10.762,3.347-21.929,5.213-33.195,5.547"/>
	<path style="fill:#7D6599;" d="M503.467,332.765c0,19.797-5.12,39.68-35.072,39.68c-0.918,25.543-4.697,50.903-11.264,75.605
		c-7.933,27.538-32.325,47.113-60.928,48.896c-38.912,2.475-105.387,6.485-140.203,6.485c-34.816,0-101.291-4.011-140.203-6.485
		c-28.603-1.783-52.995-21.358-60.928-48.896c-6.567-24.702-10.346-50.062-11.264-75.605c-29.952,0-35.072-19.883-35.072-39.68
		c0-20.395,37.803-62.208,53.248-78.592l0.085-0.085c14.507-32.341,34.56-65.28,49.067-128.683
		c10.653-47.907,44.332-87.434,89.941-105.557c35.198-15.104,75.052-15.104,110.251,0c45.609,18.123,79.288,57.65,89.941,105.557
		c14.507,63.317,34.56,96.256,49.067,128.597v0.085C465.579,270.386,503.467,312.37,503.467,332.765z"/>
	<g>
		<path style="fill:#FFFFFF;" d="M145.067,139.989c3.992,20.418,20.837,35.842,41.527,38.023
			c20.69,2.181,40.381-9.391,48.543-28.527s2.884-41.359-13.012-54.781C165.189,87.397,148.736,128.009,145.067,139.989z"/>
		<path style="fill:#FFFFFF;" d="M289.875,94.705c-16.31,13.367-21.888,35.868-13.71,55.305
			c8.178,19.437,28.164,31.183,49.124,28.869s37.903-18.136,41.644-38.889C363.264,128.009,346.811,87.397,289.875,94.705z"/>
	</g>
	<g>
		<path style="fill:#3D324C;" d="M341.333,255.965c-2.263,0.001-4.434-0.898-6.035-2.499c-1.6-1.6-2.499-3.771-2.499-6.035v-8.533
			c-0.005-4.711-3.822-8.529-8.533-8.533H187.733c-4.711,0.005-8.529,3.822-8.533,8.533v8.533c0,4.713-3.821,8.533-8.533,8.533
			c-4.713,0-8.533-3.821-8.533-8.533v-8.533c0.015-14.132,11.468-25.585,25.6-25.6h136.533c14.132,0.015,25.585,11.468,25.6,25.6
			v8.533c0.001,2.263-0.898,4.434-2.499,6.035C345.768,255.066,343.597,255.965,341.333,255.965z"/>
		<path style="fill:#3D324C;" d="M264.533,264.498h-17.067c-4.713,0-8.533-3.821-8.533-8.533c0-4.713,3.821-8.533,8.533-8.533
			h17.067c4.713,0,8.533,3.821,8.533,8.533C273.067,260.677,269.246,264.498,264.533,264.498z"/>
	</g>
	<g>
		<path style="fill:#B49ACA;" d="M512,332.765c0-21.028-29.483-56.775-54.658-83.474c-2.872-6.354-5.919-12.724-9.126-19.372
			c-17.315-33.723-30.36-69.472-38.833-106.421c-11.323-50.531-46.82-92.237-94.892-111.492c-37.367-15.964-79.635-15.961-117,0.009
			c-48.066,19.256-83.556,60.96-94.875,111.487c-8.47,36.993-21.524,72.785-38.858,106.546c-3.173,6.589-6.211,12.913-9.061,19.215
			C29.503,275.968,0,311.727,0,332.765c0,28.827,12.027,44.724,35.552,47.611c1.259,23.656,4.981,47.117,11.106,70.001
			c8.96,30.993,36.404,53.031,68.6,55.088c68.883,4.375,114.917,6.5,140.742,6.5c25.825,0,71.858-2.125,140.758-6.5
			c32.177-2.058,59.606-24.076,68.575-55.046c6.128-22.898,9.853-46.372,11.115-70.043C499.974,377.489,512,361.592,512,332.765z
			 M468.392,363.91c-10.459-0.346-20.824-2.098-30.817-5.208c-11.708-3.392-23.7-5.875-35.3-8.275l-1.192-0.25
			c-2.183-0.45-4.858-0.821-7.767-1.217c-5.85-0.8-16.742-2.283-19.209-5.304c-0.602-1.021-0.851-2.211-0.708-3.388
			c0.382-3.881,2.031-7.528,4.692-10.379c10.892-12.283,31.725-14.037,48.65-14.192c4.713-0.021,8.517-3.858,8.496-8.571
			c-0.021-4.713-3.858-8.517-8.571-8.496h-0.075c-20.467,0.188-45.925,2.621-61.283,19.958c-5.2,5.728-8.348,13.021-8.95,20.733
			c-0.399,5.395,1.193,10.75,4.475,15.05c6.775,8.304,19.75,10.075,30.183,11.496c2.475,0.338,4.758,0.642,6.608,1.021l1.192,0.246
			c11.275,2.338,22.942,4.75,34.042,7.971c8.656,2.547,17.518,4.334,26.484,5.341c-1.217,22.058-4.708,43.931-10.418,65.272
			c-6.974,24.044-28.282,41.129-53.267,42.712c-25.184,1.6-101.825,6.467-139.658,6.467s-114.475-4.867-139.642-6.467
			c-25.005-1.581-46.327-18.687-53.292-42.754c-5.706-21.327-9.194-43.187-10.409-65.231c8.978-1.009,17.851-2.8,26.518-5.353
			c11.067-3.209,22.733-5.621,34.008-7.958l1.183-0.242c1.858-0.383,4.142-0.687,6.617-1.025
			c10.433-1.421,23.408-3.191,30.242-11.571c3.259-4.308,4.828-9.66,4.408-15.046c-0.612-7.695-3.763-14.969-8.958-20.679
			c-15.342-17.321-40.8-19.754-61.267-19.942h-0.075c-4.713-0.021-8.55,3.783-8.571,8.496c-0.021,4.713,3.783,8.55,8.496,8.571
			c16.925,0.154,37.758,1.908,48.633,14.175c2.656,2.833,4.308,6.461,4.7,10.325c0.151,1.167-0.074,2.352-0.642,3.383
			c-2.525,3.096-13.417,4.579-19.267,5.379c-2.908,0.396-5.583,0.767-7.775,1.221l-1.183,0.242
			c-11.6,2.404-23.592,4.887-35.267,8.267c-10.002,3.117-20.379,4.873-30.85,5.221c-19.35,0-26.542-8.442-26.542-31.146
			c0-11.526,20.005-40.091,50.964-72.783l0.019-0.013c0.667-0.699,1.208-1.509,1.6-2.392c2.958-6.592,6.15-13.212,9.483-20.117
			c17.908-34.901,31.385-71.903,40.117-110.146c10.193-45.18,41.982-82.442,84.992-99.625c33.053-14.126,70.444-14.129,103.5-0.009
			c43.016,17.182,74.811,54.445,85.008,99.629c8.735,38.2,22.206,75.159,40.1,110.021c3.225,6.7,6.333,13.133,9.217,19.533
			c0.024,0.07,0.077,0.125,0.103,0.194c0.12,0.257,0.253,0.508,0.399,0.752c0.299,0.628,0.676,1.215,1.121,1.749
			c0.102,0.119,0.142,0.278,0.252,0.393c30.975,32.704,50.991,61.283,50.991,72.812C494.933,355.469,487.742,363.91,468.392,363.91z
			"/>
		<circle style="fill:#B49ACA;" cx="174.933" cy="430.898" r="29.867"/>
		<circle style="fill:#B49ACA;" cx="285.867" cy="371.165" r="46.933"/>
		<circle style="fill:#B49ACA;" cx="371.2" cy="430.898" r="21.333"/>
		<circle style="fill:#B49ACA;" cx="196.267" cy="307.165" r="17.067"/>
		<circle style="fill:#B49ACA;" cx="93.867" cy="409.565" r="17.067"/>
	</g>
	<g>
		<path style="fill:#2C2F38;" d="M196.267,145.031h-8.533c-4.713,0-8.533-3.821-8.533-8.533c0-4.713,3.821-8.533,8.533-8.533h8.533
			c4.713,0,8.533,3.821,8.533,8.533C204.8,141.211,200.98,145.031,196.267,145.031z"/>
		<path style="fill:#2C2F38;" d="M324.267,145.031h-8.533c-4.713,0-8.533-3.821-8.533-8.533c0-4.713,3.821-8.533,8.533-8.533h8.533
			c4.713,0,8.533,3.821,8.533,8.533C332.8,141.211,328.98,145.031,324.267,145.031z"/>
	</g>
	<path style="fill:#B49ACA;" d="M315.733,490.631c0.016,0.797-0.013,1.595-0.085,2.389c-22.272,1.024-44.203,1.877-59.648,1.877
		c-4.949,0-10.667-0.085-16.811-0.171c-0.17-1.359-0.256-2.727-0.256-4.096c0-21.208,17.192-38.4,38.4-38.4
		C298.541,452.231,315.733,469.423,315.733,490.631z"/>
</g>
<g>
</g>
<g>
</g>
<g>
</g>
<g>
</g>
<g>
</g>
<g>
</g>
<g>
</g>
<g>
</g>
<g>
</g>
<g>
</g>
<g>
</g>
<g>
</g>
<g>
</g>
<g>
</g>
<g>
</g>
</svg>
