<?xml version="1.0" encoding="iso-8859-1"?>
<!-- Generator: Adobe Illustrator 19.0.0, SVG Export Plug-In . SVG Version: 6.00 Build 0)  -->
<svg version="1.1" id="Capa_1" xmlns="http://www.w3.org/2000/svg" xmlns:xlink="http://www.w3.org/1999/xlink" x="0px" y="0px"
	 viewBox="0 0 512 512" style="enable-background:new 0 0 512 512;" xml:space="preserve">
<path style="fill:#FF7B59;" d="M128.72,172.72c-3.838,0-7.676-1.465-10.605-4.395l-61.509-61.509
	c-5.859-5.859-5.859-15.352,0-21.211s15.352-5.859,21.211,0l61.509,61.509c5.859,5.859,5.859,15.352,0,21.211
	C136.396,171.255,132.558,172.72,128.72,172.72z"/>
<g>
	<path style="fill:#FF2299;" d="M383.28,172.72c-3.838,0-7.676-1.465-10.605-4.395c-5.859-5.859-5.859-15.352,0-21.211
		l61.509-61.509c5.859-5.859,15.352-5.859,21.211,0s5.859,15.352,0,21.211l-61.509,61.509
		C390.956,171.255,387.118,172.72,383.28,172.72z"/>
	<path style="fill:#FF2299;" d="M353.2,116.1H158.8C98.5,150.599,61,215.4,61,285v182c0,3.9,1.5,7.8,4.501,10.499l30,30
		c5.7,6,15.298,6,20.999,0l19.501-19.2l19.501,19.2c5.7,6,15.298,6,20.999,0l19.501-19.2l19.501,19.2c5.7,6,15.298,6,20.999,0
		l19.501-19.2l19.501,19.2c5.7,6,15.298,6,20.999,0l19.501-19.2l19.501,19.2c5.7,6,15.298,6,20.999,0l19.501-19.2l19.501,19.2
		C398.2,510.5,402.1,512,406,512s7.8-1.5,10.499-4.501l30-30C449.5,474.8,451,470.9,451,467V285
		C451,215.4,413.5,150.599,353.2,116.1z"/>
</g>
<path style="fill:#CF3EA4;" d="M451,285v182c0,3.9-1.5,7.8-4.501,10.499l-30,30C413.8,510.5,409.9,512,406,512
	s-7.8-1.5-10.499-4.501L376,488.299l-19.501,19.2c-5.7,6-15.298,6-20.999,0l-19.5-19.2l-19.501,19.2c-5.7,6-15.298,6-20.999,0
	l-19.5-19.2V116.1h97.2C413.5,150.599,451,215.4,451,285z"/>
<path style="fill:#FFAC56;" d="M316,240H196c-41.4,0-75,33.6-75,75s33.6,75,75,75h120c41.4,0,75-33.6,75-75S357.4,240,316,240z"/>
<path style="fill:#FF7B59;" d="M391,315c0,41.4-33.6,75-75,75h-60V240h60C357.4,240,391,273.6,391,315z"/>
<path style="fill:#009AF2;" d="M316,270H196c-24.901,0-45,20.099-45,45c0,24.899,20.099,45,45,45h120c24.901,0,45-20.101,45-45
	C361,290.099,340.901,270,316,270z"/>
<path style="fill:#00497B;" d="M361,315c0,24.899-20.099,45-45,45h-60v-90h60C340.901,270,361,290.099,361,315z"/>
<path style="fill:#FF2299;" d="M46,120C21.186,120,0,99.814,0,75s21.186-45,46-45s45,20.186,45,45S70.814,120,46,120z"/>
<path style="fill:#CF3EA4;" d="M466,120c-24.814,0-45-20.186-45-45s20.186-45,45-45s46,20.186,46,45S490.814,120,466,120z"/>
<g>
	<path style="fill:#FFAC56;" d="M196,300c-8.291,0-15-6.709-15-15v-30c0-8.291,6.709-15,15-15s15,6.709,15,15v30
		C211,293.291,204.291,300,196,300z"/>
	<path style="fill:#FFAC56;" d="M196,390c-8.291,0-15-6.709-15-15v-30c0-8.291,6.709-15,15-15s15,6.709,15,15v30
		C211,383.291,204.291,390,196,390z"/>
	<path style="fill:#FFAC56;" d="M271,345v30c0,8.399-6.599,15-15,15s-15-6.601-15-15v-30c0-8.401,6.599-15,15-15
		S271,336.599,271,345z"/>
	<path style="fill:#FFAC56;" d="M271,255v30c0,8.399-6.599,15-15,15s-15-6.601-15-15v-30c0-8.401,6.599-15,15-15
		S271,246.599,271,255z"/>
</g>
<g>
	<path style="fill:#FF7B59;" d="M316,300c-8.291,0-15-6.709-15-15v-30c0-8.291,6.709-15,15-15s15,6.709,15,15v30
		C331,293.291,324.291,300,316,300z"/>
	<path style="fill:#FF7B59;" d="M316,390c-8.291,0-15-6.709-15-15v-30c0-8.291,6.709-15,15-15s15,6.709,15,15v30
		C331,383.291,324.291,390,316,390z"/>
	<path style="fill:#FF7B59;" d="M271,255v30c0,8.399-6.599,15-15,15v-60C264.401,240,271,246.599,271,255z"/>
	<path style="fill:#FF7B59;" d="M271,345v30c0,8.399-6.599,15-15,15v-60C264.401,330,271,336.599,271,345z"/>
</g>
<path style="fill:#8DF4FF;" d="M256,0c-57.9,0-105,47.1-105,105s47.1,105,105,105s105-47.1,105-105S313.9,0,256,0z"/>
<g>
	<path style="fill:#00E0FF;" d="M361,105c0,57.9-47.1,105-105,105V0C313.9,0,361,47.1,361,105z"/>
	<path style="fill:#00E0FF;" d="M256,60c-24.901,0-45,20.099-45,45c0,24.899,20.099,45,45,45s45-20.101,45-45
		C301,80.099,280.901,60,256,60z"/>
</g>
<g>
	<path style="fill:#009AF2;" d="M301,105c0,24.899-20.099,45-45,45V60C280.901,60,301,80.099,301,105z"/>
	<path style="fill:#009AF2;" d="M256,90c-8.401,0-15,6.599-15,15c0,8.399,6.599,15,15,15s15-6.601,15-15
		C271,96.599,264.401,90,256,90z"/>
</g>
<path style="fill:#00345A;" d="M271,105c0,8.399-6.599,15-15,15V90C264.401,90,271,96.599,271,105z"/>
<g>
</g>
<g>
</g>
<g>
</g>
<g>
</g>
<g>
</g>
<g>
</g>
<g>
</g>
<g>
</g>
<g>
</g>
<g>
</g>
<g>
</g>
<g>
</g>
<g>
</g>
<g>
</g>
<g>
</g>
</svg>
