<?xml version="1.0" encoding="iso-8859-1"?>
<!-- Generator: Adobe Illustrator 19.0.0, SVG Export Plug-In . SVG Version: 6.00 Build 0)  -->
<svg version="1.1" id="Capa_1" xmlns="http://www.w3.org/2000/svg" xmlns:xlink="http://www.w3.org/1999/xlink" x="0px" y="0px"
	 viewBox="0 0 512.008 512.008" style="enable-background:new 0 0 512.008 512.008;" xml:space="preserve">
<g>
	<g>
		<path style="fill:#4482C3;" d="M423.728,397.241c0,0,22.843,77.357-9.26,108.338c-4.721,4.287-10.914,6.587-17.289,6.42h-70.554
			c0,0-26.483,0-17.655-61.793H203.039C211.866,512,185.384,512,185.384,512h-70.554c-6.375,0.167-12.568-2.133-17.289-6.42
			c-32.103-30.982-9.26-108.338-9.26-108.338H423.728z"/>
		<path style="fill:#4482C3;" d="M88.28,273.655c-35.704,20.573-75.641,54.219-79.289,98.723
			c-0.813,9.919,1.319,24.661,10.223,30.777c7.538,3.943,16.473,4.189,24.216,0.667c17.501-6.461,31.133-20.919,44.849-33.064
			V273.655z"/>
		<path style="fill:#4482C3;" d="M423.728,273.655c35.704,20.573,75.641,54.219,79.289,98.723
			c0.813,9.919-1.319,24.661-10.223,30.777c-7.538,3.943-16.473,4.189-24.216,0.667c-17.501-6.461-31.133-20.919-44.849-33.064
			V273.655z"/>
	</g>
	<path style="fill:#285680;" d="M142.217,212.303c-35.746,3.985-62.779,34.212-62.764,70.179v79.448
		c0.018,48.746,39.53,88.258,88.276,88.276H344.28c48.746-0.018,88.258-39.53,88.276-88.276v-79.448
		c0.015-35.968-27.018-66.194-62.764-70.179l-66.295-0.441h-94.985L142.217,212.303z"/>
	<path style="fill:#4482C3;" d="M215.989,224.027c-22.074-29.786-21.169-69.948-17.629-94.879l-55.172,10.328
		c6.896,28.918,4.956,59.239-5.57,87.042c-0.999,2.704-0.608,5.726,1.047,8.086c1.655,2.36,4.363,3.758,7.245,3.74h63.187
		c3.376-0.026,6.443-1.97,7.907-5.011S218.074,226.682,215.989,224.027z"/>
	<circle style="fill:#285680;" cx="158.901" cy="70.621" r="70.621"/>
	<circle style="fill:#FFFFFF;" cx="158.901" cy="70.621" r="35.31"/>
	<path style="fill:#4482C3;" d="M296.02,224.027c22.074-29.786,21.169-69.948,17.629-94.879l55.172,10.328
		c-6.896,28.918-4.955,59.24,5.571,87.042c0.999,2.704,0.608,5.726-1.047,8.086c-1.655,2.36-4.363,3.758-7.245,3.74h-63.187
		c-3.376-0.026-6.443-1.97-7.907-5.011C293.541,230.292,293.934,226.682,296.02,224.027z"/>
	<circle style="fill:#285680;" cx="353.108" cy="70.621" r="70.621"/>
	<circle style="fill:#FFFFFF;" cx="353.108" cy="70.621" r="35.31"/>
	<g>
		<path style="fill:#2C2F38;" d="M158.901,79.448c-3.569-0.014-6.782-2.168-8.151-5.464c-1.369-3.297-0.626-7.093,1.883-9.631
			c0.844-0.8,1.833-1.43,2.914-1.858c1.579-0.698,3.337-0.882,5.026-0.526c0.586,0.081,1.154,0.259,1.681,0.526
			c0.562,0.194,1.095,0.462,1.586,0.797c0.44,0.353,0.888,0.707,1.328,1.06c3.414,3.481,3.414,9.054,0,12.534
			c-0.42,0.379-0.863,0.732-1.328,1.056c-0.491,0.335-1.024,0.603-1.586,0.797c-0.528,0.266-1.096,0.445-1.681,0.53
			C160.021,79.373,159.462,79.432,158.901,79.448z"/>
		<path style="fill:#2C2F38;" d="M353.108,79.448c-2.337-0.035-4.575-0.949-6.268-2.56c-0.816-0.83-1.448-1.823-1.854-2.914
			c-0.452-1.061-0.692-2.2-0.706-3.354c0.014-2.341,0.931-4.586,2.56-6.268c2.526-2.546,6.341-3.312,9.653-1.937
			s5.463,4.618,5.442,8.204c-0.014,1.153-0.254,2.293-0.707,3.353c-0.406,1.091-1.038,2.084-1.854,2.914
			C357.681,78.498,355.444,79.412,353.108,79.448z"/>
	</g>
	<path style="fill:#2C3E50;" d="M388.418,308.966v52.966h-35.31c-9.534,0.03-17.335,7.597-17.655,17.126
		c-0.32-9.528-8.121-17.096-17.655-17.126h-17.655c-9.404,0.019-17.154,7.382-17.655,16.772c-0.501-9.39-8.252-16.753-17.655-16.772
		h-17.655c-9.404,0.019-17.154,7.382-17.655,16.772c-0.501-9.39-8.252-16.753-17.655-16.772h-17.655
		c-9.739,0.028-17.627,7.916-17.655,17.655c-0.028-9.739-7.916-17.627-17.655-17.655h-35.31v-52.966h35.31
		c9.534-0.03,17.335-7.597,17.655-17.126c0.32,9.528,8.121,17.096,17.655,17.126h17.655c9.739-0.029,17.627-7.916,17.655-17.655
		c0.029,9.739,7.916,17.627,17.655,17.655h17.655c9.739-0.029,17.626-7.916,17.655-17.655c0.029,9.739,7.916,17.627,17.655,17.655
		h17.655c9.739-0.029,17.627-7.916,17.655-17.655c0.029,9.739,7.916,17.627,17.655,17.655H388.418z"/>
	<g>
		<path style="fill:#FFFFFF;" d="M388.418,300.138l0,8.828h-35.31c-9.739-0.029-17.626-7.916-17.655-17.655v-17.655l26.483,0
			c7.027-0.009,13.768,2.778,18.736,7.746C385.64,286.37,388.427,293.111,388.418,300.138z"/>
		<path style="fill:#FFFFFF;" d="M176.556,379.586v17.655l-26.483,0c-7.027,0.009-13.768-2.778-18.736-7.746
			c-4.969-4.969-7.756-11.71-7.746-18.737l0-8.828h35.31C168.64,361.96,176.527,369.847,176.556,379.586z"/>
		<path style="fill:#FFFFFF;" d="M176.556,273.655v18.185c-0.32,9.528-8.121,17.096-17.655,17.126h-35.31l0-8.828
			c-0.009-7.027,2.778-13.768,7.746-18.736c4.969-4.969,11.71-7.756,18.736-7.746L176.556,273.655z"/>
		<path style="fill:#FFFFFF;" d="M229.521,273.655v17.655c-0.029,9.739-7.916,17.627-17.655,17.655h-17.655
			c-9.534-0.03-17.335-7.597-17.655-17.126v-18.185H229.521z"/>
		<path style="fill:#FFFFFF;" d="M335.453,273.655v17.655c-0.029,9.739-7.916,17.627-17.655,17.655h-17.655
			c-9.739-0.029-17.626-7.916-17.655-17.655v-17.655H335.453z"/>
		<path style="fill:#FFFFFF;" d="M282.487,273.655v17.655c-0.029,9.739-7.916,17.627-17.655,17.655h-17.655
			c-9.739-0.029-17.627-7.916-17.655-17.655v-17.655H282.487z"/>
		<path style="fill:#FFFFFF;" d="M229.521,378.703v18.538h-52.966v-17.655c0.028-9.739,7.916-17.627,17.655-17.655h17.655
			C221.27,361.95,229.02,369.313,229.521,378.703z"/>
		<path style="fill:#FFFFFF;" d="M388.418,361.931l0,8.828c0.009,7.027-2.778,13.768-7.746,18.737s-11.71,7.756-18.736,7.746
			l-26.483,0v-18.185c0.32-9.528,8.121-17.096,17.655-17.126H388.418z"/>
		<path style="fill:#FFFFFF;" d="M335.453,379.057v18.185h-52.966v-18.538c0.501-9.39,8.252-16.753,17.655-16.772h17.655
			C327.331,361.961,335.133,369.528,335.453,379.057z"/>
		<path style="fill:#FFFFFF;" d="M282.487,378.703v18.538h-52.965v-18.538c0.501-9.39,8.252-16.753,17.655-16.772h17.655
			C274.235,361.95,281.986,369.313,282.487,378.703z"/>
	</g>
</g>
<g>
</g>
<g>
</g>
<g>
</g>
<g>
</g>
<g>
</g>
<g>
</g>
<g>
</g>
<g>
</g>
<g>
</g>
<g>
</g>
<g>
</g>
<g>
</g>
<g>
</g>
<g>
</g>
<g>
</g>
</svg>
