<?xml version="1.0" encoding="iso-8859-1"?>
<!-- Generator: Adobe Illustrator 19.0.0, SVG Export Plug-In . SVG Version: 6.00 Build 0)  -->
<svg version="1.1" id="Capa_1" xmlns="http://www.w3.org/2000/svg" xmlns:xlink="http://www.w3.org/1999/xlink" x="0px" y="0px"
	 viewBox="0 0 511.979 511.979" style="enable-background:new 0 0 511.979 511.979;" xml:space="preserve">
<g>
	<path style="fill:#67B9CC;" d="M504.575,353.689c-2.207-6.091-4.679-12.094-7.238-18.008c-0.441-1.059-0.883-2.119-1.324-3.09
		c-8.979-22.209-21.599-42.765-37.341-60.822c-9.02-9.773-19.051-18.562-29.926-26.218c-0.217-12.106-1.368-24.176-3.443-36.105
		c-9.27-55.349-19.509-128.088-54.555-169.666c-15.801-18.714-53.76-30.014-81.743-36.017c-21.752-4.767-44.278-4.767-66.03,0
		c-27.983,6.003-65.942,17.302-81.743,36.017c-35.046,41.578-45.286,114.317-54.554,169.666
		c-2.075,11.928-3.226,23.999-3.443,36.105c-10.875,7.656-20.906,16.445-29.926,26.218c-15.741,18.057-28.361,38.613-37.341,60.822
		c-0.441,0.971-0.883,2.03-1.324,3.09c-2.56,5.914-5.032,11.917-7.239,18.008c-8.474,22.775-12.447,51.906,3.531,72.474
		c5.032,6.532,15.183,15.272,24.099,14.124c1.839-0.225,3.611-0.826,5.208-1.766c-15.713-10.946-16.772-43.697-16.684-54.113
		c0.052-4.839,3.988-8.736,8.828-8.74h0.088c2.335-0.005,4.574,0.927,6.216,2.586c1.643,1.659,2.551,3.907,2.523,6.242
		c-0.088,18.891,4.502,37.959,9.71,39.901c0.959,0.337,1.833,0.879,2.56,1.589c1.589-2.119,3.09-4.149,4.326-5.826
		c5.598-6.568,9.021-14.71,9.799-23.305c-0.498-7.903-1.62-15.754-3.354-23.481c-0.868-8.274-0.898-16.614-0.088-24.894
		c1.325-21.22,9.538-41.428,23.393-57.556c4.159,19.4,12.671,37.602,24.894,53.23c1.825,2.525,3.832,4.915,6.003,7.15
		c-1.501,2.383-2.913,4.855-4.414,7.415c-22.461,38.421-34.396,82.084-34.604,126.588c0.582,5.576,3.888,10.502,8.828,13.153
		c2.958,2.012,6.125,3.699,9.446,5.032c11.037,4.35,22.679,6.97,34.516,7.768c1.501,0.088,3.178,0.177,4.767,0.265
		c2.737,0.177,5.561,0.265,8.386,0.265h1.677c1.501,0,3.001-0.088,4.502-0.088c8.367-0.305,16.694-1.309,24.894-3.001
		c2.383-0.441,4.767-1.059,6.974-1.677c6.814-1.729,13.31-4.53,19.244-8.298c1.053-0.694,2.056-1.461,3.001-2.295
		c3.616-2.6,5.882-6.679,6.179-11.123c-0.007-0.296-0.037-0.591-0.088-0.883c-2.353-27.95-2.825-56.026-1.412-84.039
		c29.988,7.298,61.289,7.298,91.277,0c1.41,28.013,0.939,56.089-1.412,84.039c-0.051,0.292-0.081,0.587-0.088,0.883
		c0.297,4.444,2.563,8.523,6.179,11.123c0.945,0.835,1.948,1.601,3.001,2.295c5.934,3.768,12.43,6.569,19.244,8.298
		c2.207,0.618,4.59,1.236,6.974,1.677c8.2,1.693,16.527,2.697,24.894,3.001c1.501,0,3.001,0.088,4.502,0.088h1.677
		c2.825,0,5.65-0.088,8.386-0.265c1.589-0.088,3.266-0.177,4.767-0.265c11.836-0.798,23.479-3.418,34.516-7.768
		c3.32-1.332,6.487-3.019,9.445-5.031c4.94-2.651,8.245-7.577,8.828-13.153c-0.208-44.504-12.143-88.167-34.604-126.588
		c-1.501-2.56-2.913-5.032-4.414-7.415c2.171-2.235,4.177-4.625,6.003-7.15c12.223-15.629,20.735-33.83,24.894-53.23
		c13.855,16.127,22.068,36.336,23.393,57.556c0.81,8.28,0.78,16.62-0.088,24.894c-1.734,7.727-2.856,15.578-3.354,23.481
		c0.778,8.595,4.201,16.737,9.799,23.305c1.236,1.677,2.737,3.708,4.326,5.826c0.727-0.71,1.601-1.252,2.56-1.589
		c5.65-2.119,9.799-23.217,9.71-39.901c-0.028-2.334,0.881-4.583,2.523-6.242s3.882-2.59,6.216-2.586h0.088
		c4.839,0.004,8.775,3.9,8.828,8.74c0.088,10.417-0.971,43.166-16.684,54.113c1.597,0.939,3.37,1.54,5.208,1.766
		c8.916,1.148,19.068-7.592,24.099-14.124C517.021,405.595,513.049,376.464,504.575,353.689z M124.9,357.838
		c0.187,0.198,0.394,0.375,0.618,0.53c0.088,0.177,0.177,0.265,0.265,0.265c0.272,0.289,0.567,0.554,0.883,0.794
		c0.088,0.177,0.177,0.265,0.265,0.265l0.088,0.088c2.346,2.234,4.822,4.327,7.415,6.268c1.686,1.372,3.424,2.655,5.195,3.911
		c-5.407-3.782-10.508-7.982-15.258-12.562h0.177C124.635,357.573,124.812,357.662,124.9,357.838z M144.415,373.145
		c0.712,0.454,1.381,0.929,2.112,1.377c2.737,1.677,5.561,3.266,8.474,4.855C151.298,377.428,147.809,375.323,144.415,373.145
		L144.415,373.145z"/>
	<circle style="fill:#FFFFFF;" cx="255.99" cy="88.067" r="52.966"/>
	<circle style="fill:#2C2F38;" cx="255.99" cy="88.067" r="17.655"/>
	<circle style="fill:#FFFFFF;" cx="255.99" cy="229.308" r="52.966"/>
	<circle style="fill:#2C2F38;" cx="255.99" cy="229.308" r="17.655"/>
	<g>
		<path style="fill:#FFFFFF;" d="M331.73,325.441l-7.503,20.657c-1.523,3.199-4.59,5.384-8.111,5.779
			c-3.521,0.395-6.996-1.056-9.191-3.837l-25.159-30.455C298.612,318.793,315.326,321.421,331.73,325.441z"/>
		<path style="fill:#FFFFFF;" d="M230.213,317.584l-25.159,30.455c-2.195,2.781-5.67,4.232-9.191,3.837
			c-3.521-0.395-6.588-2.581-8.111-5.779l-7.503-20.657C196.653,321.421,213.367,318.793,230.213,317.584z"/>
	</g>
	<g>
		<path style="fill:#41767F;" d="M64.255,373.375c1.734,7.727,2.856,15.578,3.354,23.481c-0.778,8.595-4.201,16.737-9.799,23.305
			c-1.236,1.677-2.737,3.708-4.326,5.826c-0.727-0.71-1.601-1.252-2.56-1.589c-5.208-1.942-9.799-21.01-9.71-39.901
			c0.028-2.334-0.881-4.583-2.523-6.242c-1.643-1.659-3.882-2.59-6.216-2.586h-0.088c-4.84,0.004-8.775,3.9-8.828,8.74
			c-0.088,10.416,0.971,43.166,16.684,54.113c-1.597,0.939-3.37,1.54-5.208,1.766c-8.915,1.148-19.068-7.592-24.099-14.124
			c-15.978-20.568-12.006-49.699-3.531-72.474c2.207-6.091,4.679-12.094,7.238-18.008c0.442-1.059,0.883-2.119,1.324-3.09
			c8.979-22.209,21.599-42.765,37.341-60.822c9.02-9.773,19.051-18.562,29.926-26.218c-0.529,15.248,0.925,30.5,4.326,45.374
			c-13.855,16.128-22.068,36.336-23.393,57.556C63.357,356.761,63.386,365.101,64.255,373.375z"/>
		<path style="fill:#41767F;" d="M501.043,426.164c-5.032,6.532-15.183,15.272-24.099,14.124c-1.839-0.225-3.611-0.826-5.208-1.766
			c15.713-10.946,16.772-43.697,16.684-54.113c-0.052-4.839-3.988-8.736-8.828-8.74h-0.088c-2.335-0.005-4.574,0.927-6.216,2.586
			c-1.643,1.659-2.551,3.907-2.523,6.242c0.088,16.684-4.061,37.782-9.71,39.901c-0.959,0.337-1.833,0.879-2.56,1.589
			c-1.589-2.119-3.09-4.149-4.326-5.826c-5.598-6.568-9.021-14.71-9.799-23.305c0.498-7.903,1.62-15.754,3.354-23.481
			c0.868-8.274,0.898-16.614,0.088-24.894c-1.325-21.22-9.538-41.428-23.393-57.556c3.401-14.873,4.855-30.126,4.326-45.374
			c10.875,7.656,20.906,16.445,29.926,26.218c15.741,18.057,28.361,38.613,37.341,60.822c0.441,0.971,0.883,2.03,1.324,3.09
			c2.56,5.914,5.031,11.917,7.238,18.008C513.049,376.464,517.021,405.595,501.043,426.164z"/>
		<path style="fill:#41767F;" d="M211.852,485.308c-0.297,4.444-2.563,8.523-6.179,11.123c-0.945,0.835-1.948,1.601-3.001,2.295
			c-2.206-13.623-14.506-23.267-28.262-22.159c-13.756,1.108-24.354,12.596-24.351,26.397c-0.005,2.978,0.503,5.934,1.501,8.739
			c-1.501,0-3.001,0.088-4.502,0.088c1.997-4.127,3.024-8.656,3.001-13.241c0.016-11.038-5.859-21.246-15.41-26.779
			c-9.552-5.533-21.329-5.55-30.897-0.044s-15.471,15.697-15.486,26.735c-4.94-2.651-8.245-7.577-8.828-13.153
			c0.208-44.504,12.143-88.167,34.604-126.588c1.501-2.56,2.913-5.032,4.414-7.415c1.826,2.138,3.772,4.171,5.826,6.091h0.088
			c9.104,8.758,19.42,16.161,30.632,21.981c17.48,9.331,36.08,16.391,55.349,21.01c-1.412,28.013-0.941,56.089,1.412,84.039
			C211.815,484.717,211.844,485.012,211.852,485.308z"/>
	</g>
	<g>
		<path style="fill:#B0D3F0;" d="M150.059,498.55c0.022,4.585-1.004,9.114-3.001,13.241h-1.677c-2.824,0-5.649-0.088-8.386-0.265
			c-1.589-0.088-3.266-0.177-4.767-0.265c-11.836-0.798-23.479-3.418-34.516-7.768c-3.32-1.332-6.487-3.019-9.446-5.032
			c0.016-11.038,5.919-21.23,15.486-26.735s21.345-5.489,30.897,0.044C144.2,477.303,150.074,487.512,150.059,498.55z"/>
		<path style="fill:#B0D3F0;" d="M202.671,498.726c-5.935,3.768-12.43,6.569-19.244,8.298c-2.207,0.618-4.59,1.236-6.974,1.677
			c-8.2,1.693-16.527,2.697-24.894,3.001c-0.998-2.806-1.505-5.762-1.501-8.739c-0.003-13.8,10.595-25.288,24.351-26.396
			S200.465,485.103,202.671,498.726z"/>
	</g>
	<path style="fill:#41767F;" d="M432.541,485.308c-0.582,5.576-3.888,10.502-8.828,13.153
		c-0.024-17.064-13.877-30.877-30.941-30.852c-17.064,0.024-30.877,13.877-30.852,30.941c-0.022,4.585,1.004,9.114,3.001,13.241
		c-1.501,0-3.001-0.088-4.502-0.088c0.998-2.806,1.505-5.762,1.501-8.739c0.003-13.8-10.595-25.288-24.351-26.396
		s-26.056,8.536-28.261,22.159c-1.053-0.694-2.056-1.461-3.001-2.295c-3.616-2.6-5.882-6.679-6.179-11.123
		c0.007-0.296,0.037-0.591,0.088-0.883c2.351-27.95,2.823-56.026,1.412-84.039c19.269-4.618,37.869-11.679,55.349-21.01
		c11.212-5.82,21.528-13.223,30.632-21.981c2.104-1.897,4.08-3.932,5.915-6.091c1.501,2.383,2.913,4.855,4.414,7.415
		C420.398,397.142,432.334,440.805,432.541,485.308z"/>
	<g>
		<path style="fill:#B0D3F0;" d="M361.921,502.964c0.005,2.978-0.503,5.934-1.501,8.739c-8.367-0.305-16.694-1.309-24.894-3.001
			c-2.383-0.441-4.767-1.059-6.974-1.677c-6.814-1.729-13.31-4.53-19.244-8.298c2.206-13.623,14.506-23.267,28.261-22.159
			S361.924,489.163,361.921,502.964z"/>
		<path style="fill:#B0D3F0;" d="M423.714,498.462c-2.958,2.012-6.125,3.699-9.445,5.032c-11.037,4.35-22.679,6.97-34.516,7.768
			c-1.501,0.088-3.178,0.177-4.767,0.265c-2.737,0.177-5.561,0.265-8.386,0.265h-1.677c-1.997-4.127-3.024-8.656-3.001-13.241
			c-0.024-17.064,13.789-30.916,30.852-30.941C409.837,467.585,423.689,481.398,423.714,498.462z"/>
	</g>
	<g>
		<circle style="fill:#FFFFFF;" cx="158.886" cy="141.033" r="17.655"/>
		<circle style="fill:#FFFFFF;" cx="150.059" cy="282.274" r="17.655"/>
		<circle style="fill:#FFFFFF;" cx="141.231" cy="211.653" r="26.483"/>
		<circle style="fill:#FFFFFF;" cx="353.093" cy="141.033" r="17.655"/>
		<circle style="fill:#FFFFFF;" cx="361.921" cy="282.274" r="17.655"/>
		<circle style="fill:#FFFFFF;" cx="370.748" cy="211.653" r="26.483"/>
	</g>
	<path style="fill:#2C2F38;" d="M399.526,344.155c-1.825,2.525-3.832,4.915-6.003,7.15c-1.834,2.159-3.81,4.194-5.915,6.091
		c-17.387-10.194-36.231-17.666-55.879-22.157c-16.404-4.02-33.118-6.648-49.964-7.857c-8.474-0.618-17.037-0.971-25.777-0.971
		c-8.739,0-17.302,0.353-25.777,0.971c-16.846,1.209-33.56,3.837-49.964,7.857c-19.592,4.49-38.379,11.963-55.702,22.157h-0.265
		c-2.055-1.92-4-3.953-5.826-6.091c-2.171-2.235-4.177-4.625-6.003-7.15c0.226-0.332,0.529-0.604,0.883-0.794
		c35.046-21.981,87.04-34.604,142.654-34.604s107.608,12.623,142.654,34.604C398.997,343.551,399.3,343.824,399.526,344.155z"/>
</g>
<g>
</g>
<g>
</g>
<g>
</g>
<g>
</g>
<g>
</g>
<g>
</g>
<g>
</g>
<g>
</g>
<g>
</g>
<g>
</g>
<g>
</g>
<g>
</g>
<g>
</g>
<g>
</g>
<g>
</g>
</svg>
