<svg id="Capa_1" enable-background="new 0 0 512 512" height="512" viewBox="0 0 512 512" width="512" xmlns="http://www.w3.org/2000/svg"><g><g><path d="m87.276 362.276c-31.379 0-57.75 21.445-65.255 50.48l7.859 16.916-10 13.085v39.103l2.18 30.14h83.914l13.773-10 16.227 10h120.039l10-76.946-10-72.779h-120.039l-16.227 10-13.773-10h-18.698z" fill="#ebe1dc"/><path d="m482.119 429.671 7.859-16.916c-7.505-29.034-33.875-50.48-65.255-50.48h-18.698l-15.346 10-14.654-10h-120.012v149.725h120.013l16.253-10 13.747 10h86.093v-19.163l-10-15.17 10-15.397v-19.514z" fill="#c8beb9"/></g><g><path d="m135.974 443.237v-80.962h-30v50.48h-83.951c-1.397 5.406-2.142 11.073-2.142 16.915v13.085h86.093v22.272l-86.093 16.83v30.143h2.179l83.914-16.404v16.404h30v-38.195l120.039-23.467 10-16.005-10-14.563z" fill="#c8beb9"/><path d="m492.119 442.756v-13.085c0-5.842-.745-11.51-2.142-16.915h-83.951v-50.48h-30v34.033l-120.013 23.462v30.568l120.013-23.462v85.123h30v-2.332l86.093-16.831v-30.567l-86.093 16.83v-36.344z" fill="#9b9696"/></g><g><path d="m256 0c-38.963 0-73.877 17.33-97.457 44.702l.929 11.851-20.46 18.598c-6.487 14.182-10.472 29.748-11.389 46.133l9.796 17.297-10 14.321v77.49l10 26.217-6.174 31.257c5.038 20.172 14.839 38.456 28.141 53.59l20.427 10.573 4.17 11.115c20.547 13.917 45.333 22.045 72.018 22.045h.013l10-197.615-10.001-187.574c-.004 0-.009 0-.013 0z" fill="#fff5f5"/><path d="m256.013 0v385.189c60.227-.006 110.781-41.42 124.742-97.323l-7.179-15.108 10.998-14.894c.004-.418.006-.836.006-1.255v-36.14l-10-14.969 10-15.031v-37.567l-10-14.321 9.877-15.679c-1.218-28.023-11.405-53.718-27.762-74.288l-20.773-1.94-2.174-20.513c-21.588-16.414-48.524-26.158-77.735-26.161z" fill="#ebe1dc"/></g><g><g fill="#ebe1dc"><path d="m159.391 341.451c7.232 8.229 15.494 15.529 24.592 21.692l72.03-33.241 10-16.902-10-16.138z"/><path d="m195.721 122.902 60.292-27.823 10-27.578-10-22.347h-97.847c-7.691 9.011-14.161 19.095-19.149 30h88.577l-99.964 46.131c-.135 2.415-.21 4.847-.21 7.296v24.321h128.594l10-16.402-10-13.598z"/><path d="m127.419 230.392v26.217c0 10.781 1.334 21.249 3.834 31.255h124.76l10-15.864-10-14.136h-116.528l81.032-37.395h35.496l10-27.874-10-21.547z"/></g><path d="m275.511 287.864-19.498 8.998v33.04l91.094-42.038h33.641c2.402-9.617 3.719-19.662 3.818-30h-128.553v30z" fill="#c8beb9"/><path d="m384.581 152.902v-24.321c0-1.904-.05-3.795-.132-5.679h-128.436v30h39.321l-39.321 18.146v49.421h128.568v-30h-99.056l81.405-37.567z" fill="#c8beb9"/><path d="m356.69 48.618c-6.682-8.404-14.395-15.949-22.946-22.451l-41.142 18.986h-36.588v49.925z" fill="#c8beb9"/></g></g></svg>