<?xml version="1.0" encoding="iso-8859-1"?>
<!-- Generator: Adobe Illustrator 19.0.0, SVG Export Plug-In . SVG Version: 6.00 Build 0)  -->
<svg version="1.1" id="Capa_1" xmlns="http://www.w3.org/2000/svg" xmlns:xlink="http://www.w3.org/1999/xlink" x="0px" y="0px"
	 viewBox="0 0 512 512" style="enable-background:new 0 0 512 512;" xml:space="preserve">
<polygon style="fill:#E47700;" points="297.14,497 286.436,102.057 225.564,102.057 214.86,497 "/>
<polygon style="fill:#984D00;" points="297.14,497 286.436,102.057 256,102.057 256.015,497 "/>
<rect x="178.45" y="482" style="fill:#FBBF00;" width="155.11" height="30"/>
<rect x="256.01" y="482" style="fill:#FFA900;" width="77.54" height="30"/>
<g>
	<rect x="208.89" y="249.37" style="fill:#984D00;" width="94.23" height="30"/>
	<rect x="204.88" y="326.92" style="fill:#984D00;" width="102.24" height="30"/>
	<rect x="201.29" y="404.46" style="fill:#984D00;" width="109.43" height="30"/>
</g>
<g>
	<rect x="255.99" y="249.37" style="fill:#723802;" width="47.13" height="30"/>
	<rect x="255.99" y="326.92" style="fill:#723802;" width="51.14" height="30"/>
	<rect x="255.99" y="404.46" style="fill:#723802;" width="54.728" height="30"/>
</g>
<path style="fill:#00AC00;" d="M256,102.057c0,0-29.968-70.012-91.08-93.464C103.809-14.86,34.697,17.129,34.697,17.129
	s29.968,70.012,91.08,93.464C186.888,134.045,256,102.057,256,102.057z"/>
<path style="fill:#33BC00;" d="M256,101.717c0,0-63.453-42.112-127.417-28.211s-104.216,78.55-104.216,78.55
	s63.454,42.112,127.417,28.211C215.748,166.367,256,101.717,256,101.717z"/>
<path style="fill:#79D60D;" d="M256,101.717c0,0-76.156-0.096-121.823,46.798C88.509,195.41,90.624,271.537,90.624,271.537
	s76.156,0.096,121.823-46.798C258.115,177.844,256,101.717,256,101.717z"/>
<path style="fill:#008100;" d="M256,102.057c0,0,29.968-70.012,91.08-93.464c61.111-23.452,130.223,8.536,130.223,8.536
	s-29.968,70.012-91.08,93.464C325.112,134.045,256,102.057,256,102.057z"/>
<path style="fill:#00AC00;" d="M256,101.717c0,0,63.453-42.112,127.417-28.211s104.216,78.55,104.216,78.55
	s-63.454,42.112-127.417,28.211C296.252,166.367,256,101.717,256,101.717z"/>
<path style="fill:#33BC00;" d="M256,101.717c0,0,76.156-0.096,121.823,46.798s43.552,123.021,43.552,123.021
	s-76.156,0.096-121.823-46.798S256,101.717,256,101.717z"/>
<g>
</g>
<g>
</g>
<g>
</g>
<g>
</g>
<g>
</g>
<g>
</g>
<g>
</g>
<g>
</g>
<g>
</g>
<g>
</g>
<g>
</g>
<g>
</g>
<g>
</g>
<g>
</g>
<g>
</g>
</svg>
