<svg id="Layer_1" enable-background="new 0 0 512.012 512.012" height="512" viewBox="0 0 512.012 512.012" width="512" xmlns="http://www.w3.org/2000/svg"><g><path d="m129.498 273.402h-59.626v101.072h127.418v-33.279c.001-37.381-30.411-67.793-67.792-67.793z" fill="#ff415b"/><path d="m69.872 374.474h127.418v-33.279c0-18.134-7.171-34.615-18.809-46.792h-108.609z" fill="#e50058"/><path d="m300.294 62.682-78.019-62.666h-222.275v511.979h137.769c59.509 0 107.923-48.414 107.923-107.923v-53.598h-91.877c-14.409 0-27.955-5.61-38.143-15.798s-15.799-23.734-15.799-38.142v-2.132c0-30.918 25.153-56.072 56.072-56.072h89.748v-73.52h18.666c31.644 0 57.387-25.744 57.387-57.387-.002-17.485-7.82-33.792-21.452-44.741z" fill="#ffd4c4"/><g><path d="m292.618 279.403h43.776v30h-43.776z" fill="#9ee2f8"/></g><g><path d="m276.636 219.757h41.252v30h-41.252z" fill="#9ee2f8" transform="matrix(.866 -.5 .5 .866 -77.553 180.085)"/></g><g><path d="m282.203 333.456h30v41.116h-30z" fill="#9ee2f8" transform="matrix(.5 -.866 .866 .5 -157.983 434.396)"/></g><circle cx="438.902" cy="294.403" fill="#ff7c48" r="35.885"/><path d="m403.017 294.403c0 19.818 16.066 35.884 35.885 35.884 19.818 0 35.885-16.066 35.885-35.884z" fill="#ff415b"/><path d="m512.012 309.403v-30h-24.484c-.944-3.054-2.175-5.983-3.65-8.763l12.666-12.665-21.213-21.214-12.666 12.666c-2.78-1.475-5.708-2.706-8.763-3.65v-24.485h-30v24.485c-3.054.944-5.983 2.175-8.763 3.65l-12.665-12.665-21.213 21.213 12.665 12.666c-1.475 2.78-2.706 5.709-3.65 8.763h-24.485v30h24.485c.944 3.054 2.175 5.983 3.65 8.763l-12.665 12.666 21.213 21.213 12.665-12.665c2.78 1.475 5.708 2.706 8.763 3.65v24.485h30v-24.485c3.054-.944 5.982-2.175 8.763-3.65l12.666 12.666 21.213-21.214-12.665-12.665c1.475-2.78 2.705-5.708 3.65-8.763h24.483zm-52.226-15c0 11.516-9.369 20.884-20.885 20.884s-20.884-9.369-20.884-20.884c0-11.516 9.368-20.885 20.884-20.885s20.885 9.369 20.885 20.885z" fill="#ff415b"/><g><path d="m282.203 333.456h30v41.116h-30z" fill="#5ecef4" transform="matrix(.5 -.866 .866 .5 -157.983 434.396)"/></g><path d="m292.618 294.403h43.776v15h-43.776z" fill="#5ecef4"/><path d="m0 511.996h137.769c59.509 0 107.923-48.414 107.923-107.923v-53.598h-91.877c-14.409 0-27.955-5.61-38.143-15.798s-15.799-23.734-15.799-38.142v-2.132h-99.873z" fill="#ffbea4"/><path d="m512.012 309.403v-15h-52.226c0 11.516-9.369 20.884-20.885 20.884s-20.884-9.369-20.884-20.884h-52.227v15h24.485c.944 3.054 2.175 5.983 3.65 8.763l-12.665 12.666 21.213 21.213 12.665-12.665c2.78 1.475 5.708 2.706 8.763 3.65v24.485h30v-24.485c3.054-.944 5.982-2.175 8.763-3.65l12.666 12.666 21.213-21.214-12.665-12.665c1.475-2.78 2.705-5.708 3.65-8.763h24.484z" fill="#e50058"/></g></svg>