<?xml version="1.0" encoding="iso-8859-1"?>
<!-- Generator: Adobe Illustrator 19.0.0, SVG Export Plug-In . SVG Version: 6.00 Build 0)  -->
<svg version="1.1" id="Capa_1" xmlns="http://www.w3.org/2000/svg" xmlns:xlink="http://www.w3.org/1999/xlink" x="0px" y="0px"
	 viewBox="0 0 512 512" style="enable-background:new 0 0 512 512;" xml:space="preserve">
<path style="fill:#F1F1F2;" d="M497.448,36.572L497.448,36.572C497.448,16.374,481.074,0,460.876,0H51.124
	C30.926,0,14.552,16.374,14.552,36.571l0,0c0,20.198,16.374,36.571,36.571,36.571h32.196c-20.198,0-36.571,16.374-36.571,36.571l0,0
	c0,20.198,16.374,36.571,36.571,36.571H51.124c-20.198,0-36.571,16.374-36.571,36.572l0,0c0,20.198,16.374,36.571,36.571,36.571
	h93.655c-20.198,0-36.571,16.374-36.571,36.572l0,0c0,20.198,16.374,36.571,36.571,36.571h98.649
	c-20.198,0-36.571,16.374-36.571,36.571l0,0c0,20.198,16.374,36.572,36.571,36.572c-20.198,0-36.571,16.374-36.571,36.571l0,0
	c0,20.198,16.374,36.572,36.571,36.572c-20.198,0-36.571,16.374-36.571,36.571l0,0c0,20.198,16.374,36.571,36.571,36.571h30.027
	c20.198,0,36.571-16.374,36.571-36.571l0,0c0-20.198-16.374-36.571-36.571-36.571h61.238c20.198,0,36.571-16.374,36.571-36.572l0,0
	c0-20.198-16.374-36.571-36.571-36.571h62.321c20.198,0,36.571-16.374,36.571-36.572l0,0c0-20.198-16.374-36.571-36.571-36.571
	h63.862c20.198,0,36.571-16.374,36.571-36.571l0,0c0-20.198-16.374-36.572-36.571-36.572h-63.862
	c20.198,0,36.571-16.374,36.571-36.571l0,0c0-20.198-16.374-36.572-36.571-36.572h63.862c20.198,0,36.571-16.374,36.571-36.571l0,0
	c0-20.198-16.374-36.571-36.571-36.571C481.074,73.143,497.448,56.769,497.448,36.572z"/>
<path style="fill:#E6E6E6;" d="M460.876,146.286H83.319c-20.198,0-36.571-16.374-36.571-36.571l0,0
	c0-20.198,16.374-36.571,36.571-36.571h377.557c20.198,0,36.571,16.374,36.571,36.571l0,0
	C497.448,129.912,481.074,146.286,460.876,146.286z"/>
<path style="fill:#CCCCCC;" d="M397.015,219.429H51.124c-20.198,0-36.571-16.374-36.571-36.571l0,0
	c0-20.198,16.374-36.571,36.571-36.571h345.891c20.198,0,36.571,16.374,36.571,36.571l0,0
	C433.586,203.055,417.212,219.429,397.015,219.429z"/>
<path style="fill:#B3B3B3;" d="M460.876,292.571H144.779c-20.198,0-36.571-16.374-36.571-36.571l0,0
	c0-20.198,16.374-36.571,36.571-36.571h316.097c20.198,0,36.571,16.374,36.571,36.571l0,0
	C497.448,276.198,481.074,292.571,460.876,292.571z"/>
<path style="fill:#999999;" d="M397.015,365.714H243.428c-20.198,0-36.571-16.374-36.571-36.571l0,0
	c0-20.198,16.374-36.571,36.571-36.571h153.586c20.198,0,36.571,16.374,36.571,36.571l0,0
	C433.586,349.341,417.212,365.714,397.015,365.714z"/>
<path style="fill:#808080;" d="M334.693,438.857h-91.265c-20.198,0-36.571-16.374-36.571-36.571l0,0
	c0-20.198,16.374-36.571,36.571-36.571h91.265c20.198,0,36.571,16.374,36.571,36.571l0,0
	C371.265,422.484,354.891,438.857,334.693,438.857z"/>
<path style="fill:#666666;" d="M273.455,512h-30.027c-20.198,0-36.571-16.374-36.571-36.571l0,0
	c0-20.198,16.374-36.571,36.571-36.571h30.027c20.198,0,36.571,16.374,36.571,36.571l0,0C310.026,495.626,293.653,512,273.455,512z"
	/>
<path style="fill:#E6E6E6;" d="M460.876,73.143H256V0h204.876c20.198,0,36.571,16.374,36.571,36.571l0,0
	C497.448,56.769,481.074,73.143,460.876,73.143z"/>
<path style="fill:#CCCCCC;" d="M460.876,146.286H256V73.143h204.876c20.198,0,36.571,16.374,36.571,36.571l0,0
	C497.448,129.912,481.074,146.286,460.876,146.286z"/>
<path style="fill:#B3B3B3;" d="M397.015,219.429H256v-73.143h141.015c20.198,0,36.571,16.374,36.571,36.571l0,0
	C433.586,203.055,417.212,219.429,397.015,219.429z"/>
<path style="fill:#999999;" d="M460.876,292.571H256v-73.143h204.876c20.198,0,36.571,16.374,36.571,36.571l0,0
	C497.448,276.198,481.074,292.571,460.876,292.571z"/>
<path style="fill:#808080;" d="M397.015,365.714H256v-73.143h141.015c20.198,0,36.571,16.374,36.571,36.571l0,0
	C433.586,349.341,417.212,365.714,397.015,365.714z"/>
<path style="fill:#666666;" d="M334.693,438.857H256v-73.143h78.693c20.198,0,36.571,16.374,36.571,36.571l0,0
	C371.265,422.484,354.891,438.857,334.693,438.857z"/>
<path style="fill:#4D4D4D;" d="M273.455,512H256v-73.143h17.455c20.198,0,36.571,16.374,36.571,36.571l0,0
	C310.026,495.626,293.653,512,273.455,512z"/>
<g>
</g>
<g>
</g>
<g>
</g>
<g>
</g>
<g>
</g>
<g>
</g>
<g>
</g>
<g>
</g>
<g>
</g>
<g>
</g>
<g>
</g>
<g>
</g>
<g>
</g>
<g>
</g>
<g>
</g>
</svg>
