<svg height="512pt" viewBox="0 -41 512 511" width="512pt" xmlns="http://www.w3.org/2000/svg"><path d="m512 52.730469-46.203125-6.085938 12.0625-45.011719-54.125 14.503907c-17.300781-10.25-36.945313-15.636719-57.242187-15.636719-62.03125 0-112.5 50.46875-112.5 112.5v14.59375c-77.421876-4.210938-148.691407-40.941406-197.355469-102.234375l-12.582031-15.847656-11.503907 16.644531c-4.554687 6.585938-8.417969 13.6875-11.488281 21.097656-9.542969 23.039063-11.234375 47.929688-4.886719 71.988282 3.730469 14.152343 10.25 27.492187 18.984375 39.148437l-17.832031 4.28125 3.5 14.585937c9.300781 38.726563 37.746094 68.851563 74.265625 80.914063l-17.535156 20.53125 11.40625 9.742187c17.238281 14.722657 38.238281 23.863282 60.570312 26.363282-39.984375 34.902344-92.289062 56.050781-149.535156 56.050781l6.441406 4.476563c50.527344 35.105468 109.847656 53.664062 171.550782 53.664062 80.402343 0 155.988281-31.308594 212.839843-88.160156 56.851563-56.851563 88.160157-132.441406 88.160157-212.839844v-15c0-5.292969-.371094-10.589844-1.105469-15.8125zm0 0"/></svg>