<svg height="512" viewBox="0 0 58 58" width="512" xmlns="http://www.w3.org/2000/svg"><g id="005---Alien-Space-Ship" fill="none" transform="translate(-1 -1)"><g fill="#2c3e50"><path id="Shape" d="m10.51 41.3-4.07 11.7c.52745974.0782908 1.02452033.2957548 1.44.63l7.43-10c-.91-.34-1.75-1.71-2.55-2.1s-1.55.21-2.25-.23z"/><path id="Shape" d="m49.49 41.3 4.07 11.7c-.5274597.0782908-1.0245203.2957548-1.44.63l-7.43-10c.9-.33 1.74-1.7 2.53-2.08s1.56.19 2.27-.25z"/><path id="Shape" d="m30 45c-.81 0-1.59 1-2.35 1l1.71 5.12c.4219274-.0899348.8580726-.0899348 1.28 0l1.71-5.12c-.76 0-1.54-1-2.35-1z"/></g><path id="Shape" d="m58.85 30c-1.56 4-7 16-28.85 16s-27.29-12-28.85-16c-.3585675-.914232-.07386809-1.9554184.7-2.56 1.4573102-1.0971279 2.98380653-2.0992043 4.57-3-.28.82.58 1.68.58 2.56 0 7.73 9.75 12.5 23 12.5s23-4.77 23-12.5c0-.88.86-1.74.58-2.57 1.5861935.9007957 3.1126898 1.9028721 4.57 3 .7784272.6059867 1.0635942 1.6529568.7 2.57z" fill="#3f5c6c"/><circle id="Oval" cx="6" cy="56" fill="#ff5364" r="3"/><circle id="Oval" cx="30" cy="54" fill="#ff5364" r="3"/><path id="Shape" d="m54 27c0 7.73-10.75 14-24 14s-24-6.27-24-14c.09399835-2.6637984 1.24131038-5.181411 3.19-7-.09.6.86 1.22.84 1.84v1.13c0 9 8 11 20 11s20-2 20-11c0-.38 0-.76 0-1.13 0-.62.93-1.24.84-1.84 1.9265456 1.8286159 3.0517069 4.3449512 3.13 7z" fill="#547580"/><circle id="Oval" cx="54" cy="56" fill="#ff5364" r="3"/><path id="Shape" d="m51 23c0 9-9 12-21 12-6.67 0-16.14-.91-19.6-6.64 3.87-19.36 17.99-22.54 29.21-24.92 7.1007859 3.93340486 11.4736996 11.4429914 11.39 19.56z" fill="#26b99a"/><path id="Shape" d="m39.61 3.44c-10.61 2.26-25.9 8.37-29.21 24.92-.96212039-1.6191735-1.4474109-3.4771429-1.4-5.36 0-16.74 16.93-27 30.61-19.56z" fill="#81ccb8"/><path id="Shape" d="m16 18c-.5522847 0-1-.4477153-1-1 0-1.69.69-4 2.65-4.8 2.18-.94 5 .25 8.46 3.51.1893127.1877666.2957983.4433625.2957983.71s-.1064856.5222334-.2957983.71c-.3900375.3877236-1.0199625.3877236-1.41 0-2.69-2.55-5-3.69-6.3-3.12-1 .42-1.44 1.83-1.44 3-.004906.5331565-.4272467.9686954-.96.99z" fill="#cc66a1"/><path id="Shape" d="m44 18c-.5522847 0-1-.4477153-1-1 0-1.13-.45-2.54-1.44-3-1.32-.57-3.61.57-6.3 3.12-.3900375.3877236-1.0199625.3877236-1.41 0-.1893127-.1877666-.2957983-.4433625-.2957983-.71s.1064856-.5222334.2957983-.71c3.43-3.26 6.28-4.45 8.46-3.51 2 .81 2.69 3.12 2.69 4.81 0 .5522847-.4477153 1-1 1z" fill="#cc66a1"/><path id="Shape" d="m30 11c-.5522847 0-1-.4477153-1-1v-3c0-.55228475.4477153-1 1-1s1 .44771525 1 1v3c0 .5522847-.4477153 1-1 1z" fill="#ecf0f1"/><path id="Shape" d="m34 12c-.4062651.0023626-.77358-.2413038-.929371-.6165185-.1557909-.3752147-.0690889-.807391.219371-1.0934815l1-1c.3921222-.39212214 1.0278778-.39212212 1.42.00000004.3921221.39212215.3921221 1.02787776 0 1.41999996-1.06 1.06-1.19 1.29-1.71 1.29z" fill="#ecf0f1"/><path id="Shape" d="m26 12c-.53 0-.67-.26-1.71-1.29-.2536586-.2536586-.3527235-.623374-.259878-.96987804.0928454-.34650405.3634959-.61715452.71-.71.346504-.09284548.7162194.00621947.969878.25987804l1 1c.2884599.2860905.3751619.7182668.219371 1.0934815-.155791.3752147-.5231059.6188811-.929371.6165185z" fill="#ecf0f1"/><path id="Shape" d="m40 26c0-1.1045695-.8954305-2-2-2v-1c0-4.418278-3.581722-8-8-8s-8 3.581722-8 8v1c-1.1045695 0-2 .8954305-2 2 0 2 2 3 2 5v3.44c5.3073165.7450009 10.6926835.7450009 16 0v-3.44c0-2 2-3 2-5z" fill="#804169"/><path id="Shape" d="m38.29 26.12c0-2-1.66-2-1.66-2v-1c0-4.47-3-8.09-6.63-8.09s-6.63 3.62-6.63 8.09v1s-1.66 0-1.66 2 1.66 3 1.66 5.05v3.48c4.3881777.7500783 8.8718223.7500783 13.26 0v-3.48c0-2.02 1.66-3.03 1.66-5.05z" fill="#cc66a1"/><circle id="Oval" cx="16" cy="19" fill="#804169" r="2"/><circle id="Oval" cx="44" cy="19" fill="#804169" r="2"/><path id="Shape" d="m31.59 27.83c-1.0475095.2301295-2.1324905.2301295-3.18 0-3.21-.7-3.21-3 0-3.66 1.0475095-.2301295 2.1324905-.2301295 3.18 0 3.21.7 3.21 2.96 0 3.66z" fill="#fff"/><path id="Shape" d="m31.59 27.83c-1.0480439.2251533-2.1319561.2251533-3.18 0-.800241-1.0887734-.800241-2.5712266 0-3.66 1.0480439-.2251533 2.1319561-.2251533 3.18 0 .800241 1.0887734.800241 2.5712266 0 3.66z" fill="#26b99a"/><path id="Shape" d="m30.87 28c-.5778851.070047-1.1621149.070047-1.74 0-.1750163-1.2941095-.1750163-2.6058905 0-3.9.5778851-.070047 1.1621149-.070047 1.74 0 .1750163 1.2941095.1750163 2.6058905 0 3.9z" fill="#3f5c6c"/></g></svg>