<svg id="Capa_1" enable-background="new 0 0 512 512" height="512" viewBox="0 0 512 512" width="512" xmlns="http://www.w3.org/2000/svg"><g><path d="m379.027 196.67 71.92-71.92.11.11c24.139 24.139 24.139 63.275 0 87.414l-26.948 26.948c-5.796 5.796-13.657 9.052-21.853 9.052h-33.216z" fill="#9b9696"/><path d="m132.973 196.67-71.92-71.92-.11.11c-24.139 24.139-24.139 63.275 0 87.414l26.948 26.948c5.796 5.796 13.657 9.052 21.853 9.052h33.215z" fill="#c8beb9"/><g><path d="m132.985 123.015v19.17l123.015-1.09 10-81.228-10-59.867c-67.939 0-123.015 55.076-123.015 123.015z" fill="#736e6e"/><path d="m379.015 123.015c0-67.939-55.076-123.015-123.015-123.015v141.095l123.015-1.09z" fill="#464141"/></g><g><g><path d="m90.141 351.666c-34.137 0-61.811 27.674-61.811 61.811v98.523h227.67l10-80.167-10-80.167z" fill="#736e6e"/><path d="m483.67 413.477c0-34.137-27.674-61.811-61.811-61.811h-165.859v160.334h227.67z" fill="#464141"/></g><path d="m173.271 337.213.395 87.146 20.454 87.641h61.88l10-93-10-81.787z" fill="#fff5f5"/><path d="m256 337.213v174.787h61.8l20.424-87.394.425-87.393z" fill="#ebe1dc"/></g><g fill="#9b9696"><path d="m69.537 337.213 56.286 172.727v2.06h68.297l-20.849-174.787z"/><path d="m338.649 337.213-20.849 174.787h68.377v-2.06l56.286-172.727z"/></g><path d="m184.195 112.567-5.224-1.827c-22.482-7.864-45.998 8.823-45.998 32.641l.025 142.597c0 16.611 7.855 32.106 20.899 41.228l49.708 34.761c9.01 6.301 19.556 9.658 30.337 9.658h22.058l10-144.625-10-102.237c-24.28 0-48.561-4.065-71.805-12.196z" fill="#ebe1dc"/><path d="m333.03 110.74-5.224 1.827c-23.245 8.131-47.525 12.196-71.805 12.196v246.863h22.083c10.781 0 21.327-3.357 30.337-9.658l49.708-34.761c13.044-9.122 20.899-24.617 20.899-41.228v-142.598c-.001-23.818-23.516-40.505-45.998-32.641z" fill="#c8beb9"/><g><path d="m281.792 178.694h48.97v30h-48.97z" fill="#464141"/></g><g><path d="m181.238 178.694h48.97v30h-48.97z" fill="#736e6e"/></g><g><path d="m208.034 272.188h30v35.973h-30z" fill="#fff5f5"/></g><g><path d="m273.966 272.188h30v35.973h-30z" fill="#ebe1dc"/></g><g><g><path d="m256 291.677c-18.603 0-37.398-3.757-55.864-11.167l11.173-27.842c14.897 5.978 29.933 9.009 44.691 9.009l10 17.573z" fill="#ff8596"/></g></g><g><g><path d="m256 291.677v-30c14.758 0 29.794-3.031 44.691-9.009l11.173 27.842c-18.466 7.409-37.261 11.167-55.864 11.167z" fill="#ff415b"/></g></g></g></svg>